<mxfile host="app.diagrams.net" modified="2022-07-21T17:54:47.099Z" agent="5.0 (X11)" etag="ck9BXP-NVEdZaaAZSARc" version="17.4.1" type="github">
  <diagram id="CvHfOI2D6RJw7ddIZjHd" name="Page-1">
    <mxGraphModel dx="2844" dy="1468" grid="1" gridSize="10" guides="1" tooltips="1" connect="1" arrows="1" fold="1" page="1" pageScale="1" pageWidth="2339" pageHeight="3300" math="1" shadow="0">
      <root>
        <mxCell id="0" />
        <mxCell id="1" parent="0" />
        <mxCell id="gkKONAMZXfoWPJbwshIl-1" value="" style="rounded=0;whiteSpace=wrap;html=1;" vertex="1" parent="1">
          <mxGeometry x="80" y="400" width="1350" height="760" as="geometry" />
        </mxCell>
        <mxCell id="gkKONAMZXfoWPJbwshIl-2" value="" style="rounded=0;whiteSpace=wrap;html=1;" vertex="1" parent="1">
          <mxGeometry x="80" y="80" width="2160" height="240" as="geometry" />
        </mxCell>
        <mxCell id="gkKONAMZXfoWPJbwshIl-3" value="Self-Optimizing Random Forests" style="text;html=1;strokeColor=none;fillColor=none;align=center;verticalAlign=middle;whiteSpace=wrap;rounded=0;fontSize=97;fontStyle=1" vertex="1" parent="1">
          <mxGeometry x="110" y="140" width="1550" height="30" as="geometry" />
        </mxCell>
        <mxCell id="gkKONAMZXfoWPJbwshIl-4" value="Felix Mohr, Universidad de La Sabana, Colombia" style="text;html=1;strokeColor=none;fillColor=none;align=center;verticalAlign=middle;whiteSpace=wrap;rounded=0;fontSize=64;" vertex="1" parent="1">
          <mxGeometry x="80" y="248" width="1500" height="30" as="geometry" />
        </mxCell>
        <mxCell id="gkKONAMZXfoWPJbwshIl-5" value="" style="shape=image;verticalLabelPosition=bottom;labelBackgroundColor=default;verticalAlign=top;aspect=fixed;imageAspect=0;image=data:image/png,iVBORw0KGgoAAAANSUhEUgAAAJoAAADMCAYAAACLKLr9AAAACXBIWXMAACHHAAAh3gGpds7GAABQdUlEQVR4nO2dBZxUZRfGD4ggYJCKgqR0SHd3d3cICqKEgpSAIC0giITSDQIiHSIq3d0hiISENEoI3/s/O3ecHWZn7ixb8O3j78ru7J2ZO3fOe96Tz4kmIiclEpEIXZyLZv6XIryvIhLPPKJEC+8riMT/ByIFLRJhgkhBi0SYIFLQIhEmiBS0SIQJIgUtEmGCSEGLRJggUtAiESaIFLRIhAnCXdBix44tOXPlkrx58krq1KnluWjPyR9//CH79+2Tfea4cOGCXLt2XR4+/FfPjxIlimTKlEny5ssv6dOllWjPPy9XrlyRLZu3yNatW+Svv/5yvna0aNGkTJkykipVKvn34UNZtmyZ/HbSd8YtZsyYkj9/AXPkl1dfTaiPHTlyVLZt2yq7du2Se/fuOc99+eWXpXr1Gubfl/T3nTt3yfr16wK9XvESJSRjxowSxfx87tx5mTfvO308VqxYUrVqVUmQIMFj1/Do0SO5dv2GHNi/z7zmTufjr7wSR2rUqC4vvvii3LlzR2bOnGX+vR3ouenSpZNSpUvr+3Fv5s2bJ3fv3vX5uUMT4SpoL7wQUyZNmixly5ZRgUOIOLjJfJm3bt2S7dt3SP0G9eUvc8NA6zZtpGfPnhI/Xjx57rnn9PyHRoj++ecf2b17t9StW1fOnDmj5z548EDeeCOxDB8+XE6dOi2TzXv5QuLESWTcN99IkcKFVBCiRo3qfK3bt2/L5MlTpFu3rvolA967fv16UsIIE/iwXfvHBK1cuXLSoX17vdaen/ZyPs41lyxZSpo0aezxWh78+6/cvnVbPvnkE/n222/0sb///lsaN2kihQoW1GuZOHGix/vKZ0bQfvhhkcyePdvn5w5thJugoQnmzJmrQnb6999l6NBh8vPPP8v169ckU+YsUqFCeSljVuWs2bNUyPjC32nZUkZ9NcpouKsqoKtWr9bVnDxZMmnarJnkMxpo6bLlUqliBTl9+rS+z/UbN/S5f/99R+7e876q0Y7Dhg+T8uXKyuHDh2X8+PFy9Ngxec48P3/+gtKoUQN57713zTVel169eupzELT7RggtgUSg5n03V/7880/9PVGi16WG0XgsCnDj5g3n+/Hca9eu6XMXLvxBvvlmnNHo5it5FKDtyprraNK4sQwePFjmz5+n2vqR+e/B/YD3u2kWIq/hCt6ndu3aes2goBHIdOnTG824PwS+teAj3AStUqXKUrx4Md1KatSoKbt27nDeNDTTwu8XSOHChWXVqlX6WDyjwdoYbfbgwX35vF8/+WrkSLl//77z9ebOnSuLFy+RvHnzyLvvvSc9unfX14saNYrjjABt6Q2lSpXSrezmzZtGqBrploV2BUuWLJFNmzfKXLM4Pv74Y/nObEf79+11PvdftM+dvyVZsqRSzQjW2DGj9f0GDx4ib775pgrFS2a7swTSgnVNp06fkuXLlwf6W7Roz6ugPW8WQNSozz12vVE9fJ433nhDqlWrpgvszO9/SPr0aVXQ/28FLXuOHHoD0WJ79+x+bGWybWJTWUiWLLmkSplSbpgbuPD77wMJGbh8+bJMnzFDcubMITmyZ5MYMWLoNuMP6tWtJ9HNNU2bOk127NgR6G8IEu+7detWKVAgv5Q0W6UlaHzd2EAzZ86UVi3fkRbNm8nECeMlR86cUqtWDdmyZYv8zTZZoniQ712rZk3JmjWrChTCzb3J+nYW3V4/+6yP0WZXbH2GylWqGlv3LRk7bpxs2rhJpk2bKo2NsI40C5OdILwQboL2YuxYupoREL5En+e/GFtv/nVjILPdeAJCiMA+Z74sd81hBzHNdgVOG+0SFM4b5wQkSpTosb+tXLFCMmfKKHny5DECVlu3LQR+3LixUscIsTckfPVVNfTRwOhQtBVOCYvlhRdi2Lr+uHHjSrt27dSB6t2rl9qRW7d+ILlz5zJ2ZTfp3LmTrdcJDYSboF26fEWFIkPGDGq8untOgJt/16xoBOiyOf+WMcbx7lKkSBHIu7SQ+q231Ma5bb4cO8Lrjgvnz+u/RYsWlUGDBgXyLsFLL70kGTNk0J+PHDkS6G9RjGCjZdsbZ+DHn9bIyK9GSjRjL23fsVMWLFhgHJqGXt971qxZqrl4DhqNbbOYMS369+8nvXv3khUrV8o241UHBRZt48ZNzD1IJcePHzcORBd9DFODf1saTTtx0kQ5fOiQ3/clJBBugvbLz2vlo44dJH++fNKxY0fjJQ1Tr84CoY4hQ4YYo/yIrsYzf5yRQwcPGaM8n3Tp0kVatWolV68GbAVsN9WrVzeG+ntqBP+4+sfH3HmE+oHbdmshQYKERpAvGc/uW91mChYsZOy81jJm9NfqbYKXX3lFBg4cKGnTppGz587JsuXLPL7Wrt27ZNXKVUaj1VSnoe3779vawllIv508EeixM2dO6z16xThOr5lF5w2vmr83atRQ7+HZs+fkbbMNA7bsixcvSvz48dU0sJyYsEa4CdratWuNl/WttGzVUvr27SNVjBG+apXxIm/f0jhQOeNxvWK+XGJgk6dM1pXYv39/mWHssJrGnsmdO7csWrRILl/5S3LkyC7lypZVTbBkyVLjkU5yGvEPHwb8myjRa8ajHGEexxZ0GNHmHAQoQfx4xgmoInv37pExY8eo5zj0iyFSuXJl2b59u8bjihYtItmzZTNe400V/D8dWyjvo2+lb/NINemUKVM01rV06TJj623Xcyyz3bqu/xDwe968eaVT50/0vTiH2BpxPD4/cUTLiw54P8dnc3mtokWLaaxusXFaGtSvH8iG7dq1m2rG+ubxwYMHBVrQYYVwEzQ0RadOneTwkcPmi+0gOY2wcFg4cPCgfPHFUONJLpLTp07pYytXrlCB4MaVLFlS2rZt6zz/woU/ZcKEiTJ06BfGkbipj+Hqp02bVn9OmDCh2dY+8HgtGzdudP7cv19/4wmfU01UvFhRpwF/79592bZtu3z55XD53jgFFmLGjCVx48U17xVVY3BgzZofjQe5UiZPnqyCFydOHImfIL7+LUmSJM5YISEMzABQwGhqDlf8889dWb9+vfTp+7kcOBDgNb4YO7bEiRtHf06bJo3acSlTppLuxst+4YUXZNOmzU4tbGGvw2lJlSql2dK/0vt948Z1b19PiCNcA7b37t0129No4+VN1Uh8qlRvmVX60GyRB2Xb9m3ytyMoaoHt79dff5V169YZtz2DMbpzmxsd2wjGWX3sypXLgc7ny5xuvK6ZM6YHeQ0JEr4qpUuXcv7OFzByxAjjNU5QYz5FilTyr7mm3Tt3yc6dO9TmccVto4EJhaDWrO0aT7Fa9apy32HjYevVr1fP6VlbGgmB6NChg3z00Uee74/RStiNrtqJ17ZeC+3Hv2z7aFCN6Zlz3bXmNuMpv2XsV4Bz4i6IYYFwT0EBQhmrVq00P620dT438uDBA3p4Azf+t99+83rOiRMnPBrZXNMK40X6AsJ1whjf7rjv4kjg/R07duyxcxBAX9fnDgTN/bUIDlsBYk/ARuMIT0QIQQtvuMfwIhHyiBS0SIQJIgUtEmGCSEGLRJggUtAiESaIFLRIhAkiBS0SYYJIQYtEmCDcBC1PnrySKXMmK9UXiVAGaa8dO3fILpf+g7CEX4JGyuOll16WGDGiez3v9dff0NqxrV7KWho0aCBt277vs+o1EiEDgtL9+vUPcUEjj1uyVGlZMG+epg+Dgm1By5s3n1ZaUMEQPXp0rwISK1ZsLanxJmjBqReLxJMhpHOclB4NGjRYUqRMKfMdnV1BwZagVa9RQ2ZMn67VAXZw//6DyLTOMwoUzOuvv64lVN2695A3kySWlatW+3yeT0GjlKV37962hSwSzy7oXGvduo1Wq9CXwM4G7Jg/PgWtYsVKkjlTJv2Zkuq1a3/WVjQtRfHwBo+MJkuePPljzSOReHqRMOGrUr58eenStaukS5vG+TgyQDVJiAhapcqVnD9/3KmTTJk8+bFaendQ80RDcCSebtANX79+A3n33VZavcv3auHq1WvaC0EvQ948eSSgajnoEIJXQXv++ehGgtPrz5QSY6f5EjJAjVZ4t+CHFljFODJ44M8a2Aqt7n+oJHr16i1vv53F+XerjBwZaNiwoSxbtlQfp2HaF7zeLd44YcIAXoiNmzY7aQD+n4H5QLk0HfbPGvLly6fl8S+++JL2SFh2OVbSufPnZM7sOdrLkTRpUrlw4bxfr+1V0OgxJB4GaMqIhMhff12VWbNnmxVf+pmLAfJdY4vFcvS3EjlAuUyYOEkGDhggN2/ekKxZ35ZkyZL53TfrVdB4I2urjBsnTvCu/hkDDc+rV62U8+cvyBtvvB7elxOqoOEHGooffliov2N3B6cxG3gVNDzHK39dMV5kMimQP7/ENsbh7Vu3gvVGzwp+P3NGqaCgr3rWBe311xPJ7Nmz5KuvRmm7nqfGF7vwKmhoswMHDkiO7NklceI3pEXzFjJq1CgnV1lQwDtB/VoNvs8SNm/aqPflp7VrzTZT7pnaPqGb6NK1mxplNFJnz55N7bSPPuqobY5Tpk7TtkHX3lK78Ok6rVyxUhrTTmZA82n5ChVk27Ztuq16usl4ZJCx/PrrOhk//hu/LuZpwMGDh/Xfn42gYbfSRf6sgGbn7du36c/jx3+rNA5weCRJkliZAz77rLcGMYidWcFau/ApaHSDE6ClexxNVaZ0KT28gRTUhvXr/bqQpwFXrvwlW7du1p9pb4NM5VkSNNe0ITQOE4ywLVu6TOrUqa1d7tnNzhb1uaiq5SYaB2HO3Dny6y+/SM6cuWTIkMFetZxPQaPre+DAQTJhwngnmZwdPIvVP0ePHZXLDuZJCAPP/nFOu8WfZZw/f1ZGjPhSJk2aqBSqcHfgdaZLl1Y+7dFD7nTsKJs2b1FB8wZbUccpUyYrXWfjJo0lXdp0xvuI5TH9BJBqWHeeJdvFwsYNGwOCSiLKX7Fr104pXrxo+F5UGIDvFMIahG35iuXS0Gyp9YyGeztLFs0ePLRhr9kOb//00xpZt36dvnB0ja0FJUiP5NXXXtME7LMESmwQLAvc/E2bNvl83t2795TNcfu2HZImbRrlF3maFyEUDV98MUSJbCpVqiRdu3ZRqi1f8CuPQpv/VQ+8ZO7w1p4fkYC7vmXLNvWiEyRMIHFeiSMvv/KyxI4V6zFhYEXv2bMn0GObt2wxpsVtef75aHLjxk3lbIMk8PDhQ3LkyDHZt2+PnDh5UikTcuTIKd/ZSNU8Lbh06aKx0ybITrP42rVr7ySuCQrPXsLOD2BzonlbtnrH2Ft/6JafOPGbkjx5UslmDF/sr7eMt5UkcWLlrnAn/7tw/px06NjB3PRLcuq3U/p3bFrSVK6FnZkzZ1Ha0cTmdZ417N61SzncfNUf/l8LGlHuLFkyyerVq6V5s+bKfI2HrZgwQf95+eVX1L2PGy+eZgVcgTCN//Zbr+8BxxvskZAoR3RYCXV/K3GtUqFIjeYDLxtNBs8s7NmjR38dqEIFGquDB4PHJUYYYMyYcVK69NORF01jNHiFCpVk5aqV6utFCdIODwCCFcN8xmZNm8knn3RSNvOg4FXQuDlVqlRVI9jbi7gj0euvy03oxx2DJZ4GUP8OvSkkyJ9+2iNECjfbtHlfWbkh6XsaAJdw584fy4AB/QMe8LE2EDRInSk0QNC8wadGa/vBB5L4jTd0EIOdNQmVJ7SYbdq0fqoEzQJlMnPnzgk0Fic4YCJK125dn8q6tWjR7MdLgZ1F6fMusF8TnPMHRJWDm3wNbxAjzPL2208kaETQoUR92vos2MGIDwbFcYvBT3jrVR/EzZ7gU9BYkWybcLh6zm0+kOgxYqj3FvGtEHvIkzuPTJ40KVjPpc8R7t2nTcjAeeNFN2nSVE0lT4qC6p2ZM2ZI8eIBvL6cw4A4qPx92aA+bTTc104ff6x5PfcXQ8IZAjF3zhzJkTNHoMd9bvARFFw73LUsMH+9LxLNk6dOlQIFCqhHilf7NDgBFs6fP6+HJ8BeToVtkSKFnY+xc9WoUUPp5n0xffssfPz4Y89EvoCxOWPGjNaxOBYYNzjbXBABvacFcPEzK+noseOyd88eOX7iRLD7Ugf066chDxi6MTkY+ZghfQalnw9u0WB4AwdJJ/65CNnJkyelRYsWWsljB8G2VFnxpCEKFy7kfIyKzLr16qoWfBrwz927MmH8BK2xYxLKIy8t/XZAWIS5T+4gFlejZk1p9+EHkjlLFo/DwiIqiK1Nmz5DShQv5nwMTdaseXOt3LCLYAka3BrfuEk4qRammTwNQsYMA2YALJi/wKzME76fIAELixBI3LjxdHgtJgxU8Ix4pOLWm/NDLG7SxAlm65klhQoXlmbNmuuYyBcjeEtivHjxZeTIrwINS6Mb7p13WvolZCBYgjZ69Gi9URZIz9C9vMllMEREBBpnvNFgDN+i6cKXZ8ywiiJFimjrWe48eXQ8zwva2/hfDyPpph07dxkhmq2jFr1NkOM9GUz205o1UsDYgWNGjzXba8QsM2IWFRPyalSv5nwMSvw2778vP/7omwLhsdfz52Q4F0abm1O1amXnY8zbfN+8+WYblQzhCeYJ9DP2EzlHbz2nxAAZOlalShUpYv59w3xmtg+2ixkzZ+mAjLNnzxrByysdO7SXHDlySMUKr+swWbT6tGnTtazqd8dIHU8g7kSFbgmjKaharlOnToSKt6HJMCdq1azhfOyccRLat28faLSlP/Dr0w0YMFAqV67o/P3PPy9qXdK6X3+J0HGz06d/l5q1asme3bu9XmfWrNll7Ngx2jTrHp5Y/eOP0sEI1i1HhoQJcozNWb9uvY54xNBnul7vXj2NFqiu3tiJE48PunAFE19atmypTkiP7t2crY3hBYbKpk6TRurXqy+1a9dyPk7lCgPdFi9aFOzX9iloxMdYbYMGD9bpaZbnROMJmiyiC9kx8yXWq1fPq+2oYwaNfTn0iy80IOkJi35Y5BQyCwgug20rVqzgfIz7g6D+uu5XFTZfmh5N+cWQwTq9jmxKeALb+7vvvpOECRI4HyNs8UmXbsYm+1VjhK7gW3/eyEaxYsU1QE1yPSj4jKMNGTJUUqdOpbaKJWQXL12SJk2aqL3hSciUrO+FGHLZnBeeYFtncdB04Q1NmjTzKmQgqDTLP3cDbi73Yaex1fDESeEwCHbElyPUYfL2BQBsty5dPpGUqVJJ2TKlfXyq0IOGdNy+Tz53s2ZNjQPQ4rGYoCbVo0dXB4lxRsEWNJAiZQojscUCPUYOM1/efFKwQMHAb+z4l7GGXw4f7pyHHh7gBrHV+4rz5Muf33jQY3Xb4gtftHix2k/x4ieQ6tWqStZs2bSCFIeAwkXX2Zs07BQtUlR/Xr36R3WILl4MKPocMWKkjnNkpnrHjh18Bn/Jvrzfpo2WLKVMmeLJPnwIAi2WJ3cur+ewoH11ifgUNE+By2zm5sP8GFTUmy9j+LBhvl46VDFz1mwVIG+BV+ywzp06q5AxSa5Dx49k6tQp8o9DmOgCmjJlqvJsVKlaRdMto0Z9rQNb4akYbMyJBAniq5AwYtoSMkDV7ldffSU//fSTzF8wX34xW6wvnDr1m0yYOFH6fd73iT9/WMJO05JPQUOYSKf4Y4eFt83GxLhePXv6ZD7KmDGTFHfEiOB2/Wbc2EB/J2xjxQsp7yYsgvFO1oNOIIvG6erV69rB7g6eT4lQ82bNZOOGDT6rHFgUdJu1ad1aG7bDGnfv3ZXhZrv/3iwMu6Cws137jk+W6wR/XvhTuvf4VMuU7eTtWMmZMmW2Nd45tDB79myjfbyXKPFZPvzwQy16BOcdE4XdcdEIFQLLAFbATHfIol25wtBqNE3vcwxgtUDpNnZt4cKFJV68eLZ6KZhsDC/sl18OC/OU1ZHDh2XIkUF+53hbGvvtzp0nyHWimVq0aBasIsDwSibTHMJsdF9kzEwkruxCMpj6rdRK4+BOzZU6dcCUX4Rt3rz5ZsUPl+PHjknpMmW1cztd2rTmeTGNYIyQhg3rGy12SatTSTt98MEHKpDJkieTsuXKKYmhHcyZM0tzzEmTvun3538SBJfAGifA1y7mU6MFt9I0vLbPb7+dYGvYarZs2QO56yTAGQPNvPSLRvOwULDDunzSWasylq9YKa3NlmaNiJ47Z7ac+f20rFy5UptaihQpJEuWLtWx2c9FfU5y5sypFE/WgmvcqLFMnzbN1pdJ3IpSnbAWtOCAIH69eg1UA3uzhyNOODoEwPY+ceJ4W+emS58u0O8YtC2aN1cPe+HCH7SqGGITa4tcYOwW9znk9HWuWfOTnsfzszucJE/Inz+fvG5e8w8bVcdkLn7++RfNTkRU8Hnjxo0r/fsP0DHaw4cP9Xr+MyVo+/cfUM/QF7hJb6VK5fFvKVOk0NSSO4KyW+7btGfwcElX2RE0YJGtRETQxNK8RQvNgKQy93HV6h99PsenoJGWIAvgzxbKVhMjxgvmeb6bjUMSe/busUV/iqAlSJAwyL+zvd26fUdtj1fU+I+h8TK2PleBe/PNpFLcaEAeY845AVscALSXJ7ad9OnSyQ82PwsZjavG3owoBIiYAAS032/bVnr36h1oek6IsHJ36NBRebJg0rHndT5UDwvPD1c9LLF7925bBYt4cy++5DkLQDXGoEFDdKu8dv2a8SZTGaP/M93GIHn57rt52iSM5uvZs6f2GPT4tKeMGf21PjeqEeI6teuoQ6IcJS4gnELMzs6ipfRo/759UqhQIZ/nhjaSJk2mmSDyn+nSp3dSIGCHs8hChBIBHlurRtwuoK0iZxbWOHnCXm0ZgvaCS3jCFTNnzpKBA/s7BRauiVok5Pfsls/79pXPevdWTWfR2+/du88I2WgVMvDQaMNZs2aaxZnDeI4dA732q68m1LyxHUGj1o3yo/AUNHpBIF/s06ePxI8fL5CioYdk5qxZ2lvRuHGT/58G4n//fSi///67rXO9aeZff/31Ma2ICbBl61ZtMCY+CN8G2ynaie3a3UkAm7dsfuwxuocIodiNMR48cNDWeSEFhClq1ADtVKNGTWnWvJlmgZ53lDAFMD0iZHelYcNG2tkPqCp+YkoEYkjHjp9Quu8o4juAyIQz7Lqwrq9Co9y58+RB4qCE8Lnnopnt9Hvp3qO7GvRlypSVYcOGmi00pdpj7lkItlx3QKvuTynQ3r0BZU1hFZOEiKZHj0+1Jo8RPK7fIQMshg4bpg5AmjSpNV1m4Z9/fN93n9KArYXq/PPiRVt9TShPigVfCWMjlu0oJCbmEaqYN2+erloLTPZj9FDLlu84iV5YzX/+eUHmGhOBWjfa0CzgXX70UYfHXpvArj8L8ObNW6r9LDr20AZaiYII6/1YPAcPHpKFC7835sAs9eiLFS1iBD+N38Lv81OzlViwG4KlApUjLKEf3OaHhzjuQRBCWaVqVZkydYr079dfLhhBwtscajQXv7uzCW3YsEF2bN8hY8eOlcKFCsvOXbuVqbtJ40Yem2zZHfwRNGrB7oShoLmD77Bps6ayb+9eFULsUn9YP10RKvubdTFhOZNTDVGb2QgM9qBqpyAZrFunjtFsVTVUEueVV9R5uHX7cdp73pNzXjJuP/OS+LxUcsBh4QkIGUlou1AmxTBMsLBYsT/5l0WRwnjWcNhOnTZNNdrx48eC3YYYKoJWt25dVbmuDImhDX+adblZN254npdAA+13382Xq9euSrmyZSR37tz6eMkSJbVR2tUWe9O4/UWLFdWfEThmJ1EWRFqmU6fOmpZyBbO1EiV6/TFCv6CgxncYSho8b63btOGdzWfpJVkyZ1YN3bnTx9KsaRP5fuFC/WzWtfmDEBM0umbIF9Y22qDlO+9I7dq1Q+qlbYFOaqvCwhdU0K5fe+xxbJCKlSppiTbo9/nn0r9/f2nX7kOpXKWyDrFYaG72nb/vGDv0Dfnc/P3VhAmNtrstDeo3kEWL/gvHUvS5aPEiKeNCWeWvTU/16vPRwq6PgDjkbsdn/9FRyEn8LHOWzPLaa6/Je+++q3/DboQxisXNvbTT1R8igpYuXXplPixfrry5gEQ6XSWsJxA/H+05eSmIIKw72OLOng2cquJ6KRuyhAzcv39P+dKgPye0MWjQQGn7QVu5a7ZdEvJ0cANmKrgKmfXc6TTelijhDA8EbK03bH8mbDNK4sMDhGz47N/N+06KFyuuIzRzZA/I45JOwy5dvHixzqHIkzevdO/WNXTiaLj0GTJkkKZNm+lIPWIwgRG2ZUJojeTGpti/f7+t85nl5ApsK4beuuOKcQCuXLmqgkbszFOO9OYNz8Kj44xcbj524blz52xdH2DbihmOZDEIDpUsjOlZvGSxVqC8Y3arjBkzKN1q6/fe02PNT2t9vlawBC1Pnry6l5c0q5V5Qa4FelSa8qWFR59iotcS2T6X6ldXkMejf2C5YwalBQoj48T5z4DHRsMbpHLBQjaz0mPHftE8Htjug77K1Uu7ffuOXznj7Dm81+qHJVg08KwwgKy4+d7R/rly5tS/2XH6fEoDapKVyL/k6mgipY0sZsz/Vhr7M1/c1KnTlDUxVqzYZh8P+9me/jR10HPJdmktEgRi6NChSvZy5szvupr5HIypeSPxGypgc+fOlS++GCanT/8mRYsWl759P1MSlzSpU8uEiRPk448/VooEtH3u3Hm0fs11ERJUtjNY10IWYxtFNKCRKS5Y+P330sDcm44dOz55z0D06DGk/4CBsnPHDqlWrZoUKJBf40Ou3h0d4BMmTJT58+fLsWNHw7VfIHWatB6j9J5A8/OfFy/J64lecz6W3jgz2B30KF6/cVNLsIsWKawhD7qjGCloUawuXLhAG4Ax+l955WWpaRYfXtrxEyclntF2b7/9tjYWu+KsOd8XvZMFwiBMFIyogB4B3t/t27drOsoXfPR1ihqzHdq3C/Q4GoxqDqozBg4aFKSNEtZAaOwKGtrl0KGDgQQNoEU8aRKKId15fLdu3SK//PqLVDaeKqs6ffr0egSFI4ePKIORHaRNm9bYhUlsnRueoGfWV98s8Ll1uu+/Fy9dlsHG+1pgVOdvJ08G/wpDAUmTJdPo9S0bM0WhqFphPKbibj2rgKzB/n37dftPbxwegrYPg7BDHtwPcOvhC6PfNdVbb6mh7AlkEoJ6HXcUKlTY90mhiPjxE0icuHHkkjGJrMoUdjimpaTPkN6YCH/JL7/8rGM27cBviz3ac1G1E53VzSoOy+i/L0ArQFOv3cktPyz8Xrp37xZoQt3ly1eMJ91UZx4hFOQ5yfeWKlVKy39ctWWy5MmVEGbIF19Ir569VDBxEsaOHSe1atUMZGIg/D/b6O0E2MMlS5a096FDGFxzvfoNZED//ho7YwFBIL1ly2a9DxUr/se9wnePvf7DD77LOX1SIuA9Hj16TN56K5UathQ1UvDXvHlzpWmaMWO6bN68OUIIHNtm+fIVzEqzx931xx9nleHRtear/4D+ssx4npatuXnzJmlhXPoZ06dLt27d9WbTKMw0FBpZ9u3bp4Fdy/mhGpmYYn5jXzEIwwKNyCTh7QABzp7dc+9BaKNOnboybuwYJz1E+vTpZObMGdrD4CpkAEXz+ef9dAHRUOMNPqlFBwwYoFQA5ctVMD/3UxsEAcR+eO+9d/VYsmSpdDU3/cD+fU/4MZ8ctWrXkt69e9mq+aIXcdmy5YEEjS4md4dmzY+rtUyqZ89PjXB11eYRq/Dxo06dH7vJ586elTlz5ujkXoDwMajLLtq+31bbAcMakCFzze4cJDiAFrsQ9+b3389ojI+SJ2JqVatWU6oub/A56nrWzIDyl0WLFhrJXStly5Y1Ln99KVG8uPOCKlWqaLaQIrJy5SqZYc6PYfby3bt3KV1nWCOF0QbFipeQZUuX2DqfyDcuesKEAQw6nti0CdQSJ2OBcXNda8riucTTXJHQpXpjpfFMgyIhdgeEf6R9wqMvFtvSymWuW7dOhg4dplNfLJYj8rkffthOZs+ZLeWMHKDd0WoUIEAlEWKZAdISDHv4/vsF2hfZq3dvKW1sl2ia/nnJ7NfVtSkX47FqtWrhImigQb168uPqVba8TybPfdiunXNBYYu582TUrl3HGaNbtnyFnPn9d8mbL5+8bbzTWjVrytejRqnGs5AhQ0a9Fxbg4PBG/mcBIf/4o49sp9JCGsQNn1ev/b5S2JNWw6Ns2KihBq7RzEykJnhLuAea0ZQpU6oTpvwlXu53sML3RLdx7aGdxDtiDHKZMqV1NWAn6YoPR/oNmBppCbObjppnTAOM92pmZb7f5n159PCRsvrcf3BfG4F7fvqpepQtW7YyjwcwJLF19u3bVyfLjBs3TkZ9PUpu3byl1alMTIGrA7sVNiG7bJgVK1bSyt3wAoLOd0eAHqECBGhvXLuugoZNe91RjHDPLJwTJ06qoCUwdruvsNIT5Ym4IG48bi6kJ3RMNW5sBe/CT9KwH7p37yH16tW1dT5xQUhhypQuo+km7DAqNtgKqAjh5n/z7fhA3K0EXj81Ali2XHk1HaAJRbA419p+169fL/36fW6rwAAtOGbMGOX2CC9EiRolYNBYFLeSdsePd90EyUqnRTOf+YlJXuwASaavsW3b92XChAkaxA3PQQ68N8YrfKt4xXa+aLRfqVKlZc7c2fJmkiRqCrgC79LdBkHYaPQloxDbjWGblFyXLl1sZQICpuqNVrKYiAz379Sf7zhEM998oezp9Y0m8cVyGNogFIPGwYv0xSVrYdOmDVqNQBvZy26Clizp4/M2udGeqjmIxVWrXt3jzAF3EC6aNHmyFCxYwNY1Pq0IlRKLS+FMKWqBTp7xE8ZL40aNbE/aW7p0qdbVUW+VIUN6Z1IcHlxyoAcPBrTAYZM0aNjIWYFrgbKijh91VD40X8CO/OqrUerBRyg8+o+AMaDF7tFjP1u/24VPQUuV6i2tZvCn6gC7hpUa1g0qnlC0SBGlfEdQ7PBygA0b1uukk8HGBKhSJYDqPnPmTMbbXqgxRfpHCxQoqB62a+UCn7dxk6byq7FZfQFOYNgj07uRzUQU4H2ymKK4lMiz6Ggqdv3dLnzP62zbVnNepCJ8TaQFSDkFkUSLx7kxKIYXGCKGkHTo0EFTKXZqwo4eOaytdx9/3EnvARRS9DN27979sXNZ/QcPHVKWcu8TRaJot3rDRo2N8/GpMp5HREDlMG3qFPn7n7v6jVuVxDAl7dmzV4s50WWvJ7Jf/2eDw/ZfadqkiV8XCiXC2rW+qy49AUH9++9/NNp++fIl7cqhJv++0aj0ijLWhmJLxuX40/rFYDRoGthKYeCGsM8OvvxyuKak2rVrLw0aNHiMT4OYExWonxqv1dsQC3oqmMkAIXK2bFk9ksBEFHBfE3soDKAvNVUwiZwjDCUCSXrygQt/WKjxmvPnzjqrBtwR12zLb72VWvLnyyely5SWbFmzquD5+vKYMNfDaCS2UaaoUO8O3YG3dBWhD+yyDz/8QKZPny59+vaVggXy67ZBjGnIkC80LEGPgDvIE2NCsM1SFAnLUHCABub+4MGybR89dsL8e1qOHT2iZDBM52O3Qc88/PehxjNJxVWqWDEQBao/72cXdrvPbAsaMaKfzbbwt4N2IGPGjJIiRXK5ZjQP8SLATc2VM3jlx4QHKK5MkiSJtnVhlAeFq8bg3rZ1ix4ESiGCo8qifv16UqxoMXn+ee8fC77ZccbYP22+NMIWW7Zs1QwBvLc3HY019GrS6cOQB8IdmTJl1IYUQhHcWFi8v1/4g8YQedwaG4nWTRA/gbHpMusioHgxderUtju0XHHmzB/awL1mzRo5cPCA8gmT0A9qYaRNm07vQbny5TUn7bfWNPsh8wJWrlqpAuvTUnoUMNKoSdNmIRdHe/DgX21OoKoUwKPPKmc+ZyVHVj979pzy09o1Eium/53VrAyYqBMnrqK2ETMzBw4YJPPnf6eaLahY2L9G40Dyy8GcJqZ49OzVUwX+BS8dRARWCU1wkBGwYDlSrvftt1OnNVNAQ8t+B/EKf2dxzP1uniNqfkYXI4KZ0NhhwWkqCTAb/tZqGdjAadr1NsQMWNscE+fgzHXtb/AXhKYaN2msZoo/IBzkqwbQr63TVQ1bzSeu3FjceDsOgx0gAOPGjTGGeBuZPWeOzJgxwydbIl800ftt27ZKhYqVpEP79lpu44935Glh/vrrL/Juq5Yez59stnsoEBK5Ver6CxpX4MOdPGWyjsO57qHv1B1p0qTVci2GliVPnuyJ3h/Yycd6woXzvju7IoyN5gms1qzG/uLoZLy/zp07Gztpms9QC47EzBnTZZnZfmk4adiwgWqw4GYrLConz397soXF4mBXQBv99NMaW88hxEDb26CBA72OFQorpE+fQekSvNl2EVrQXEHfKEY3QjPq69GywMHN5Q1sO3BirFq9Svr26asB3IgEZpEPGzZcpk6dbDzsy7aeA28ZQkmjUEQYvVi5chUtHMiTJ5fX4sfwv1I/ED3681o6zTF37nfmhrf1mYXAa2Ro68YNG7UiOKK0sG3fsUPHFdI5Zgc4Wni4DAAD4ZlLBgTyuR7GatJR9sREfJ4AWQnhBPCKMT4JPAYVighpWDeYpDmB4b6f91UB+tsHSTLZjbLlyurEOUqCfAHDnI4ltjZvWwKhGPgqsAPpXPIVTiAHTE8BvB1XrvjWYmitkiVLKY8uscDwFDA+I03RtNfVrVtHewrsIliChrv+ZtI3tQOGD16zVm2ZGMbEyLwvaSFq+aFVgoDEF9HI+XPnpHHjxrpNtW79ntdzEbQuXbpqeOGaF3ZxBsH27fOZNqXQ5ZQ8efIgz2VroUKVihI7PRZ8sZQ7de3aJVjxsJBEkiRvKsMQixTFEuJEfIGSqI4as4MHD0SY5laMfAZRpEmdRp0FUkzekr3QYDL+BiP+XQc7TlA4evSI7PZBvWU5JhCyeLv5BFrbt++glAJ2ypao7+vT93OpW6d2uGURAnpVM0jNmjW1vNzVs2WhEIZZtXq1Nks/cRzN9QV83aCA0qBHegR3tE9wUahQQU14ozEoNfcGat/Je9IEzcS6oIxqf7vugzr/+PETUq1aVR24YacglFgc9fh58uQJt62Svs7On3TWHSBhgoQ6pc8CQkbVyefGbCGVR+2ee3O1O7wKGlHw0mXKOIdE5MyZS+vlPd1QvqzyFcorqS7ZgmzZc8ikSROD8xmDDbIK9F5+YrY8CEnueYkLERilW4ob2KlTJ4+xNmwjbjj9AD+t8Rx6gI8ka9Zsmgf0FGqA9KZp0ya2ysoRKmygyZOnaCYirMFnqVuvngoPpggtlhb++eeufgZs88RJEst6YyaQ/gJ28sZeBQ2bomGDBs7fecGgVi1SPv7bb2WyES7O+NfPUXwhBWyZ/v37qc30mREkb1oJrYuRfefvf+TTT3sECj7zpbf78APV4thpQQkaU+usQa7uW9ypU6elWvVqXue5u+Ltt7PK9BkzdGJeeIDrf6dFCw0luXZ6UZnS7/N+GucbOmy41KpZQwer+QOvgoYn6Q8Npju5XXghVsyYWobz0ouxtdnZWzk1mu3zvn30OR999JF2dAGrtc76OSjwN0+GOozajLi2L2Rvmy3/+xCJ8D8J0PDW575uvv8+ffrKWLM7sKshiMGdIfpUxdH8Bew/CELHjh+JN9sIrdXXCBs2Zo8e3YPNPG2BagqCqrSm2QGMmZOnTAl3IXMHi69Bg/p6X6ZNm6pMl8FliwoVQaMqU9zKfsMDdCNh9DNVpUePHnL3btB9DGg9bLYXYr4gHc1z/Bk84QpMiBEjRvjs3LaQNl06rZMLD5vME6BJxfYqX76cJuspdsw6coR69gy0sKpQQpQsmS0B488XHSbqNKajYgM3H/4GOtvtjswJbdBpDfGLHVqCz/t+bgTynrbc2Rmm5Y6f1q7VHKQdpEyZSqcSRxQhO3z4kA7toBIjdZo0GphFwKgKpjiBWKkVq/SXLdyroFFrtGHjRpkxfYbEdAxVIBUCMR1v85q5AJ0UZ7ytuHHjaf0SY2gePfzXGI6+ZziGFRB+OEQuGGGjI91bsJTJddh3aDTmdtoNlLLCDxw4qOw6dvjiCGFMmzZNQxgRBdirVq3bwQMHpFvXLjJ+/HiNT1apXFlee+1VvR+YGp2Npw711/p16yR3nrzKDOCtgNSroLE3J33zTV3d/gCeiYfhvG26AyN/yOBBWmoEh4gv4EleN152bx+eqwW2XjrU7QgZBYpQkQa34jYscfLEcXnf7Aijv/5aGjZqJI0aNtAegly5cppFO1OOHj0qsWK/KFnfzhJ8QbNG4wXldbm3YnEeGu65aNHCPWXiCdwgYntFixWT06dOeT0XwYHuHcegZMkSXs9FQ44c+ZUsWbzY5zUwTJb5UVkyZ/Ln0sMVfL69e/cYLbZHBY7Ba1RDQ3BDpTVVKL4Wo1dBI8506fJlOX7smJxyfDHs0fCrli9fXq5fv6GtbDfNdnPt2nXJmSO7Tk2JagTO3zhLWIFc5A8LFyptPYxHvvDVVyNl586g01AsrCVLlmmS3Bfy5csvY8eOeaqEzB1MtWvVsqURuNHKKlW/Xj1b5Uo+aatw0+eZFegqsbSvMSyWtv8BA/o7GRYrVKgg1atXdyShItbW6QpiVmQQypUrH2gcoCeQWlmxYnmQf8dwhp3bGws5wpgrV271LilXf9qBLDB+iYOihnnzFvgMCXkVNPbc7+bO9fhGHM8ZuydwAC9gq432XLQgJ/xGFEBBSh8Ahq6v3Kg34Fx4K/jDnAiYQ95LHamIDrRTBrMd4gz4qoYBlEhVqlzJJ8dIsOJo9F3iebwQ4wW1xyz818EcxWv5c0RBqlQpVbPRJDxq1FfBeg2L3skTMDFGjx5jm9UoIuDhw0fyzTff6hyBgQMHBPpblixZpXnzZhplIIux1EF2eOigb8LkYAna28bD0LxelMAdWWwjzqqN8C0AtQUrfUSTMFPqBg8eLNu3bXviOVa8ZpEiRaWX8VjzhmMFRnBAUp9cKyYRlKuk0WApQCszT97qrqekHkr8999v40yue4NfgsY22bVbd/nUeB0IGvE0V82FquVLIgYVnjOM/AX2RXXjRZUvV06GDh0un/XpLQ+CWebElL1Ro0ZJ7Vq1IqTn7Q18p+SGGdABUBx0RmXImEm6d+sWiMKBz0YR5N59e6V/v34+X9u2oFEy1Lv3Z0q0Z3kZqFBIfU+fPuX4/SUlB4E2Payn2z0prGGoPXp00xtICmnx4iVy5Mhhn7V1LCzylQRroY5PluxxiqunAYwbypMngB0J+7VZs2ZKKD1uXDcN3gPsUbjwaJBG2KpXqy5DzE7g6x55FbSoUaLK+x98KGf+OCPDhw5VJm5X74KCtwoVKygZHShQsIA6AdSj3bHBih1RkTZtGp0jD40BFaRtWrf2aItxL0qXLqP08MwaR5sFJ20VFtAeCB+cdYwkwmG5ceOm0rojZIkTJ3HOXiWeRtfW11+PUiYk+gaIoxGA3u+Dkd07/fujh1KieFEdlvqcw7u8Ydx92Anz5csnRcyFde3SRSkAMEMsNmnIdC9f8t54ERHmEniDxZsB7dUrr8TxKGj8fcrUqZIwgjM1Wrjjo4Enf/4C+rmJmVpE15mzZHF2vxPqwQHAJps3f54KGmwAOXLmejJBA8ePH3cKGZQArVq1kpUrV0jRosWk4PKCqj4xCIFl9FIBYG2nQYFaN29Zh4gCvLAgo97m2mFbelrgLXrP95DOMcfq0KFDzj5Tqjcs/PXXX3Lyt4C448kTJ5yP21lotnoGsLcOHz5shOxdJakDkCQzZaRD+w7OKW5oKeri4b7wtWcTowvvMqL/J/DdQBATFDADYjsKJ06d/t2c/0Afg5XSwtFjx+WGI2bo7gT6gk9Bu3X7jmzcuEljQe6MiQMHDJDt27YbO62iVkhs2bxZxxD60maAbAIC/KRFhpGwBxb1TR9ELI+c5wY4csz8chU0whyWyZPEZfLeBRuzt3wK2gWzXcKn74mWkz2foQeQAidPkVxXRLx4cZVzzFdD8cVLF5106ZEIfXCvr18LOoNBcehdh7OQPl06NYlgCYf00MIGBz0ZyJA+g/6LDDDP1Rd8Chq8EBQCBoVSpUsrgyKDDbg4DMZNmzZLu3btlPgjKOAsRHSH4FkC99ricPMEtNj+A/uVIBqG8MaNm6gjQGcZgHVzq4NlnHgbjiBgLtQpH5UwwKegkcMKmGoXX+2qe/fu6paHKoZZcMzoMZrKsUD3EWXAUFhVrFghSN4sktm8tjs/fyRCBxf+vOhzHtXSJUulcuXKWlX9zTfjnI/zXa8zDt5xB40+vBt58ubVx3cYbeaJ7dIdtgK2BGah1WQXh4Vw67atWoLM/m0N6wLbjL3GHCMS1kWKFNZOa6alPfIQvKWs6OChwzo5LRKhD0qifE38I3QBe2fJEoHr7+ARRvBwDGkJhGWTkAdactHiRbacOluChr1FYwdTzNBmzMNkT0+RIqVzHM2Nm7e0dR4PBKJkKKIaNqgv337zjY6UdseDB/dl+fLlOrM8EqGP1at/9JmtIT7WoH4DGT1mjBQvVlQ9S0rFGECGk4c9/V7r1soZDJgfv2J50CVUrrAlaDFivKDDSvVi/vpL42js6a6Un2ypzAr688J5+bhTJ5k9a6ZyuxYoWNCjoIHFixZrfX6sWP5TkUbCPugxdZ1j5Q2EQBrUr6fNKaTkiJ3B7wvQYHSI4QD26N5DlixdZptFypag0VRq5TevXb3mHEBPiIJWebRa3Dhx5dWECVXQMBpPnvxNu3vy5ckj47/9xuPrHjp0QPbs3Sf58kacBo1nEXv27pXfTp60fT6J9P37PEf6dZju0qU6T4H0lF3YEjS01r8OzRWDUXsOoaPC9vbtW7pfI4yMd963b6/yr/72W4CgvZU6tdfXXrliueTOlTMynhZKQAutsanN/AFOHgUHdmFL0EjGnjaCk9W4u/HjxXPaZfR7nj173jn8IJsjXcFAizOO8TzwOHjD8uUrtMmXIsFIhDyIc1GJEc64h6Dhm/ok4NpqPMoqVaro5BDIi+GjR40y3D537px6Dpl8Kjr4cJanGTOm97o0umvW/vyzVDWvHYmQByN1du+2x58SijiHoNGGntzXmdTVM4k3RozoUqRoMaUqD2hS+K+TKG68uGrYowETOuqXKPv2Bs7t2qWrlC1TxuM880gEH5g8lDth3oQzoiBotgrHaBTdtXuXliZXrVJZxzuf+u1kIAK2qI6+TiaZUO4NLl8JmpbTAq34TPilUTXi2WrhzyESHHDNTKCxRnOHM/5E0C6YI72vM+E7W7J4ieTKmVMDtdOnTZd3320pJUuVcp7D98EHLFy4iFIoUGIDb4MdMuXRX4/SGe2ehl2FN55GQbt67ZoMGzo0vC/DwlUEzTYTC8MkGjZsKOnSpZUCBfLJ9u3bAyXFGb6KQDE+kXOTJUuuTNVMdoMEhnJweGE9gUK7rt266SyB2BEorgbzNIWecKdB1f40CB3BdDqZtm7dGt6XYkFtNO8dtC44ffq0NGzUUGeVEzNzt6ko77WqOMljQqp80NGKxbzyESNHaswsqD7ImTNmKON3l0+6+BwcFlZgKydny4C1Nj7ncUYMEMXv81lvn3Vi1kS8UAZvcI1v86LjF1ulrjuMFqtbt56yJFIrjkYjmjxhwgRZsuRx4jlYc2rXqaNM2ImMdqhRs1aQVPHEfIYPGy4ZM2SU6mYbjUjAo6aXsXOnzjJz5gyfecPwwrZt2+Qjc6+9XR+mzKTJU3TmPDNG79676/egMT+AtJ+3tk7exXZv2Nqf1kjlPbt1a4z94oty5vfTHuvVGN8CE1GOHDk0s8C28967rZTnNqi8G7VsjNWJZjRaxQoVgk1lGRqA1ASSvRw5sjtYJCMWdu7cpUrg5MkTXs+DN4WJhGmNrX3x0iW5fu2qklzDswJP8R2zG7Hr/GacPf4l+0OZEOGs1159TVKZXWfJoh/sXhayddYKb5BT8qsJkQSsp8ZRMvwMbaWDqJXbRDi6a6JHjyFlypaT5cuCnsdJvTpTj8eMGStVq1WVGBFoWi9xxNatW0vyFCmkR49PA+ZaRgBsMzsNCXFfQsYO1LJlKzVNMmbMIHYoAJlNevtWgKCR/+zS1S8aM2yp6wgaBhMtPk884JtyojZt3pdWRiMlT/YfHyvaa/2Gjco1duTwEa3c9AW6jmiE2bFzhzavRrTMQWnjbdPRTVlUeAI7bIHZ0j/p3NlWAWKrVu9pYaMFvhtfuwaN4tHjxpG45liydKlMnOgXrf81c9xC0Ig7EOwKNlMvlbU5c+aUgQMHPfYhLl++ol7b8OHDjUa7rvxg0G/SKxgUpboFzqc5dd/efeb5wyRVqlQRpvQbJyFFiuDNFw8JYIZQWTHum2+MvdzXls2I+YIDB5db+/bt9PfTp8/IF0OHSvx4ceSNN96QJEmSaolXmjSptcGIrfO556KpJn9gbOivv/7aX2p/ZEs1GhFXUvvZvJ//ONgiSTFRtg1dFdW1FtjXmaBLs+kOR0052yqzvuMY7TRu7DjthF6/fp3P94E2itb7Fs1byHvvvas35P8ZeG7z5s3TZl6at+10IQHOGzp0iO48mTJnlrJlSpuFn1iiRnmkDcOUfiGIdOgjaLNnzzHvMUwfo3s/R46cwfG6T5njNoKGfUYyrIa/r0DDcJcuXZzc/NaHQYV/9NHHWrdkASGjEbl3r96qDZjKsczYaeRPf/75Z5/xqXNnzypFOyOg+/Xrp14pXTqu7/0swxqDffDgQen9WR9ZusQ3u2RQoPKiXt262vTLou2gNWaLlNwaomsYLi8b+7tX796a/QFMjyEe6qsJ2QN2m+O+Faz6NTgXPGXqFA3gWvz41KQza336jOly1s0LLVuuvEwxLrWrTUMCftq06fJ+2/eVhdEO/vzzgmq1ESNHSJnSZVRQsxsvMJaDlvxZBOXzy5Yv0/AKLY12RuL4AkNzPzcLdsSXX6oJMGDAQPnkk84qdGyZtFJaQgaIoQYTm/ifJWhkxvE+/dqToBxFw5C4Jcne1giMJ4MUuwyKToxJgNZbvXqNFCtWRBkQ58+fLzWq11ANaCfyzvP37d2rB5TuuXLnUXKVCsZtpwcBO476uIjeBe8Oi+CQz6dtbLt2yaRJk3WY2l0fvBnBweRJk3RXIn9dv349eS3Ra5r1OXb8uM6xDwGQ3tTSEUvQcAjIvjb195Wwwd5MmlTnLv3poZEUW2D2rNmSKmVApxSNDnSyjxs7VurVqy/9+veT14xwMCSMG2yRu/mDbVu36PFpvPhK0JIufQbJmvVtHW6fMkVySZjwVXn55ZciYMI+oLqFMBHpOxbpvn37tHgUWgKKR0OTlYnKGRboj6tXa1tdieLFNWiO8jjnqCd8QrBTXuMH1zwPQ8obip+caeQ22wQxZJUINM0pxGsAq3XsuHHypfFA+XnChPHK6z/JrCxa9+bMmS0FChSUPXt2+/+RBG6IK7Jp0yY9LOAxoeWSJn1TcuXKI8nMNp/MLAw06WuvJVJD1+IxQ5fiqGD3BVcb8rnINVLVgpfGq/DvLfM7HtxZ8wX+cfac0tAjUNhcBE1v3QybCc7uOHL4sPQ32+aIL4frTkDOme00BMAKcaaKXIWK7ZO8p/faa5uANw1azdy5A/i2WJlTpk5T/n7X7RHviZ7RIWYLpMcTL4cx1nZYBO0ADonz58/pscXRAAuIHcWKFVsDl0561EcBhZqM8iblVLJkSR0NmdLYMEHFmvhcDEhduXKVrP35Jzmwf792DuF1qzYykvboIWOz/9GxjmE9x9QO5poFXrdOHSlcuJCxt1PoPAFIkJ+wgACV6FzxroJ2yRzwnD+xoL3wQkxt0apRo7pzVgGJ3lYt33nMFUdVjzXbKGmdFi1aKJ0lnGNwy4YmEAK0aVAgws42PnjwIB0dWMcIvydMmDBJRzDSBf60kQ9aYFEzjZlqaQLjFLge2H9AOe6OHD4U3JelTMdpS7kKGkvtO3PAuhasfSOAUyy+Usajlazth8ZiymyCivcQv5ljjE+CuHiihC5CW9DsAMFhq6tfr66yKPX5rI+TK+yS2e46df7EeNKTwvkqA5Ao0evyac+estmYDUyi8xcUn/bp21dpQilcXbv2JyUYfAJBW2YOJ1W3uz1GN+hRcwRrMmlSY/vMnTtXsmTJovs9moxEb5UqleXChQten0tohNIiBI3n00vqbRpdWAKBY2IITTdjRn+tW+N777XW+egRAcmSpdCKktx5cisvxkwf866CwmTj4bLY8xhzZ82atbZDTh5AWnOe6wPugkY07gtzjDaH37kevCYizMOGD5MUyZPrF0TjCavfFxIZwxybSS8q2vNKIe+KAMK/tuqJbdy4UeNpYQnd4o1nnDlTZg1sLlgwP0zfPyjAncvwspw5c+jvTAdeumSJLFz4ve3XwCaFOQBnqlu37jJ71iw1GexmHNyAYTfNHGdcH/TkYeIptDOH33NkECw+4O+/n9bYWLJkydQjxY3uZdS6N3ZEVpJF6HfixInHcne8durUaXRgPKSA3347XmbMmG67Uzqk0KXLJ+pgRBSwuBs3aSyrVq7UEAU21hdffKFTTewGWUuVKiX3jaCtXrVKdu3coU4c3WnBBFplpPuDngQNTknUXrAHFjE7qXnzFspsTfn2J507GWH7W+mt3Al70V61atWSRo0bqWf34MG/j03uZTulKqRRowZapkL/KAPBOJ84XljiZjiEIV597TX5yxjsnjQM9/XQwYPSoWNHmTB+vIaUYHcaQ5yybl2vU10AWQFsauiqmI0Ay1Pv3j2f5HKZn/lYe4AnQcN1grPoHXPY73l3A8YkE9DmGJuNYC2lPmnTpNXc6Llz/wUDmzVrLgMH9neWhVNs5xq0JQE8/MsR0rhRw0CVG9t37JSJEycE9/KeGqRPn17GffOtdojtC4KmACw2i3PmzFmangMEX5s0aSojR44I8jlw240cMUL7OnDcGOzRqFGjQJ1twQD8F3fdHwwqOIsBRAnpFHMEu9mSqo0mjZvoBDwCpkzbKFAgv0yfMVNu37opRYsVl1IlSzoT42i7oUOHqR0GEr76qv7OBDVsNrZJBA9NxnHPQ/lxVqPtIHeGrkGrRe/ceSoI/1hEceLEVW6yDBkySMFChfReZTCCRnwx9VupvQoafBndzGImbpktW1Z1CijV3rRpo5Z3uyKWeT2UAKVb9N9yfyDFZrAtW28wBQ0FBbeZx/IOb1kASi9WmuOJWsgJC1A6TLFc7ty5lBmy56c9HjuP1FSfPp9plgBQwUpWoUSJkkotT1/pV6O+NivwS/071AyEU9yFKGGCV43tNk0LJ2ERP3zkqOzetUMOHDwkO3ds9zkcKyyBGZDl7bcld65ckjdvXhUwshXQs7pOXcF7z5YjuyzwMRyNMngKFObPm6dVGRSYct+ZOmiNHeeeDf1iqDRt2sS5iyw03iU7zXEHa1Awccocj3+xDngTNNTfYHOUNMcT0TIeOLBfqlWvrqoZkjforKwYG1qJ0m2msjC0FcHBk8JFxxbjdzRj/foN9MYQrOapPN9Tmuivq1d0LgCZCfpPiyj/2jv6NwSPcMuSJYuN+/6jGtJhHanns1evXkNnTxXIn19DQu7zLvnMUE1hD0LduWHDBh0ughb3FRSGyemrr77S+aHkdhHe9u07aHMQuV8Wcl4HexPvQeFkj+7dQyKUhLn1eOOIA77ymqQQ2puD0W9PxFdw7uwf0qB+fZ1bWax4MXnFMVfo0KHDst5ovWNHj+rvhY1BSsyK/Cg3df6C76XTxx+rJ5sx43/+CSreU1oIXpDo0QNsObQX2y1Cx5cJ8W+FCuWkXLky2kyzfMUK6dunjwZl7QJNSzUKgxzoVWUr5+c4jutBE7GN8SWSy9y0eXMgxks+U/4CBfReuF4/ZgNCBRsAW93evXu1Q4npvmQwXn75FVuZB84ZOXKkZMueXedR8R7vvNNCt0NKqiwGARpR2rdrr/nlEDAtSJ5jmwWZs/IlaDwRixu1QML9iepu0B4bN27Qwx2svmLFS8ic2bN16wDcAASQzIHVRWWB0mJPgpY/f0Hnz2vW/KTVCekzZNR+0nxGgxCMZAg9muTdVq3U62Iwva/xNRZat24jHdq3s1VSDtXX+nUbjEb5UPbs2aPXj+CTTahZs4YuNj7SgAEDZOEPC2WbW8Mvn8/6zJS12wV2absP20nmTJnUmcBr79nzU/2bFURnevDRI56buf0AF0cMhfzcNW8n2qnU4MXwd1Enfpd72wWNKH369FUho+vm8KFDepO6du0iDcxNgb1o3foNKnxRo0bTbdO97IdsQpYs/2m9I0ZIsdU2blinR9ThUVXAqlSpqq9LFzpNJsOHfyltP2hrqxZ+4oQJ6pwkSRJA3cDiuW+eR73YvXv3NfAZN248iRUrpjolRYoUku+/X6h1X7/+GmAnkyWBit3S6lSbuAsZoIwKByA4MS0C2pgjpPKsBYmZMn/+AvPZu9qaBWEDqFhkI2i6bwfslgSdMkc5c2yWgCaWEKsoTJ8+g7QzKhweD6DB3V691Z6rZmwZOqcIj7z33nt6WGoeQxpBcY0TUWpECZCFffoF/acF2Vawy0YYhwIhpWgSgcUwZvQhtqQvIEgENwNe75FZBI1kj3kftum7//ytwpbIXAf9EG3fb6MeIxXIM4zNyYht4mF4xJQG4YljZubLn0/7ItCSsCgy/Is2QwKpLd95J1iChuaaO3eO9tTSUEyDcN++n0v//r5HHtoEX8RACcgC+IQ/tWdk4lubA7cwkY9zbQOaK6phz50/L68nel07dGjSZfXNmT1LI97Ee+obmwYCX7YBC+5lLAhedEcPKNvWkSNHg3xfEs+dOnfS7nm2ZYTAnqA9CKT54OM46sZ8yDbXtcsnKugTJkxUGy5J4sRGKBvKqK9Gas3+nt27JafxJEHNGjWVCiKNOeAKjuNoLeTzYXMGMKIHD7A+FS1a1AhYf1m+fFmwX8cNCNlYCdBmtuAvwcUKc1QwB31ycfx8rkfs2LFdWrZ8R4WEunUEDOJlC7js1Et9Z1ZnhQoVNWtgOZtkFVzxptEQVliAsh06p4LCX39dlVO//aaChlZzpbH3BrSiZZRzHd4YLYkfNmzYyDgfZfV3mj6+GTdWnQWchBYtmuvjtLdxuHrRaGpIWt54QnYlmkp4f1rzQhAY/50kYOu0heAwqVCzhmNA7id5MJ7vEZSBB8zrfsljwR2PUctuTcSzBrm6ghidZaQfOnRE/vHS66g2nkNQ/ammxdC2OoF4nlUIEBTmL1jgFLQkZluMHftFFTTG3QQQTcdQwd1tnIW9e/Zqw/T+ffu1bIctNlGiJ9s8XK83BIDNMEMCIhF+kY8El7IHHVzeHAvNkcb7qf7BWzEisR62Lit84c6EkyVzZqfhu32bd8qml15+ydm9pQO5bEbD1fh3ib3R1OwN9DKQvyX7AU+JxZJE9uPUqdOSLl0aFbTBgwZpIYJ7qMF92km+fPlly5bN4VVkyR7+gbjUmdlFcAWNb5iKOLIGw8xR2hyh2vmB9mrapGmgPs5YMQPzqFGGjJZBGHft2u319QoVLOSkP+XLJYZlB5x7585/i9lXmAOuEUthusbTWDTEyxA0bMQ8efNpLZ8rophFwzVit5EntrIHlSpVCmu6UDwuysfwJIJV3/2kJGRYwVTkwvrRUZ4wqOsN2G6bt2yR9es3aA4wYOv87+0IKVgzqbBvsP2CQgBHSGvn7zDpEOeyA6sdzkIcl+58T4D90grD0EvJdmmBsTkNG9bXz5LVOCOA2jBsTfjkCL1kzZZVJx3Tt4pQsyD43GEoaLRhtpCAqoxgNxGEBNsdn7i3Ocj4dpMAmtIQZ9FDk6wwXtPqVSulfPkK8o5x++mY+vHHH/XvtNlRRg7QfnRZM96PQbVsP9TFIyTEv9q2bSvFihV3vi6NMd4mv7lfx/Xr/5UKueYk3UFGArvTAkPvYeSxgLFPBoFWQARqwsRJGrlnRKE7m7kGe832zuOZM2fR6phQBmob3vju5vDtjvtASAkERstscxDy/9gcbc0RKsRmfNGLFy/SkTNoJpA0aTIthLRsN0ImBFXr1K6tcTliXLehpDdfFqEDNATgd9JQxNDswl2jWUFXd8DhO3jIEG3ItbBgwcJA9t258+fMArisggb3WvNmTR97r4sXL8l2o51/+mmtrF+3TqLHiB7kxMAQBMWLeJWUEYfIm4W05sHQoToX8rPO5shnjlAhpKUC16rCpQSZLh5iYfQbkFEgzRTf2DcIlvuoRr5APDG24g/afuBXFziC7poOQkOWLFlaYhjv8SXyng6NA9EdIQuAcM2Z+51yjbji2tWrTnoDhJctH++boPKWrds0Qb7TeKF4n2EEehxx9AZIgA0eYggtoli63imCIvHIyigUSu+jYIVbOVTsHYK6VJpit6U3xnOWLJm1hwFngS/0wIEDymWBhvCXxwIhda2DK1GihBQsWFAnweGoRDX2WDS31NjkKVOkc+fOgeKDIH78BHL9xi2ZPHmy/PLLrzqzgS3cqqMLQ7BiYY2heILv7bHCxSdFaDISQ+7HxbPP4zC0MkdmCQHCP2+wEtccVGhQQUHAN6SAh4hdpoFbB1cGRroVaEZ7kYZC6x0+ckQmGbtr6dKlHvslKJsuX66s0cxhKlSuoGwfr4nIAUZfqFWIhgX1NfsSjYbsGzgKjSQg2+/dXYugwC5EI9LTydaNQNOBTnk62tLqUicSj5d5927QysE9JhdGwHOkhJlYCpWU0KaHuqSHJcc6+/96x0HNShNz1DUHWXCELuIxsHgAAgT75FMEBAtpZodhcCpB1+8dv4cZwovMH+t2iDnGSECzMk5DEXNQ+vlmOF3TswZcY2rFiASwLcKtApNyuNSyh/fUCFznHY6DGEMcCXAcSNznlwC+NhKaBKueCo0XDkBjYVuxR2OmIEzwtWIfk4eLEAMRwlvQ3HFNAm4QB/VAtPuRkCSfin2X0vEYJQ0Ri6Y77IBQYYYQsSecdEwCMjR0lvzhOCKEcLkiogmaK8hyH3IcK9z+hqZji8WLhSofemzKHBKag/QAkdsoLgfwFEC2/h5VQrCY0wNIcj4Sz2U1j+S/1I7reQgLAkXrI7WAaCoMdzIw5xx/e2oQkQXNG845ji0uj7G9Ehx+wfEvGpEqSNIHUR2/uwsTfyPcks4cdG0w4TakyHDZyiiIwwAnhUNBGIvHPYSAoY4J8dDxLx7gP45/EbbbHp7z1OFpFTRPuCtPHmhkm/5MAurtgmsTIhTQf/WVACGLhDxbghYSwEujUgE2pTbmqCP2K1LQPrMkoL8R5+ap10IhiUhBexwICN4alcSQgNCv6Cu4THUiddmUkkQcqqEIhEhBCxoIDKxKFg1TliDOo8maqtMdYXRdTyUiBc03aMYkrkfONp3b3zaao5IEGPqR8IJIQbMHYlMUBZCdt4Z+0OYNqUekkNlApKDZB9qLtNlwCQhJdJCAQGkkbCBS0OwDJwFWO3rnCJ4uD9/LeboQKWj+gaj9JxIQeI2EH/gfMJrNt0PQVfsAAAAASUVORK5CYII=;" vertex="1" parent="1">
          <mxGeometry x="2070" y="120" width="128.33" height="170" as="geometry" />
        </mxCell>
        <mxCell id="gkKONAMZXfoWPJbwshIl-7" value="Oblique Random Forests" style="text;html=1;strokeColor=none;fillColor=none;align=center;verticalAlign=middle;whiteSpace=wrap;rounded=0;fontSize=56;fontStyle=1" vertex="1" parent="1">
          <mxGeometry x="110" y="450" width="720" height="30" as="geometry" />
        </mxCell>
        <mxCell id="gkKONAMZXfoWPJbwshIl-9" value="" style="shape=image;verticalLabelPosition=bottom;labelBackgroundColor=default;verticalAlign=top;aspect=fixed;imageAspect=0;image=data:image/png,iVBORw0KGgoAAAANSUhEUgAABLMAAAGRCAIAAAARvGavAAAAA3NCSVQICAjb4U/gAAAgAElEQVR4Xuy9dbi2RRX2/SIPId0dIt0ljZSEICAKSggCgnRIl5Qo8IB0ChLSoUhICEh3d4OAICXd/f50fe865pu5Yu7rjn3vvc/9xz72nmvynJk1q2bNKF9//fX/0Y8QEAJCQAgIASEgBISAEBACQkAIDGMEvjGMx66hCwEhIASEgBAQAkJACAgBISAEhMB/EZBkqHUgBISAEBACQkAICAEhIASEgBAY7ghIMhzuK0DjFwJCQAgIASEgBISAEBACQkAISDLUGhACQkAICAEhIASEgBAQAkJACAx3BCQZDvcVoPELASEgBISAEBACQkAICAEhIAQkGWoNCAEhIASEgBAQAkJACAgBISAEhjsCI4Y7AINw/B9++OHYY489CDs+9Lv82Wefvfzyy6P9v59vfOMbX3zxxef/+/nyyy+nm266UUcddeijoBEKASEgBISAEBACQkAIDEIEWpYMH3roof3333/nnXdebLHFujTe+++//9JLL22p8t12223MMcdsqcjgysyzk/fee+9ll13217/+dZFFFjn55JM70v+33377z3/+80orrYTQ0pEKO1vJm2+++fvf//6AAw4YMaLlhdrZnmTWduWVV+67775vvfXWv/71Ly8y5ZRTjv+/n3PPPXeGGWbIrErZhIAQEAJCQAgIASEgBIRALxEYJf+l+8ceewyZ8MILL6TIDTfcsPTSS3epox988MGDDz541llnnXjiidYEXPVSSy01xhhj2L90ALvZO++8gwz56aefkvjGG29MMskkXepPP1S7zTbbIHU899xzdGbTTTftlGS48MIL33333auuuioyZz8M0/vw0UcfIQMj8GOCe/XVVyeffPK+6l5tZ4D08ssvx0J46623IsnX5lcGISAEhIAQEAJCQAgIASEwsAhkmWKeeeaZo48++umnn0YgzJckGw9snHHGWeJ/P//4xz9olHq22mqrAw88MK0Q4XCTTTa56KKL8OJLvw6llGOPPfaVV16ZaqqpOjso6hxllFG+973vdbbaxrU9/vjj++23HwY3ltw888yDWNi4qoEtiGmdDiATSiwc2IlQ60JACAgBISAEhIAQEAKZCGRJhqOPPvqRRx7Jpak99tjj4IMPzqy6/WwzzjijSYbYDAtrm2CCCU499dS//e1v3OMqzDCUEnFK7PhwHnjgAaRrcO54zc0qnHTSSddff30E4LnmmuuJJ56Yb775mtUzsKUw7Zo36XLLLTewPVHrQkAICAEhIASEgBAQAkIgE4EsydAvoU0//fSZ9XYkW87VQYTGFVZYgfAeHWlxuFUy8f9++mfUuASvttpq/dOfZj3BtG4Fl1lmmWY1qJQQEAJCQAgIASEgBISAEOgxAlmSofcJz8Me9y+nOWyGOdmURwj0BgGTDAlQ2r0oTb0ZiFoRAkJACAgBISAEhIAQGD4IDO73DO+4446yG4YvvfTSPffcg0fiJ598UjGdPCpA9BrL8OKLL4YhJStK2aevvvoKZ9fnn3++Oieers8+++yjjz5KW9U5+UrkFTw8uf5Xm5MM1MwAiQwkk2kOXD3Lc+ONN9IWNwzHGmusnjWqhoSAEBACQkAICAEhIASEQDsIDG7J8Je//OX7778fjZ+bh7PMMssPfvADrkSussoqE0000Xrrrffaa69F2RDVdt9992mnnfaMM85AvPz5z3+Oryw/v/vd72oB/fe//73uuusSMJPYnrxDwO24nXbaKb3ryDsTa6655pxzzsnTCyNHjqQnyy+/PJE2C+vnoQ6u1S2wwAIE5Jx99tm5a3fQQQeldVpZ4gAdfvjhU089NTmpH5daRl1YbWHinXfeueWWW2699dbEgC3MoMTGCPzzn/9ExUBxuZI2xlAFhYAQEAJCQAgIASEgBHqPwCCWDJG7MJeFkPGO3Oqrr77jjjsed9xxyDy81EeIyy222IJ35BCfLr74Ysv85JNPIrAR+hJpDTkNKWvDDTckP76y/F37lCLOq5iD1lprLcryHiB2S/wGkdOWXHJJLH7en2uuuYYUXuTDrHfCCScgf/IOB9FWF1100XfffTfs9scff/yjH/0IUe2kk04i89///vdHHnmEgnvuuedPf/rTdE3QSSKyUidfESMRUHnDgxQeSEgzpym8fkFZnt0jpA3ujkgyaR6lNEZAlwwbQ6eCQkAICAEhIASEgBAQAgOIQGv3DAeqo3fdddcpp5zirSOA4cP5pz/9CX/OsEvbb7897/Idf/zxxKSxdOKpIrO9/vrrZ599Nla+hx9+eKaZZpp11ln/8pe/IC5iSyTb6aefvssuu/AvToCYGXktsGKYPKuw9tprI1IiW1o2pESeedxss83oJG39+te/tnQMkjiyzjzzzPTBUpBaxx577BdeeOGCCy7A2umt0A3EUfo2xxxzWOI000zDSxKIcEiziKzzzjtv2CWelESMRIbkuTzSN9poI+ReoDjqqKN46qOi83zCXfaYY45BuKVXxJ5BKKWJHXbYobqUfUWiRhpv9mwJQyDcaE4rgz2PuZLqkuFgn0f1XwgIASEgBISAEBACww2BwSEZXn/99ffdd5/NDZIJkiHmwehy3XXXXYdRbrzxxvvFL34RzSKS2znnnIOctvnmm2O1s6/YDO0PZEVshvy99P9+qlcAgt+nn36K62mYDZEPyZAUXn3ca6+9LE6PXV/85je/GeYk9ib2PYQ6T0QmRDZDOHSx0D7tuuuuV199NRfV0kfeeQshfDtkttlmw6kV0yX+sdWd5yuy684772zCqskwaf1llSBdn3nmmWVfq9MxitJ0dZ6h8dVshrpkODRmU6MQAkJACAgBISAEhMDwQWBwSIb4TPITzgrXCzHKYR70RN6C529sdGOMMUY0f7zXhwnu2muvRXp0E9yIEf/f2BdffPHM+cYL9JJLLhlnnHFwxYyK8MAGkifSIG/Z2fOAiHw0t/HGG6eVI9Z6IsIkf6+00kpRNm6pYV3kAiHNRZ8QL6MUbksiGRJ0J20rTCEEDnKLSWgIqFgOEWLzr8P95n8/1U0M86+Yspk1QMhHdZgjpuELASEgBISAEBACQkAI9AkCg0MyTMEad9xxjzjiCFxA/RN38/i77Dl4rvwhGZLh5ptvjpwzzSczbSJNoSyGSpwwMTNGX4kxYyluJCScjD/UjtB4/vnn4wVqgXA8SCnGz5tuuomCaYUkEmAm7UNhignDZWFawyInnniimTTxp0U4XHbZZQl1U1inEhsgYGZYCkoybICeiggBISAEhIAQEAJCQAgMIAKDVTIEstFHH51X0c0xEtGLlyFI9CcoIky5uWcpZaFBc+bA3rTAiEdUz5z85KE5jJlY6jAeIhniMhq+ckGFFn3U7yJmVtssG2ZSvBytLLcr+SP1vG1Ws0oZAuZKysqsfsmQW6aHHXYYns/CTQgIASEgBISAEBACQkAI9AkCgzg2KQgShGbCCSfkDyKpWDSaMo9K/C0N8XaemLPQo4h2OVFYyHPIIYeYMRC3UmKHRncO6c8HH3xgvSKGai8XBPFIkWEQcX/84x/3st0h35ZJhlz7rFhmPFbJM5gSC4f8YtAAhYAQEAJCQAgIASEwuBAYxDbDEOgJJpgAXhzJDbabCDHpVUN/757nBxvPEK8dUva999677bbbyqKAIqCaAZDXMniFgiCiv/3tb8tatBuJfCW+zvrrr1+WrePpGAwRXH/yk59UCDBpo4iv9DNHKk7LEu+HpxfT9KGUwg1DMwhXu5KyKtZZZ52hNHCNRQgIASEgBISAEBACQmAIIDBEJEPuzhFWlGceEMwuv/zy1BT28ssvM1tcKSSwZ+Np89uASFaFkiHeoTxPT1wc7pshANAQT0pUNIdAS2hQLh/+8Y9/5PXCNLTMO++8w11KxMuKSlr9hGhnIUYtIivFDzzwQAL81N63ZNQYaVttzvIzIzyq0azsYCmVc8nwxRdfxLuY9z8Gy6DUTyEgBISAEBACQkAICIFhgkBXvEnDB9/bwdEjtUTvFhbWSahSS+dN+TTD3XffTeK2226b/0hDWgnvQ0w22WSkn3rqqf6guWfDlsiTiVtttRUp/jYGDxiG9RBSlX9Ds9sqq6xCCunbbbed3Tn0/Bg/MST6zUBPT612lpKmh0373xg88SbFdrrUUkuRyE3IK664olYsJCfGT0TfZj/dEwvxzOS9ysKRRonEKCpcSOAcviMSlsqvnFK1lwyZIF7LBPaJJpoop8PKIwSEgBAQAkJACAgBISAEeoZAa5IhzzZYzwo5bD7htMkjEFxg49G89seAxcwq8T8q6oThtmcGkXOeeuqpMOfbb7993nnnTTHFFDxs6OkudrqjaUXl9omnKewhe4a/6qqrnnbaaV4JIUbpABfM7D13f2uRkKReLSLrm2++yb8mH1r6AQccYC6d2AZXXHHFW265hf4gQtx11128tMEjHAsssIDlRICxP9IOmygeCZZlw7n11lv5hCupBSnl4XsCopRlHsB0x7BssdE33nWcZZZZQOnxxx+v7uoPf/jDueeeOw0MQ4DWb3/723i6Rs+itFS5Nc2rm/xRdsmQq7Csz2uuuWaDDTao7qq+CgEhIASEgBAQAkJACAiBAUAAIST/Z+WVV7YunnzyyYWlrrrqKsuA1AHPXZgnMxG/O78uCE9v8lJ1Wd4JtB5iEOPCoWVGDMODlBRkrbD4BRdcYF0lwGl1teFXxDPcVn2eMAnOOuusZgLitXpkGMvsjoXg8LOf/WyHHXZgCEQ0XXTRRSlLKBpS1lprLcuMBXK00UbzOolsiQjKvwifSJ7e+gMPPGB5ED7DLtGou7li+6odyx/+8AfqsauGXI1bffXVee6itlSPMzBr++yzj40X71zEqsIOuG8w1uDCDJbIAE38ZjowMIY5EcULUSVPZuXkZJrOPvtsq2fHHXcM62cXPPzww8QisjdIWCosoYqu6pMQEAJCQAgIASEgBISAEBgQBP7r2Vj78+ijj/K2e3hDj+cEefAAExy+iGFxGHq7LIdxprbasgw8G4i0RhMuLPEHz+4hStGTslKWjpiE4yJ94AofJpq11157uumm40Id1k4v+NBDD5EeRqnhWb+99toLy1t15fYVMWCPPfYIY0sS+JQLeNi4wuL4XvJKhA0Bo9Yll1zC1xNOOMFS8ErFzOj5b7/9dvL4eAm4etxxx4UVYoMNnzfkeUYT7U455RSTNq0sPRk5cmT1KJBVsEMiQh966KHf//73oxmsLtvtrxiHGTviE9PHb56O5Mf+5Q88gaMOgCpfmT5MgtV948FJlhATF2VjweADzCLButugcuzGaAfM+urTRwpmc36iaLRk22WXXar7qa9CQAgIASEgBISAEBACQmBAEBiFVkMBrP2/eYnhwQcfxKc0Ypfbrzm/BmQqDDXIPMhvWNi68UIAuOGzyqU7JDrkisLBElqGbiDS8OS9Z8D0hwVswQUXxDYYjYiLcETKIQIqHpJdfeEQv1PzKSWOTmiuzEe433Ii6oeOu53tXlcr72xXVZsQEAJCQAgIASEgBISAEGiGQOclw2b9UCkh0BgBPIePPPJIjKWNa6go2NXKK9rVJyEgBISAEBACQkAICAEh0EsEWotA08ueqS0hkIkA75QstNBCmZlbzdbVylvtjPILASEgBISAEBACQkAICIEuISDJsEvAqtoeIYDn8GWXXbbGGmt0o72uVt6NDqtOISAEhIAQEAJCQAgIASHQDAFJhs1wU6l+QYA4OtwD9GA/ne1WVyvvbFdVmxAQAkJACAgBISAEhIAQaAcBSYbtoKeyA4wAzxgSDpf3QrrRj65W3o0Oq04hIASEgBAQAkJACAgBIdAYAUWgaQydCgoBISAEhIAQEAJCQAgIASEgBIYIArIZDpGJ1DCEgBAQAkJACAgBISAEhIAQEAKNEZBk2Bg6FRQCQkAICAEhIASEgBAQAkJACAwRBCQZDpGJ1DCEgBAQAkJACAgBISAEhIAQEAKNEZBk2Bg6FRQCQkAICAEhIASEgBAQAkJACAwRBCQZDpGJ1DCEgBAQAkJACAgBISAEhIAQEAKNEZBk2Bg6FRQCQkAICAEhIASEgBAQAkJACAwRBCQZDpGJ1DCEgBAQAkJACAgBISAEhIAQEAKNEZBk2Bg6FRQCQkAICAEhIASEgBAQAkJACAwRBCQZDpGJ1DCEgBAQAkJACAgBISAEhIAQEAKNEZBk2Bg6FRQCQkAICAEhIASEgBAQAkJACAwRBCQZDpGJ1DCEgBAQAkJACAgBISAEhIAQEAKNEZBk2Bg6FRQCQkAICAEhIASEgBAQAkJACAwRBCQZDpGJ1DCEgBAQAkJACAgBISAEhIAQEAKNEZBk2Bg6FRQCQkAICAEhIASEgBAQAkJACAwRBCQZDpGJ1DCEgBAQAkJACAgBISAEhIAQEAKNEZBk2Bg6FRQCQkAICAEhIASEgBAQAkJACAwRBEYMkXFoGG0j8Mknn4z430/bNQ2FCl566aVPP/20YiRjjTXWZJNNNuqoo1bkafbpq6++oulvfvObzYqrFAh88MEH44wzTgTFhx9+OPbYY/cnPl9++eVrr71G98Yff/z+7GGbvfrss89GGWWU0UYbrc16Bqp44Ypq0JkvvviCuR5jjDEalG2zSKeG0Kl62hxOPxRnNv/1r39BsSs6M8EEE0w00UQs/oo8Xf3UbL76mVpmwtVs4JmVK1tLCGguWoJrwDPn2gyfeOKJXXbZZZlllpluuulWWmmlvffe+5133ull719//fU//OEPa6655jzzzDPFFFPMMMMMiyyyyEYbbXTqqac+/fTTX3/99bHHHrvHHnv0sktDo61XX331zDPP/MlPfjLJJJO88MILQ2NQbY6CxbbGGmusssoqc84550z/+5l77rlJWev//Sy//PLTTDPNmGOOudxyy1166aVtNmfF33///UsuuWSzzTabcsopr7jiio7UOawqQbVx/fXX77nnnvPNN99qq60Wjf38889Hkp9lllnefvvtvoLlmWee+dnPfva9731vttlmg4mcddZZO7Wi+mGYoA3y66+/PuA/9NBD/dClBn3YcccdkdjZ/Q3KhkWeeuopDtCpp576pptuarOqzOJvvfXWX//61y222IJ2DzvssMxShdngAY488shll112rrnmKswwDBP/8Y9//OhHP1phhRVmnnlmOylgS3784x/bQQG7svjii3OwjjfeeJywjz76aO8hanXpPv/888cff/z3v//9aaedtve9bb9FpPT777//97//PRQVgbz9ClVDqwjccsst++23H6XQm9x8882w5bPPPruY81ZhHOD8yFS1PyeccAIWkqijiGd///vfa8u2n4GzbdtttzUTCgIhlO6kk05CmNltt91WXHHFb3zjv8ItPDq/4arbb25Y1XDGGWdwqrnhCyZ1WA2/drCnnHKKLfurrroqyvzxxx9ffvnliI5k2Gqrrfi3traKDHfeeSeSp++yP//5zxWZ9SlF4I477kC+mnzyyW2+0GFFeVZffXX71FfYwsRg2zznnHPoLXoZlAJ0ElqH0Tgd46BLgUVYeeWVRx99dEP+nnvuGXRDoMPwmkjsNoQ33nijnSEcfvjhVs8222zTTj2ZZSHvP/zhD937AHYts2CajdN2wQUXtM6jFEszDPOUDTbYAHDgQ1CFRFCgQ0dtjXzIRKDd7iVQrS7dk08+GcnWZhm61MuudqQttuemm24aai46Uq0qyUQAb4h99tkHTgYLIXOBQhAtWC8pXmY/la0Wgf9Tm+O4445japlsNI6oDH/xi1+4RxZqVLiZ2hrayXDbbbeZ7mrccceFqkLpotrgCFFI2OKDNWynrWFbduONNzYAJRlGawCVBMggsOELV7g80IphQicPHFhhhpYS2V82EX0lvbQ0hIHNDBNmao5UMrz66qsxm6BI5tAa2E6GrcNtwy9yoFoi1GziiSfG4NA/PWy/J+jybFUPUskQBA455JBJJ530V7/6VZto4Hn4ne98Z4455kAj0GZV+cUvu+wyw78dydCaQzNLVZIMU/BxKgEZ1KzpJ0vBD8X0PkcccURZnm6kN1i6CyywAGMZjJKhA8guszXfDUhVZyECnGI///nPMZh//vnnnuGBBx6wieiNLqywY0psgECNZPjcc89BIHAHCqv+5z//ib+WzTc+Eg1azSwCJ4FAaEQKEbGsFF5kuLiQDb+Osjy9TD/wwAN72Vz7be211142m+1IhjDlKBHa70wHa2i/S7XnPb3lRqKZFK699to2O3/hhRfaREgybIwkHDwYppJh4wq7VxA5kK6i+QqbSJVf3etAx2uGYqeOJIceeqit6sErGXYcqF5W6E6M7UuGSyyxBFPZpmSICxJ+QL1EoLatwnVbW8ozYB6xa4S/+93vKkr97W9/Az0OizYtzxVNtPqpcC5+8IMf0M9BLRnClxrNaRUQ5QeBZtsBa+23vvUtrqeGGLLUbSL6SjIsXPaa+hCBmnuGeJzjovnTn/7UZtd+M/1nnXWW+Qh1774EhwcXvbh8RaO77777YostFvYh/Jvb/Oeddx7erR999FFZnp6l4y/E1ceeNdeRhtq/HM+S2nDDDVGEd6Q/Hamk/S795z//eeSRR+gMYkZFl/CXwGWODLvuumtFtpxP7U9ETitDO083YgJ1CbG//OUv1Bx1ePCugTfffBNrp7MCDtrgHVGX5r3H1XZwR7Q/lbfffvv222/fDye1z0LZus2fJrggjhvyV58USFyYDdFXHnTQQfmVdy9n2Vy0P8vd63NmzR1c85ktDplszbYDfsh//OMfsQ1E9876cC2VLfshM4MdGUiNZMgF68Kbo1yvMlGNeHow0B3pSlTJb37zGxwwSMQIwFlS3QThDXbeeWfUFdXZuv2VABjtiwfd7mQ36j/ggAOIntKNmhvX2X6XMs97emgXGxCM8VRs3GEVHG4IPPvss0NmyLgSrbPOOoSvGDIj0kA6jgDRztAd4Jnf8ZobV9iRdXvDDTfQAXjihRZaqLondlIQlqM6Ww++9uFc9GDUaqIagWbbgYOMKwO4UmPLqa5/wL9q2WdOQZVkiBrMbk4X1mWxN3jkwG/nF2ZrlojBEHOllUXWSgPQp9VyyRC30igd1yxkV0tEziQ0XFqQFNQkxM2rfqWAbNRPfDZ+2D9pPXhU48NQ+CnKzG0TKqkOdZ3W7ynvvvvugw8+iBNjRZ7qTziCAwUGscxDGgwRe8qCOv7pT3+yUFTVjVZX4mXfe++9xx9/PJ3KtPIKGDO7lNYZptx44438m3PeE/GSnOyXJ598srrOVr8y1yDfMxGCOcKjuHYN50wlaLz44os+XvRH+Ki8/PLLEQKsQPYCq9GU7oX4hEv9lVdeARDi/RTmrE1kj7PZ02zcF/W+0RO6xCKs3aF0/uGHHzYFVlpnbYo5RFRkyyRfdOC+++5jO7N3KmrjE2N35QWVP/bYY9C9dK/Z/NZ2z9uiqi233BJv6urW/StmEyYxh4JlUuaKdvPBgWmwGWcxAGaq5aEzFWdE/mJggbGMC/scRoeGvnGmpLMTFczZjIVt5SQCAiuE+yMV29PrgW6gGuBsKtyeHB9EDP73v/9d3W71IetlmSmuutTWRn7skwyhMJR6q+u2rOd2UuBqW/soi50UkJeyqrqUHi3dzLnwzoAzFKaMAajuc+22ojg7Dnqbng5hzeShKkthG0K7WJbVTVd8zVxmVgNbmyXE3qw9EXLoVceJcAUj5AjkEJbG24GoMxAKQi1UAO6fbO5wca9lPqE50JO7774b9qA2M/WTh5zkp1QhvcpZ9jmEBZICY2YjgjcrJOaZXLofgnSYqjh3armvHJA7kIcONfsh7hDN84ZEs+LVpfBW9bFBRqsz+9cwtgSEhqc1uMODLZHJJrSavdTHBVnPz0oiujG3JjBLYvWGrC+66KKFsQG4IbD00ksz2O222w7fWmLw4BkCs+tVERncQ8ARLhVp2X7CLpEf11zaIsgEo+MKJZJk/pUDxLljjjkGgXyppZZCQ8PvCSeckD+gmJn4kI1lhxRHnDRu0BGtEXzw1PUQEdE9Q/oGbjgPE38Isy2nGlgRFTZsjuI+UzgY26jDW145lViFRDJE58oEMXGATPh+4oVgioxGVwtjbZcy4WK6GVpFUAGvx5frueeem1l5YTauFxqY/AHfA+wWepfEb3/72+E9RjYF4PgyI2A66xwe0aplwRMtg4ArZCDWHFUVNhcm4gIN4KxPfASomSAEzAVnWJgnZypZpWjQd9ppJ1rnbQ+KQ++I3u7uPXCHdhUBMs1u8uf7CCsa3SWmdWLDcoWYvckih+ITAt7wYauyH+25mmhoeJWTJ7pnSPFrrrmGSEs0d+KJJ3oRCzD7y1/+ki1pFyF4MQKorRX210UXXVQIHScQkYdYIQyHbPgscMmZ7Xnddddxe5AfaEthQRJxIrWJM4oUkotVV13VSuWQL6sKKwQbE1MMnQFk4EopGMcP8ZzxeaZFdhlEAOcfjxrH2CFf1u6VV1658MIL2/DpGM8CheEECkdEhiWXXNKJAJoUG92vf/1ryw+Nta+oBliia6+9tj+aOuOMM951111ptfmUOS3rKeCcAw7HPNuNeQQ9yDWivrHv0HMiBlMbEjIbHILPqis8jPIXA1IT1Gn66afHvur9ZLeyYHhthV1Mh0mH62V5G2hgBT1kyqKR5mxGK+JySEv3DFHOomzluQUOGmggfT799NPL7hkCGpmJT0OAOmgIK4rVGK5DThbODl8kVGuLJIz5XHvI2nCgHhYHHyKzww47QKlY875xQpTYyxxzHLgcTNAQ4A3pc+26jQAv+5fzyFzmqi8ZWnHuYhkIcJNlFZJOUFnomEHE0wsEPjVGYr311uNfS4fsQFedZrLHYc3t08iRI63ywqVbOxeASSftniF7FqbIJw6SjnhW0XP/VLutLCesMBHmYUhM+88pwEYIaQ67g23IcQaNhaQgV4pI4RUAACAASURBVBAWgWFal6aaaipcc9P+sL8sQ/opc5lZQeg5w+dE4BkP+gbPBiOEsimqNodedZwI1zJCLRGWxtsBMczoeeFx7B6FHK/sXNBzMw8LmKiW6QSRQmfw+YKFgAlhkXNUwXIT3iZF3orTCkcVrtqwLqxemmD77L///uEpXLvsawkLRBg/MrgFlgGrCNnPrhFxUBI70HqSyaXDFLFuiZ3J0UlBmGoL7sWipXJGGgoOhRB1O7EmAk1F8xbDumxqKwrmfOLSmm1sYGJ95xTxPJzTSFzOUsMx88OJa/o8LiUa3UFBhZQFb4qinbJMM2SXRslwwQUXhC0STIx0aLon2k1C2BqfP1RQaCUtMA9zzN/240UgMaxvOF1brOwiy0wifEDtAGFt2SF0Ax7FM7OASIHTqi1uGeDFIXAcLTAilsJmAGr3BQ8lQ44uRAX2vCmMyQ8bbTwT93e9RRBwtQcHmI2aA8kyZFZCZrTjhPw+6qijvGa41Wi8fMqBsbpLXn/1H4gl+ec9VMyWK2EAq6ut/uqS4cEHHwx3hUz+3e9+10MBw7liw/caWBIWeImmCfKR1swjZpy4kXSXZiMFYYn9glbYv3ISUy0z6ymZUwnT5nICZJp4wqyZzTffnJn1qAA88oEKluf7WNKIDfiN22sTbHa2obWIlGWLzYAlCBacOkwq/ioWlYp0jhbuDEQjSiVD4vo4n02pUDIk9iwPkVkT9AqunUY5w/gxkRVY0G5GTXA8sFYZjillWO3uRUZ+tgw/FfwTFMC2iQEFx+PkgqWbSb6gWtArumEvXlgPIS8sWlpHiet9hndEJIYXt2GSn2UDHeDgZJkZXBA9lMoc2/POOy/cNuAbtaFIWFWEg/9L/7npbfUz4zYcf8fFJUOWNwIGQjuiDl0yZQGTaBTYa8unzGX9yQeH88sXAP1HwoELRISwsbCvWZwsVPuX36lkmLkYoG9A6g/ch5Lh0Ucf7euTcwqBFpYIWoqzjPctXLSMOnMzGj4NJEP4dU63+eef35VNLA9OfCOJUQQafCNhxThMOQStRfQaCGMQLo85xE5hVbCtDEn2lC0SlwFyDlmrHOhYRU4o2DIojJiycDFQLduTdW5KMVq3+mmd5Z25bstWV5SO8sgGdeutt9YWgSRa5mjNpwU5ZC1npJrEHcbS0UxFpeCU2M5QSEsvW7q1c+GSIc/qcgyhoIRWIL9Zu6bvSzscptRuK8sMZWDisLgaj4fq00Q+JtSoB9YwOuMnIHPHgcjuQA1nPmvWpXXXXTfqT5lkmL/MoNLsQagTyjKrnC4Z+w5DH1oFcuhVx4lwDiPUKmGpJuNlM87aYBZApjCDS4YojDglWU4c4v64FAU5xSK1F45XkBqMFtBMq5PtbCoV+JlUV8vjYVTIZndWh0ZNPEE/5cd37bKvJizshVABCpVmIBahkFGwr+lqJpeObMmhb0sXXZu9OMq2pX53OqDmfKNRIfJtJjaUDBFsOCTQxnUpyJizvJzTzUbo196gIBzwVIIAhlLN1GksNXggWgkrh8Nj5TFhjCs8eOw4h4p5Zo5AkzxRo4Y1WKzk6JQiAxIXnBlbKMxskQlpDppbO0b31Arj+xGIn+JMhAtv1fUYcY+CB0IBnQUPJUP0c1QeBShDn0ciEkvYEGezrfJQeLYM+ZVYlCNzA/DK4aUwbvi/+TBWdKkaIv9qcinjyjnvsXMaAqm5JrM5y+aSIYQD0mOJTJDBSBMQDnO8tE/Yf6zd0BLuLcLbwYLndIDmojnlFERnEWoB86eSFk3egPWH6oXBypZbbjk6jDwDyQ4XGyDbQEKlA/W4upqt6g/ksPtgViw/zGukOUolQ0PAn/lOmWyrCmMXkqGzqsiclg4dDzGEpYMx5dO9997r6c58c87lAG55LF4FHU6LVJMv8iNs04d99903KosEbt2OSBOjtnSoU2ib9RBiKFxRxodgwpJSBK28CcBpJ8MUi7tI/lB1ZRlcMoSY291dS3dmHUHUq8qnzBX9aQkc9pebSbEcsswYL7H+camwvQYm7igVSYatLgbWjM1CKBnaQFDD8YmtAYvgLA71W6xdRMRwvC1txlYlQxhEGoXyR0olpCw79SLJ0BimyGpn5n0U+WG3UdHa8EOVExkg15mHLIc4NUTVomaCWIUNbb311vCgUf/RhljrIUmvWLcVCyz8ZEEQKl42CjPb2+tonWorxzhmr1xEUw8bbfIJfHZUCTAikCMzeHrF0i2bC8qaZIiCCd6XGwFem1NdFCi1/a/dVujfmQ7EwrAqdFU2R2GAd2QzS0RERPHkggRRMFxovPjii8N6CiXD/GVGVdjAaTSkVyR60A1X0bZErzpFhPMZIfrcEmFpsB1Mq4VLReGScMkQeoKS0ZVH8FeuJguPKpaNiVvE7AgrZNJNWQmFDIkwxjdUxmwozB5hfto1BR96PW+UDGXLPpOwoJuwpYirgvlw4ZiAjgbplMrzuXRorIXwhKNDJe16IlQhzo23/0hS4YxkJjaUDHfZZRcAatN3rqKL/kQh8ltFtopPHguBUz/Nhm8V/T/77LOjTyifbOL9AQamyo5D7j2Gmc2kgLNlmFgmGZo1MjoOKWiknxZTu0TUMTT91rEwJ3KIJbpaKx2pp7B2ycyuS/O4Kjdk1tHxkB+2NdToODPnBgFqqxDD8isxxXw0I5jgQq4xH8aKLqXDL0xp6bxHrAIraBbtFtaWmeiSIereqIgxu7QSPXbH4U0iMlikHYD7R2WQ40dqlzfIzFIPG8VZK+QA8qeSShDY6BUSVDQKXz+p/GBnfMTz+X5ELxtWxXnsJMJFaMtQJhk61Y4kQ0rZBk/PNpMA4XHDpl1mi/hOi8iFPTMacsW/FZJhNfmCtWW+6HaqmAMZZDnAR9sd2i2926eddlrUJdPTp/ospCPq4SfS1xSOqIKlcMkwdB2kEr+2hHHb68ynzIXdILEBOKw6G6kd8GnNrpqJJMNWFwMypzWUSoamDOVYcd2EdcPcZ5jukL9paTO2Khna4Y45PcXBAqhEkqGxMqj2wvwmS+PKHiaWsWX5h6yZptn7kbYi1K5isYQeRgoduoFQYeCHT21VrNt0+IUpsChUm3PpwDe1uZAV1hYm+qqLPCP8Vn+0GiGqHKNRtWVLt2wuKG6SIYw7/GtYm2tLmYXazpOhYlshAHBoRkIvRfyiPspK11J5YjqnMAw2pxFjUygZ5i8z07mjSoiGyX1LdiiEFwuSfWqJXnWKCOczQnSyJcLS6nZgHk3CgT8pXBIuGaIUjjIgPtjcQU+cuKERIBH+Ia3NX9/BzuZrw16TDh0BvKBHKkGe98SyZZ9DWKgEIdb6DJFMe9gSl16o96FO985lA7Le0lZ6kzLCxtnSb8R0+HW2vW+/lornZDZejZzO4ueUCvOY6zMpdjUiKm4TjEDF5aXwk9Nu2AtEeT6xatktKJL9OfgwP5xZbcewmcDxIzY4h+RFvJM0x/PHFVUhD2DSZDEVZsvpht2+M8foqCH32g/Tf/vb30K4OfB8LqKBGwNa0Wc+5VdCbZxz8IhQXntPieJse7+V3hEYq3sbfrVwczlBBWBEbNnAnbgK06ui21yTgDqbI1ZmB1zs8fxQNA4hiIKdSV4bVlz0mkjv2MTYlZ6fI5NG3Xm9ol2U69AgVNS4CaEAc5UVtM+vzlI8fyrJbI6CaTwGE9vIwHaIukQ3wCq6zG31kDP0P+FfNg7qDCwD/M3w3WZbMUzfa2keVjgnTThYy8N2Y+O7s7QlYrS3P5AMzQJg/8LtwcCxSblgE0XuTlusTakmX3a1Bq8qxL+oKgpiukezgNyF07sruR3JdFLAFhYwnRFzoKB+JsWE5NpuV2fwCi0bZAdFMhQejs0L5lPmsrYagONoh/5CYf1li6fVxeCzkHbet0zUljEQbHy4BN/OLW3GtK2KFFrBCY0M+ScFqhlkfos7ENWcczBRJP+QtUMHksuByFIx/Sw1YMPxprm0Az3E38EV/PbJjxL3UKjAIfMTuwyLJZmr36uw2iDd9kcOvSInGxlGGdKEl3h42Q952+oBgfABDERfDtCo52VLt3aAEAqH1zLj4Gd/hBu2op6KbcXxyqGJNiqaI9a5UWNulKGnNm/qslOAptFHcE6xaFFiMhcpPQy7l7/MTIPpRmavxE4EKLzr9FuiVx0hwq0yQi0RlorZLPyExyPCIZ8KeciwSMrSMHcwpXbCcgEbEw7b1tSRFuIhahHWFz04xz37F4c7VLG4YOABR7bC/FAkHPI5X+CLUKaYBFs4ChJzCAvZKpY0X1vi0m1eIsaGSjhqcZbmCgwsGayjG+rLet6l9JYlQ7YuDBl6dFOWdKlb5kJD5bBfbTaRHsbGrFMtGlBYk7B+SJV5EfjO52t4RmL2hedG90MlfEK/W9s9XP7YPFRo1u0wPyZH+7dwZYc5IdOmJ7ZEfDx4PcY0WzndwKAE6SRnPofHFLh+hYKI0Dh2mryU06L1M78STgjcYGCsUViyMZBzYIMYtZnjqK0jMIaQVvzNGWNw5Zz3fsPK79GFNaPmRDcGKxPeVqpo2j6lYiSLB/chwnVwLDH7Po8IzyjYsB4jBuBbaMw3CnUu5nErurYhMkDskLIAHNUsmld8GFAzY/uKaFb+VFY0moolntkId/5+x/HPJENc/ipabOeTHQNwZmElfjZgjw2vqFncGkBrXywMm0vJF18tFmJIo8IiXMWxfzlEC98cijApmxQ/SvMnpVW0zczuAT9bpcyFzbUDTiHaha1YYg8WgzcRrsOObMbCccFp2XTknxQco2ZLpEJ4OxSpyGb4LPBvzvlo3cg8ZBHdIYMcRngPsvsQnIh5gywR7kTOEerElz46cPnX73PCxqQ0thCQ6kTzNiRP/knBGsuUDJkChBPkSSPmrnaE9WJVQOS5c4iOwBYtV0PRU7hVqrrbzb668sg3bGY96bayOYIdT5kiU0xQc6qqS5sDByCyuA/oAtwtPM1pKTnLDPuVdS9cVF4h0rILzB2hV1ZzPhHuFCNUSFjKcCtLd5NgqliMiqTbjW1LjAwTBWGQmDvkQ3SUFKw42thxZOA3kqGR+rL88DDY8xEjEQ5hkFyfUjiWHMISFkyXNF/b5NK9fngbJEP+7R5vUwhCmNiyZMhlOdQ5OAGXLeXaJnMyoGAwIYSFgsa6bKHkVJXmoUIOMNJRWuQYVawGJgmahTsyEhqmFVO0p5WnKaZgAy5jZNMMLaUACxw/+xCTJgeMue3V1mB6TbJhmanNHGbgaOdYQhnJvkU5x6VNi03S8UoQCFHUcS2NMxuvFcy5eDMiojjF6SyM1f2H7hgfVnve01vwoTZMbYUmdKRcWJmWxMKyvrFWkQz5irY15Nvg/lnJSIzoxuw6OOwdE5fJf1Ahimfg5eIHKgwoNZHx+M39+7QnHVkPabUNUuAqoM5s5JzI9Q3qLyuCJRYJnK8I/ObKYjnRGfFHoYdCWVXN0tGe8EPZstcyXLUfGWCbNdfLUs0oc9jDHoMzsIuhG5ux8UmBeRCJBYENWsQfm2yyCX+3unhqD1n4S6rFOwPXMuwV6N1wDufqR8j22UnBTix082m1S9X5818yxPXAroXjbJUvdeOkh2TIqoY423DwrIH94D42fAj7BWutudiQAp9dbTSrHksvv9ocofZtnynCdcJ6nn8QVC8zbMsm+hZ6S4UotU+vGmDeS0aotnuuI4j0p7UFLYOz3+Z15Vb9zKOt1fwVvcohLBXFo0/NuHSvJFrSgBy521hOVMDuhpDft8ycVe8ZplUgyPID3xm5GaQ520wx32irxJQEbVYYFjdzHymZz8Rxpw6jCqFEkYu4rYQAUG2YjrpqzTm5aTwQNg++nfDrxFPFToVhPVXDlFXuXj0tMYvI/wwZsRDdZBRtrKyhND2/EmROdHXmzYjejiDgXPNFEWh1dgrGtIdpSv55jwHZbkEgXLkSLqwQQ2LkMJM2l5niHH/kucHNbAMNlypDiQsnXEXI0bla06gtWFHwWFYz99MIe8tNIaTNsG/5U5k5onayIRaaZ0GPmSHIMVwvPQcxf7EaARUFAXdjQofedkaXU9buLac5fZ101nqZNtTxlFYpc0UHegPOAC6GLm3GZicFV3qw0XFC8TYM2r3Qy7pijsJP+YcsKiF8yTgsTG2PRxlCIO7TXputoszDPbN7ZdnyLx3gz2Yu6zlv/3pzSH322gcOpZaIzg6TAiKxBec0cxmiI3ba1JW0rNsDnt7BOfIbCjkHQc4y8xtMznuUwdVBelXWRJreS0YobT1KcYnF3/erLRJmKGNpytyVy462VvMXdrKWsBSWihLb4dK9qnRJsybTHxZzTpea5WlBMkQogqhB+t3Vs1mTOaWIz+b73GJY5ZTKzOMOih7zKi3oKhCsKIipaCWhyLzmXKtGSquy5uAd3fkzzVOrccF1jfA2WM/RF1qAx7SSihR/uyx8fLwiP5+IDowgat5B/sJbdZH0a6uVYKNDac2FTJt9fAy4/GYboCMwpj0sTMk876HR5g+MHJVvoCtsMSfR9HPcCYw8cFiT1g24OhgIuAR8ikx6yanW8qBlQD+NlMsiNxGXleYhBMjT6lTmN90sJ1vGvBzdk61ZPQ1KYRLBvo16CN8kdN6EA8VLDbEQQTHn8m2DFsMiOMmYYg7SVKjoQati+Rtv2zZ72Lh4S5S5sJXegzMgi6F7m7HBSYEoyC4gbjuqJX9RpnB2yhJbPWS5A8IGRCa08LkcUpjxPeCEraKKw51u1B64ZV0N0/MvGfIgEJGfKAsjYZJeTv3kQfo1So5THMQZ/TK6SHMRtzj+BGnDdooqkM1e7S+X2WJvstkccY2qwlM9c44YPn3m/CoMwRAOJ3OZoeMwnbtHEi7DpH16VVZzRXovGaGKbtgnlww9nFhtkTCDmxztEHfBz0yIaVXR0dZq/rTCKKWasNQWb5NL9/ptSfOvwQLLVxh1BuVgbZcaZ8iVDAmuQLAybJeFrI9HDWrcj6ggLvXuZoBvIRJCp2qmHvgqE27xBysTuyG+OO6T+fDDD4d+wXz7E4u1PWEWwzzurW7qvbQ4FwbwA6m+koHvKDQUu2Wm+2jUinsz2pMVaR+iFIxFaCU5cbFH5duHo4G3VIk/38Q2wI8UnxkL9ogoa15JzWCMulQ7cDLkn/e8CYEHC4ZNj0Yd1o+tm0sgHYx2wF1t6ocZSuPccNnaPK4x7aJJQXS093xyxsu6cuUL4g0MFn02rRUOAuai09JU5jTafh6EItsyaJHar62lGqAGKOzhw7ATcj+B8wn/WzhRD97TUm0NMrtLReG1IlegphEUGrTVapEGO86baIkyl3Wsx+D0fjF0dTP6SYGbYhnCYTrmOwvXwX2/nPyWJ1ok+YcsOjtnBrhEhLKV+/Z2scXfa7GTAmGM99AKu0QE2pRiN1i3aIJyLh0gkMDMkBOlWwMHVyRAs46i9QMolFB2mw7vIc5KaCBiIacnlRcOtjaxwcBr66zNYHME50PnCzNDxCwEYOHXMNGORa5s1FosMpcZ4oFJ74SaJEBD2gEQMxt1R+hVWn91SjNGqLrO9GvmqkATZK7Rdj8wrac6xeaOK052N55wG+ZugLW2kOe3ow2Saw+wOannbrNdEIuas/zplWOyRQPMISzVY+Frm1y612+w4PNVe5uptkuNM2RJhlwMhe7DhRT6x8Me+btq1o/ICa1Z5wi6aBIzUwjj64b7stpYTMTFyTRq2010mEuL0B3VicTI3Fjr2Ej5CmkOffNYhTbGaHmZsSWSNmHTTZxGwrF7pWFz1IB3KGbAinubUH+7axuJBHa1idpqtzHMq80d9yTTI9+Vc7670JaZW1FOi+5FGQ28pUoQm0PZGBGFU98uGdot55ZgLOtS2eIJ0zPPe15egiVCfKWfqd8mNyQJrcZxhdOvP1yZ03pZHtgL4i7ACqQRbimC/coUyQjSxA1qyWCIHs5fT7bW4TzwTbK/Tafb0lSWDaGz6RZfG0eywiCKaVu+R2o3i5cty4me/tBDD0XJgq8X72pgLm5mnbP6y1pJh+AphHQz5wUk0jSbXUYlmFDhxdc0f0dSKnZcBfIpAvmUuazb3QCnYgjNFkP+pKc5u7oZIWgmh0ATUnuOnRQhE2bnI3NReFJEnS9bJPmHLEYzD6xvCwBaRwRC/vZgGB5mBuVmqvlF4YtGzylkWZfKVleYnnPpAD4BtS9HAJJbGEA1p37Lg5Riyi/CYGKgtieF+QQ/bY4q6B8RYOwlg7TasqVbMfB0V1q1ZVWljdam+F0Y3rhL/X7h4gDNH9OqqA3Z0vgZ7p5UZLNP+cvM3u2AIYHXT7lZ1o+ry9unV7XdjjK0xAhVVJ4SFjJXrIqyquyyfb4zWliP6c1haex+Foeah0yrONpwbrKbeOiG7JItnLy/SuX1Q6bM6msvYVh62QBzCEsZApbePpfu9RuJwxej1bAg1T1s6Wu9ZMhtXQR0aBDhfRACwx/0PbixsXmcKsFlIp6hdAnDWrbUIc8Mt421EHGfFPR/8H/2GGVaG0scRhZaE+5YfznKDdBhwQMOOMDOP7w7EHr97jJnIUuTi2EeDNrqYdb9rTlOR9STcOpUaKEgvGaz27z22mt+WwPNB4ve4oKQjcCnWHWc1mAZI0IJgrd5hqRDsxQGaIcxB4wrsRCV/aSJupHWg3fEyJEjLZ3zMkSSemBu7JMb8R09IpK7wMbm9zicYYuIK+78afWAOf1sqRJ0Tl65VcIqsqeizEmmJRjLupQik6aYjZ47Wsh16VdSmF/CE7NOkAp4bDfdvVgLAY11BRlitZSprgsrt8TUkQZGDfJHo/ZwbVoWcmnCP6urMIJ8WsRTODJxhAgzIHGxZpgCc9FpaSqpx9ZMevb4WkqPW/vkDUW9jZ6OIDPhoOihv1/v+c1BJa3HW4wIAjvLNlfaW9NGhXwwreDTxd1RlgfbIZ2mCpDTT3ahpVDnVU2+2BF2pwiCYEEgw8qx+oIMVhE/BX1G+CMdpiFfNiMUScFMx+JBwlzXi77WBuguQykptkaNllqd+ZQ57YOlNACnGm2qLVs8rS6GsnpowlBKZ8eXh6/DVjej458zj1gkOCBsyDiMuPKRFE4rI2Wcbk7/vU5/nYyckFBTTxSej2TwRWJ/WCWZh2ykQ6Q2e2vEfSnpv2lqiNWJj6u/+ssyoyxqeC7FcEDYaqlYt5ah4redFDA8ZVpd4KJXeFpx+LIrG1xFsdbtMVt8zNBWh2YEYxuYDgh+mR9v2ZJLB+6TYgumbLfSpXDDVuBTsa0YiDGNLDCmD6uDr3yOVE4fEtNrAtEpQNN4u5CI5Mytk7AnvuZD6p2/zFgh4403HhUidjK/SB22ktH2Yqqlhy61tkSv/PhLt3k+EW6JEWII+YSFzOmqcDJeNtEmRRPLvdpsmJ6VEE84fNZzeGmF+8MWqD/VTBGWBiac0I+hpAcDb9fpicsYNQFbS+cRXoiJ5Z1PB+jLvpawUEnFkm7GpSORRosBoxRcN8P0lwvKkO9uOt2q+KGX7stb1g9iZHkNbo+CNeFIq6g58xOKQH/dDkaHDQkXa2gySUgyEFwc51CQwyGFdXrQHvh7VkzaHJo28yZnXJBsuGocuBEXCcIBQff8mIZs4JwlEGg6wNmJ3s44ZhYlkj3SneV3PpXdwn0AaB8vPfCJroaWDarC8cwc9vAOxX0x7V6U4o5hmB9xtsS1Fa2Ju8TQebpU+PhmWA96OBsLghzyPOI0HcZ9yAMqQg0hspA/6LX7ZuAtyRolHgkedH57niIMHC2m1c+deKuZvpGIlR8MW6oETRibATWEd5hdjWQSPqDcEoyFXarFGTJhBt7ofXMOGGRdljeHsU0ff5fVhssQneer8VhYs8tyRuloQGxN4jKK/Olf4bqAYq+99uL8qKjK3LrCd5wrMvsnO24h0MyXJ5oHL05KltLSVMKLWCQbFKvwEGEfXEUSPU3LuWt2V7BFze9FXMRlEeKybunUv/rqq5MfzVQ0QJdvuS4VYeVKZWYwLOVaEiylYTpdAnNWNWxfuEND/QV0gzHSFuI6PeTpIQ4tFN5Rrwr/JZszc/QhylNLvpgR1BN0j5seLForDqHDb41uc6xGFfppCpMafoJK2zBhODh6w0/+RjaXuAqHECbCRxrFwHZEGB7kdoiArSifRNLDIv6ANZQwnKxMylzRpZbAATQXKlDWFlZr99lAO1pyrS4G9y3nEAkbgrIZy8IZF25D8rgFDB9IK9LSZqSI3XCj8yEtLRymJSKBWHQTithhB/1hMXBSuCcba55pBTqumfgxyhmBRpijgSPbHn+iBjhpcmKpo3K/uMV+4fSBoMEUkp5/yJrzIa2EZzrcJHQD4umDwp5vq9pOJRYYPccDha6CRjj2inVbARHHgatTOXmjCtnOSCxmS2HlRO/RV1Rb9onmzEhCo2EeQDDVecixRJWULd2yufC2gA52P6yNWHSGJ5SnrKueXrut4C2t81YnvAcLzGxxKFXD+YUhsTywZzhrIOpYK3jrwIDhb8WKDfvDbvKaQ9Kav8yojTUfvsQAqTerOEs3opP59KpTRDifEWqJsDDqBtuBmTIZvpB4UqExuixgTCA+TaxY+G3O8WjuyMB+MeEQsoxu0YpwBMOSMa14ToVzzd9sCrvuCHPun2iLdln8hNML85ct+0zCYu4JrEZIUNQN/m2JS/f7xpBHBwGJBk4Yfj6kZmlDPUj5rwq57AcWzU8C25mFv8Haa4CdsknCKaWs2gbpGGE4dUJ/FSgCe5UfTIUQrJCx4BCKAjMSuwXZxqLVha1z1oavVkB34BqjbLC2mIZ84Ahy+JBQiVMZ/B4thUS4PX9Rh5MJfYY3x/7BDhmGz4J7hlLA5uYAAhn1m2OMGh4UJpiCvhZhTNMBpjVjZgwD4CL2I+Fw6oMnciMqHHaylUJP5i/a8RWRj8lFLWT7HEA48p3vZx+Cg6EECcAhs9VKoAUMEPYIbetZEgAAIABJREFUkRWBBBECwkGjkX4hH8ayLqWYkILUByxmRva5RvZgEu0H8YAM9BBhj+kOz620Qg5XEk20QOJKM1Sk4DbMnNqZBI1A4wUmrDqHtKIsRJPOV4ishWVZNkw0uhW0FXjisZtwb2Zh4LkU5s9cD3gHhbZW6AByBXDBE3Pe+1kLB8z6sbMEdUOoHmYloIi1pl2owFUBwQMckDeYFy7cRqQTuRGhKHyDkZ2IiZVZQFUBQXC9PtsHY4jJTjQdUgAOEq4t0TQKHQDxlcDfiDrWJTYISzQ0x0VUEc0CPgiFUFsiMZYQjEOuiKHhbIaSiwz55IvMjAIeHVRh+mGyWTAYSWCkwtYhnqi0TLFKVxFHactIFlMT3luG6YHNBTFuVoO8R2CmfrzvmMGKQfEJXt9h4d4I64pbBmjNHB/Yd5QmsJtgiF4pvLIO+cLT3uvPoczVnckEBzk5fEuWIwYYGYhXDm0MzRFQAyiAb8b8xcAssGxC/wK2Bk4uNIQO0XVzYIVUxrplyzBHoT6RRcKyMfqcuRnZX8yjbzrkIo5RHF5qoeNUCtcMvYItQ8OFJYctRsQBFoPTQNSLvlQgVhAQPgGRLQb2Xdiix89kG6JTtuHkH7IwcJAp9g6IwZGzZVCEgRjwRoNC70CfacWXHyJEylYWrtsKfExJ58KwVc6y8ZOCUcPz0T22kqtsKirM/EQAPLZqeu7AVNBWYSXVS5ci6VwgNodPAnLWs+QgCIAJBQglJRSvFeJo7bayDsMvhesTMKFgkPpomC4Z0mGmm4MYQg1rCubwdQg/PnwECXj3cEdzkKE4MMVE/jKzChlgWBXki/PRZZUQ81p61XEinMMINSAsDCol44WrK0zExsXcRdpez4C3MGTfLhDCJTJ3bGHmBUJRVjPCP/PIUcUKhG3gvGZPwZxHWjMvzoHLQcPW46RmkXAIwoVCl9L9QpF02ZNYS1gwa8OMhcYktgD8QziElrh0kwyRfuF1GSknJowT1BLePpWWy4DqXvooVO2ksyN/sHNgyiHKEfVsv3KWC/4hLAIMiYhVHEIY7lwgaVw/tcGrcWbDGIW0L6wQyYFzkdXMQ4ueTmegSvA0fi7yCRkVgoI8Q7o5JEQdoyooHWIPHi+RKFI9BOQN2F9UILDRzlRB7DikOa3pWD7grGAUM7AacNicnXQJGKOLInQG/oCpBHYkIrdv4HCLfw7NeRQ76zabFmYdAFnf4bgyK+GQQF/IakTipT8wsmzyMg8ZWsyBsaxL1Th36isBA6BlUBxXn+fXjFIG8ylmQ5YWbFCt3d5qRnqBGoJMyA/VNsq6gj9j9llLFv6O1cX8pi5SmVNZ22J+BqRHU+ax0dhZKIDZrQASilX5tXUqJ/ciUGHSNxxKIeJQPPY7P7BQbCucGjgIPVJipxotq4ctAyyIYQjMULBQNi4r0r10HJ5hwqAMtXECc/qQQ5mr6+kBOAO1GHqwGaEMyDZ46HBUmY6Yf+Hq0mPLZgpOnZPCv0LJjVWKzkH2CC4VrJDoBMk5ZNllHDE0wV5j2bMN6RjdKzv7DCUWCfaoilcNOrtuq9dks6+cCFCb9CoBOMARpemZrZTNRWbxjmSDtrOuIKSMIloSVj+iBRIjfyProjSE1tFtFhtimyu88nuSs8zC2jgTseTAbbKEQk4vbbF9epXWWZuSwwjVVhJlaLAduG6GMoh9XcZCI6TB0ljcOPgZwCzbs94ZOE/UiCwMpEqY3pRBjboNNYAmsCOYLPKnZMrzp8u+VcJSBmk+lw4IrGR0beBGz+Ht2QgdkWjK+tZSeuclw5aaV2YhMFQRwCYAKYSvglZC4EIbVDeGDBMMNUQmaf+Kbze616zOUDKsIPTNKm9QCpDtmi7WsDLxG3sO7IuFjGrQhIoMFgS0GAbLTKmfgxqBSDIc1GMZqp1Hs48tBEcD97ccqiPt1LhCybBTdXawnvoINB1sTFUJgWGCAGZhooMQHBKxEI1jYUDRzkLBzTSUytWhjDrb4jCsjbjnmIJxLy8TC8GET5yRwxCc4TZkLYbhNuMarxAQAoUI4PDFXST8xj3gU2E2JQ4WBCQZDpaZUj8HEwJYC+kuN1v4zVWQwsdR2hwPLqA8eM3NGbxAET65tMNFJgv90mbNfVi8407vzcbIzQ0KYjAs6w+eXdyxsViCzZpQqcGCgBbDYJkp9XNoIFBGdYfG6Ab7KHDuvfTSS9GG20vgg304vel/3y7pEb0Zv1oRAsMKASIKEjCACBCEkeA+dBqAu300CLhCnGXq4a4FHuo4JxBQpP1q+6oGrglZf7g8UHFNqGd9JjwDOlECDxIpHlGcf7mgyw0KboRyq4pzkYDmxE/y58J71jE11HsEtBh6j7laHIYIhKfAMBz+IBoy14yJ1IKGmtiB/qbAIOp/L7tqqxrGppeN5rele4b5WCmnEGgBAaQ1ohZxdT4N5dJCLeVZibfpb4ghnxAejRi85dkH3xfCV8B8EyKcrhNZh9BntXfWuz1Igs1wk9OfNg2bQ3Dlhuf2229fe1G+251U/b1BQIuhNzirleGMAHo3XjexUPAcpoTr8OjowxmWfh47nA+P2RBss587ObB9u/LKK3kfjj7AHBKSgJgUA9uftHVJhikmShECgwAB4lnxRh+eG8S2sXcmBkGns7uI/ZO3E4j05SVwlEUlSdzw7Dq6ldHeK+MqKZHWCJGHtZYIYzwwYI9xdatV1duXCGgx9OW0qFNDAQEcNHjZK3xCnZcJCJ3Nmzf+5OZQGKfGMGwQQJ/Iqz9EJQ1HjLKD4K7hC08DjockwwGfAnVACAgBISAEhIAQEAJCQAgIASEwwAgoAs0AT4CaFwJCQAgIASEgBISAEBACQkAIDDgCkgwHfArUASEgBISAEBACQkAICAEhIASEwAAjIMlwgCdAzQsBISAEhIAQEAJCQAgIASEgBAYcAUmGAz4F6oAQEAJCQAgIASEgBISAEBACQmCAERhSkiFhfwYYTjUvBISAEBACQkAICAEhIASEgBAYhAgMHcmQV78nmWSShRZa6PPPP+/NRJx33nm8at2bttSKEBACQkAICAEhIASEgBAQAkKgewgMHcnw7LPP/vTTT++5554HH3ywe3iFNa+zzjqvvfYaj5B88sknvWlRrQgBISAEhIAQEAJCQAgIASEgBLqBwNCRDHnse+qpp+a9SJ7D7gZShXXut99+Cy+8MI1+9tlnhRmUKASEgBAQAkJACAgBISAEhIAQ6H8E9NJ9B+Zo7bXXHm200c4666wO1KUqhIAQEAJCQAgIASEgBISAEBACPUdAkmEHIH/11VdnmGGGY489dpNNNulAdapCCAgBISAEhIAQEAJCQAgIASHQWwSGjjdpb3H7/7U2xRRTrL/++ttuu+1TTz01gN1Q00JACAgBISAEhIAQEAJCQAgIgWYI9Ltk+Oabb3p8lzfeeOP+++//8MMPK4bK1/feey/NQHAaLHuWTvDShx566IUXXkizRSn/+c9/yEnZ2pxrrrnmxx9/vO+++9bmVAYhIASEgBAQAkJACAgBISAEhEC/IdCnkiHS4MUXX7zWWmtNNdVUzz777NNPP73SSitNPvnkCyywwAQTTLDUUks988wzIZRffPHFFVdcgeGOPLfffrt/Qlq77LLLNtpoI9JPOeUU0k8++eRppplm3nnn/da3vjXbbLM98sgjhVNy4YUXzjLLLOutt96WW2453njjzT333Lvsssv5559/xx133HnnnS+++GJUavHFFx911FEvuOCCxx57rLBCJQoBISAEhIAQEAJCQAgIASEgBPoWgX68Z3jNNdfss88+CGBff/01wCHR7bjjjrPPPvukk056yy23vP322yRONNFEV111Fa8X8jcC2zHHHHPrrbcayqQjRvL3V199tf322yMxPvfcc/xLnc8///zDDz+83HLLYYokYAzy5HTTTYeQSfyYcIb22GOPgw8++KKLLuJFCtKpcLXVViMzf48YMYLf9GfkyJFhEf4mJup999236667pp+inPpXCAgBISAEhIAQEAJCQAgIASHQXwggffXnzzbbbGNIzTnnnLh0WidxBMWOZ+mLLLJI2HMEP0tHkAvT3bo4zjjjHHnkkf6JgDGWnwfrw/w33njjKKOMMvPMM4eJm2++uWV+4oknyuDadNNNyTP//POXZVC6EBACQkAICAEhIASEgBAQAkKgPxHoU29SRCyifZowdvTRR+PMaX9jsjvjjDPmm28+/sWoeOWVV1o6v+eZZx7/O/xjyimntH95mB4Ton/iqQn7O/L/PPPMM5kqfE3DSvBHtX8RO8P08O+JJ56Yfx944IF33nmnLI/ShYAQEAJCQAgIASEgBISAEBACfYhA/0qGXNszvLgiGAJHupsTcS71T+bnmULs9Yw55pjh10kmmcScSF966aUw/d577+Xft956K0zEbdUyexibtCEuQJKIVPnKK6+kX5UiBISAEBACQkAICAEhIASEgBDoWwT6VzKsgGzVVVe1r22+EmFCI9cRw7YskRuJyHieTuL000/Pv27JTLs34YQTWiIRTdOvShECQkAICAEhIASEgBAQAkJACPQtAoNSMpxssslGH310MO2GdW6ZZZahZkLUXHvtteG08RgG9w+53Fg2l2OPPbZ9ev/998vyKF0ICAEhIASEgBAQAkJACAgBIdCHCAxKyRAJDeEQNN1M10Fkd9ttt1lnnZUK99xzT5fxrrvuutdff3333XfnuYuytt599137RNzUsjxKFwJCQAgIASEgBISAEBACQkAI9CEC/32DYTD+mMfmHHPM0fHOc//w5ptv3mGHHc4++2xeKVx33XV5FPH0008//PDDt9tuu4rm/GqihaKpyKlPQkAICAEhIASEgBAQAkJACAiBvkJgUEqGmO8++eQTcFx55ZW7gSbCIWFvdtppJ14+RAQlTimvFI477rjVbZlkiE9pFNe0upS+CgEhIASEgBAQAkJACAgBISAEBhyBQSkZXn755QC37LLL2p1AA9EDxoSRY6rxLcu5xRZbzDXXXNtuu2118egrVxNJWWKJJSyKqX/96KOPxhprrJaqUmYhIASEgBAQAkJACAgBISAEhEAvERgE9wyjVyW+/PLLY445hquGhxxySIgUApj9a+ZE//Tpp5/a35Ec+MUXX3z22Wd8osKwHio/6aSTqL/VZwkfeeQR6onMmHiljjPOON/97nejXvVyjtWWEBACQkAICAEhIASEgBAQAkKgGoFBIBluvvnmt912mw0DWW6DDTZ4/PHHee/+O9/5Tji2Bx980P6NXq5/8sknLT2SMMlvsuIzzzwT1nPXXXfxLwZDwtuMMcYYk046KS9VzD333EsuueRmm212ww03FAL6wQcfPPzww+ONN97GG2/sGZAGjzrqKFrh3cWygoW1KVEICAEhIASEgBAQAkJACAgBIdBLBAaBZLjHHnusv/76uHeusMIKBHdBALvppptIcZhOO+20ddZZ57DDDrOU/ffff8MNN7zqqqv4d5999llzzTUt/dJLL+Xvyy67jH/Js/rqq1v67bffzgOJ119/vf273377EXjG/kYQ5Z4hbxtiD7z11ltPPvlkXFhHjhzpTfsfl1xyCUZI3FDHH398TxxzzDFXXHFF/qXb88wzT1pKKUJACAgBISAEhIAQEAJCQAgIgX5AYJSyu3YD3jmsbb/61a/oBlLZLLPM8sQTT/B6Ic/N25MS3esej09ssskmJuO9/PLL+JRiD/zwww/5/cYbb9x4443YGBEXQwnwq6++WnjhhSn4wAMP+KuG1kNcVTF4Lrjggrpq2L0pU81CQAgIASEgBISAEBACQkAItInA4IhAQ0wX/Dn5aXO0tcWR/YhHisPq8ssvT+aFFlooKoKkt/TSSz/11FPhJ+4l4puKJTMSCyk76qijcsmwtl1lEAJCQAgIASEgBISAEBACQkAIDCACg8CbtJfo4KSKiZI3DMsaRdIbMWJE+I4idsW99977zDPPXGyxxcpKKV0ICAEhIASEgBAQAkJACAgBIdDPCAwCybBn/q48O3H11VczW1wpLJszzIMLLLCA2wZ5WXGVVVYhSioXHcuKKF0ICAEhIASEgBAQAkJACAgBIdDnCPSvN6m/QsEFv96ASJyYGWec8dlnn8Wb9M4771xrrbVmnnlmIpRy1fC1117juuB555037bTTEvDG+sPVx6233vr444/nDcPe9FCtCAEhIASEgBAQAkJACAgBISAEuoFAn0agee+993gY0B6r2GabbY444gh8OLsx/qhOhL011ljDH7oIv3K98KCDDgpdRu+///6ZZppp3HHH7UHH1IQQEAJCQAgIASEgBISAEBACQqB7CPSjZHjOOeece+654dPwSF+EJEUw6x4QXjOBRvEpvfLKK1988UUE1EkmmYQHMwhIo2uEPQBfTQgBISAEhIAQEAJCQAgIASEwIAj0o2Q4IECoUSEgBISAEBACQkAICAEhIASEwLBFYBBEoBm2c6OBCwEhIASEgBAQAkJACAgBISAEeoOAJMPe4KxWhIAQEAJCQAgIASEgBISAEBAC/YuAJMP+nRv1TAgIASEgBISAEBACQkAICAEh0BsEJBn2Bme1IgSEgBAQAkJACAgBISAEhIAQ6F8EJBn279yoZ0JACAgBISAEhIAQEAJCQAgIgd4gIMmwNzirFSEgBISAEBACQkAICAEhIASEQP8iIMmwf+dGPRMCQkAICAEhIASEgBAQAkJACPQGAUmGvcFZrQgBISAEhIAQEAJCQAgIASEgBPoXAUmG/Ts36pkQEAJCQAgIASEgBISAEBACQqA3CEgy7A3OakUICAEhIASEgBAQAkJACAgBIdC/CEgy7N+5Uc+EgBAQAkJACAgBISAEhIAQEAK9QUCSYW9wVitCQAgIASEgBISAEBACQkAICIH+RUCSYf/OjXomBISAEBACQkAICAEhIASEgBDoDQKSDHuDs1oRAkJACAgBISAEhIAQEAJCQAj0LwKSDPt3btQzISAEhIAQEAJCQAgIASEgBIRAbxCQZNgbnNWKEBACQkAICAEhIASEgBAQAkKgfxGQZNhfc/Pxxx9/9dVX/dWn7N588MEH2Xl7l7FZrz788MPedbELLTUbdRc6oioLEOjl7Hz66adffPFFQScqkwY1IaocWRc/QrrBrYsN9EfVg5029geKw6sXvaR4zZDt/x42G5dKCYEGCORKhq+88sqOO+649NJLTzPNNEssscROO+30xhtvNGiv/SIPP/zwaqut1n49fVXDm2++ec4556y99tqTTjopUPdV36o7AzN011137bvvvnPPPfe2225bnbn3X0899dRJJplkoYUW+vzzz3Naf+65544++ujllltuwQUXzMnfn3k23XTT8ccff7vttuvP7g3PXg3ITnnggQemnXba6aab7vHHH8+BffASopzRdSkPsvff//73rbfemsPxoosu6lIr/VDtJ598Ap2fbLLJzj777H7oj/owKBBo9RTu2aAGhCb3bHRqSAg0R+DrjJ/TTz99vPHGo41vfvOb3hKs53333ZdRusNZNttsM/pw5513drjegavupptuWmmllUaMGGHYvvTSSwPXl9Za/uijjzbeeOOZZprJer7RRhu1Vr77uZHxrG933313bWt/+MMfkCEtP4Oqzd+fGT777LMxxhiDUYw77rhffvllf3ZyuPVqoHbKb37zG1vPhx56aC3mg5cQ1Q6texlefvllNHoTTDCB4XzWWWd1r60Br5kVYsP8wQ9+MOCdUQcGCwItncI9G9RA0eSeDVANCYHGCNTbDP/2t7/tvPPOBx544Ntvv81e+te//rXVVltxPLz77ruciDRsR0Vvfr/zzjscvbR11FFH9abFHrTy3e9+96qrrvrFL37Rg7Y62wSaAtSBSOmdrbaDtWE3m3rqqX/84x/n2ABROmD/nGWWWTrYgd5XNdpoo+22227o9ffcc89vfKN+g/e+h8OwxYHaKeussw5GHhb/T37yk1rYBy8hqh1a9zJMNdVU55133vHHH9+9Jvqn5sUWWwyZEBP0Ntts0z+9Uk/6HIGWTuGejWWgaHLPBqiGhEBjBGoYR25N7LHHHtdddx2uMqYWxWHmuOOOW2+99Wjy6aeffvLJJxu33aDgaaedhnRKwQsvvBBlbU4Nr7766p/+9KecnAObZ8oppxzYDjRufaKJJjIjVeMaulfwhz/8ITbYv/zlL6OMMkrayrXXXnvvvfdG6YN3Inwg+++//2uvvbb77runQyYF89HgvctaOKLBktj7nTLzzDM/9NBD99xzz/TTT5+iVEgbh8D6T0fawRT2zu9///uowmECGo4taIpfeOGF73//+x2EtKKqQhJdkV+f+hCB6lM4s8OF+y6zbEW23tPkis7okxDoEwRqJEO0ofgjoXWOuusGrn/+8589Gwn2SYTSySefnBa5NsbftU0TegGt+TPPPFObc8AzFIouA96rzA4Mxs6jWfjZz36GFToa42AcS+Y0ke3qq69GYuyxqb+iexAQNMq33HJLRZ6h9Kl/VlcZbeyfHvbnvO+zzz6XXHLJsCIaAzURZSR6oPqjdgcQgcJ915H+iOJ1BEZVMpQQqJEMifXyox/9KB3wxBNPTCI7avbZZ0+/dinlyiuvRFt58cUX25U8boWZ/bCiOZjgG2+8sSKDPg1PBNAs4F/3+uuvD6vhs32w9veJwZBQUuuvvz5GLa4r4/s6rCaiHwYr2thgFi677DIuVjQoqCKtIjA8SXSrKA2T/Np3w2SiNcw+QaBGMiSuY2FHYeZIh7H71re+VZihG4nHHnssbgmLLrroGmusQf1vvfXWmWeeWdEQouNhhx1WkaH6EzFCH330UWJ4VGcjmt/999+fGakV1pw6MyObI7eAM/VXdyD9Sqw8/MQsnfMVdzLaTbNFKXhd4nX2xBNPEICuNjOmNkb973//uzanZcgEM7O2VrMRZv29997zUswpRu/bb789sx7sWsR4zJy1sE7mzsFkhYBYBwO+c9HXNCMYAB977DH+jYbDGghtg//5z39WX331BsspE6X8bLfeeisqp3nnnZfO4KmOwXDA73ayTZ599ln2ZvUDD+E+YkkzobWrotWdkg9jfk50AZESpCXa2JgQ0S5UxfvJ3zhvc1896jkpIAk9rx4R2xbvD0JJEUC4WrtRuzVoiEBN6CbYFNWNhl9peoMNNsi0t7///vsPPvjgiy++WF0/BOGRRx6BwlRUy6ewHi5xsN9rD6bqdtv8WhhAu0E/WRLsqXTsmSS6e+hBB6AGrLRqggCMOUcbhJrgwM3eRQAcbKc5Z0cZmOFc5+Qhv3UYfiDziCc/R2ThqvDWo1M47FU1+c3cd9AEtsbzzz9fu7YzaTLDaYk+1LarDEJg0CAA3Wn1B2YXU+GKK64IV9Rq2cb52fOYKOEjqeGGG24wfOkG5KCwTqLm+BxwC45LkvwQYqQwc5jIoPbee+8pppiCBySoYayxxoKfNiY7zAYI3NfC4kFY0R122GGeeebhqsmJJ55YWD/0hYcEuLi/7LLL4ppLXBA4Y8humHm//fazDkO7YYBWWGEFd3KgFESqsOYwEep86aWXbrjhhoSN/e1vf8unk046ya0xs846K5xQYSWnnHIKA2EIa6655gwzzMDN7HXXXTcdspXlqKDzxKplASy55JJzzDHH9ddfP+aYY9L5NDZpJphpr4hyZFPGb/pGgAfyEOpmvvnm8/Q555yTC3Ve9ne/+x3BZvhKIA1L5Ly5/PLLcRkde+yxifFjiXCExFHwtcEnq/CMM86wDMssswxfLTYppdwqPuqooxJ3geJpb6MURv3Xv/4VMEcffXTYvqeeegqsbDYxd9M9FrMXYbExQOvDr3/9a0uHU0R2ZS4snb89PzwTu4BZZppYQkSEsuA6LPJ//OMfZIMt5jru8ssvzzJjlVpB7gMTKsNHzQqxmmF9WCp8clThfR0ryrI2qJ+vdNJ2X+3wKzIwHQyfjv30pz+F16nIWf0JzhjfAXzdK36uuOKK6krsKxgSoIjRbbHFFoydgK7f+973ou0Geocccsh3vvMdpo9SsOmrrrqqTyg3sQtjwLa0U6KuMoPsXJsU/Oe33HJLMiA7QW18pljtEDQSrSxLbq655uLrt7/9bZM0SGd0UCdIk7kQW85q2tg+IWKPsBRxEoaKoj2kUTRcvHhky48ISb7OUVpxY83jJEFpIWIRFPzLhtpll10YL4sH5SBjhDhTCSqwMHPt1rDMkBEeXqIGo1rsMtBOG41S/vznP1t+RgEpsFmA+lk2P5IIkIZMyLx4ZpSnhZG0uSq/yCKLsKh+9atfAQIUlRUYkheGgw6FgXNwsJ1p6Oabb2aKDUa2MDXUdtsyoILZddddiSON7cWLsPehmT//+c8ha9zEzqkKKe7ggw/mCEM/6/kb9JNTGz0v+iCaZoDUxlHCvrM6a0k02bqHHqck5JpZY68RVQEGgN2Xnr+ZRxukfuWVV2b6WK5AzZCp3M+aaswRCLfffnt6wnFMoAd2MYcRCs2oVDWYljknj+WE/eDkoq1VVlmFbkPx6DOPlJR1Fc9qdHxwF4yLNUlBjOrhMi48hb22WvJbve+sHoDi0hBmDHYlu4M/eGKt8KTOp8mcLGxzTtXwNCwDQelCYIgh8H9aHQ/HHm548NaFG6/V2vLzc3xCFj2/H5Bl+5Z+enQcOCG0RPygtapuEbvBjDPOCG9kQi8UhxMLWgOLA4vvZeFIIPekcz/eEiF/9uDBEUccETXBYYzzLaeLI2bBXTlyOPg9szNkXPGHF4QukwIDanyAcQYVned45pSFKbT8OOVzDs0///y8PInAZv63cBjRrMExIOZB0Ll+ZpVTD6wkldBneM2oRbR3SBEEoQZe+wRl9+gLkWSYCWbZoGATbSwIJ54HnD3KaCRak4eYnKCKiYO/oezwf1YDv8N1wkqgTvuEgGFrw7nKGg0oAAAgAElEQVRMlwwJuwp3jmDJa41IpJbfRO6yPpMOkjA6LtXTEPCSAs4TTjihVcKtd4KgeiUeC56FGtYM62b5OfYsnbUUirXw38jzs802m2WD+aOrCDk+apcMwY1hwhraJ1QVNmoTaVAoWDqLPx0aZzPDue2229JPmSno3Xmuk64iKqMiQVTOLJhmQxDKj34RgpxWRQqTBQeP0OKinV0hI14L+FgRpFlER7gEIGIfsWeRJQjLjKzlVAgTXFR/SzulsG+HH364TYrZqTwPzKKlEwclKoi/PZ8gIKQjjHERADHMMoeSYTVtbJMQ0TTbkAVv7cLUsmUACgJOQGnfkogiyGOs1c033/yYY45hVdiWgTZGg8LyBuVHBnNxF92HkWVEFAw7lr92a1g2NggaJXtvCXYZHt3kUohn4Sx4IicCS8I2F6Oz7UNPLINLhgg8MMpsUvQFDM3wZ+M7wbT89pqIS8gkGtVF7vUWjzzySBsmSEL/uVePkECdIGm+PPQcFUl1t/nK2ua0QqpEhUdVqC8Z+F577YW+iRQGAhlhY/7yl7+sqAq77iabbGK3SKgklAwb9BNfHvadK8g4lTjpkNW9A/SqgkR3Dz1qRlfoJw6Ey4IsMO92rFgPM482iBVnLmvbx8UsQEmYygqo7RPqJ6YbUQdnE0tBZhtnnHHALSLFtWBSPCcP2S644ALWKuTOFTQsMIvsADFxkmj9IQ/eW/ADrvhATclCYnmQbnkqTmEy5JDf6n1HJWx8BHgOKSaLf++44w5jSBZeeOGI32uJJvstqoj82rj0WwgMbQRakAw5YHjG1/2+0BIVqkK7gRduGLDXHLpeOcebcR4o9spadI/K8AAuy0w6bDRMNgqzMA/ipbEsrtHkq3PSEGvPjFWBLqHYDotDpyDlztnbJ3/mwQko6c6QwUCHUqiFgaVm54EqhuCxdjhCOLA9J9AZXFDqsDgafdLNIhemIw6RHh7efOVoRLGNkBzp9f1x51AyzAezbDju7YlVLcyDttjGwuvSUVmwiszCSMiWOdIggIOlu2zvVZlkiISJcO4GGc4nk7qRFcs6HKZ7VHfYUAwj9gnxzGcTc4Hnd5eVSDIkA/NIP6P1Y096kg6fjQ8PfB7bgWjyZhPmgMTIbKNzydDawihh6XaIhh3mHOUTXIszIv4VZhRMckad5gE3+gZ0DAQ9LqqWNE9+CtI7NhaYLZhjthtGe7gWBCT7YQhITf4vvEKZQ4G3uMACCzDqkHXjE6whidjbw47ZToEULL744ub/xldGxzvyZIZuhJlb2illw4etMVWC28AtJ2pvU/Qge0Rl6TNkORw1Zl6b8VAypFQFbewIIWKBQbFpmq4yU6x86yqImVQDGUFXElISJBPyQ2FCfo78WO+BPSSJVIVIZsZ8JMbQcli9NQhSjTTFlglx8y2JgqZsLjzdtDAIbFFOlwyhDyw8/8qMGP6hMABVMUVD+PghWgzLGelN4HpJhxyxAh0udrqdSuzo2j6j/ELgIZs5RiLkYICKzKSmb+Kwq64N2cBeNg4lQyuS30/WJ2sDrWXYFoIQ+rIwpYxEdw89Tkygjhx/Ro4cafPi52n+0WaXWVA2heNiiaL0qcaZr1BL2o2e1eVIIpEV68VzwMzJQ4UIgSgymMfIFM/5ZQbwiE7CvbCbIrbENOZ0MtxlZadwPvkt23f0ma2BainE0zfdAQcc4Omt0mTU4hgMObbYPrWTpQxCYIghkCsZwgyhROEwdiU0mx9/Nrzne4AIxBovL66KeVsmKxrJLhOZKrifwj4fffTRVIiJIPrq/oTOnZg6EyhCl0vOWuuP9xOKjIEL6snlvahOdMBkxpHG050hixgXRBqrFn1eYbfDRL/GFhFxvwYJjfb8qIqpmZM+kh/IgIRpnAfmQc8PP0F+lO5RN+BXTO8eSob5YFYMCiGZFpErQmaXc8ucRiJlHt1gLFxkCiuESzP0WpUM4VwjWPwRiFB5XNZ5v+BqHp6eDebMzY/u7gi/ZZ1MJUMbaSQZupyfGqitIZdL8yVDbDjWB2MivcOo8+HYYKnLRlqWDu8OUwWM2BlY21iny3LmpzMu3GhdckDDEupWELZTsba6cpPrtt122zCbPfAAZxYmslUNn1AZRAbbFDD6oTW+pZ1S0UMcMmmUnejmMstsDCISciT6QlVYeGGFrnRoIBm2Q4jog5vXogGymA3JyF8d+mbpoZux8ZQ4qqUouU0pdCmv2BoImajt8OyIqjr//POt3bXWWittJUop41BdMgz1cZSl0dQW6tQ19OFkiq0bqB3DRs0VBTCjnqByIv9SSy1V22dMQKbL8CtYqaoUGzi1oeOrrc3s5KlkmN9P6wZsN3bIsDnMhuG/ZZJhl9BD4YJKiL0fudUgiGLM5IDzeck/2jgQQRUTejgunA7wt6zFmdONslgsw5xQPxIRqDwxB8ycPFRo/t6FfbPOsJJZ59a0+VaEMqqlY4WGGMKthf63ZadwPvkt23fmzeGme+uDM35MnFPIBjSZ0yTkOWunTBmEwJBBYISdRrW/4ULMNASvidM5vig8mMaxh/LeRZfaShpn4Ly3K0BeA0Qc1zhT8kGp3YTYuAkK4lnEb4Z5zTXXhPWg8LZ/MQDaeYxJDRxQz5ujRdQoZwmUkUTOAAQVfM/IGeUBNHwFQ8c/zxBF/THqyVdY0qiS9F9TRZPut1wsD3UixzKQsBLjouhD+hohXoXYSLGnYXPAmwv/KHS6uMxRW+rLh4IAHxIACfuTD2Y6Ck/BjADXDlCo8/2eEm3RH0LOwlehiTeoKQKHh4bV1JBeg1lXKpoo+4SyMIIlnAi7g1pWlnSfiGiFkI54g9xOHiKvuIa1oqr0kw8K+1X6lZQGo0bEwh0AewWrAinI1w+GWVglDOmFDRUmIjnjN2hTg4MrOnKzwhVmzk9k98EU4jvko2PG3TqKvoC1XRYxq6wVuD1WuDvZhtnYxeG/ZTvLPJfwp4AdsRXS6k4p6xvprH+IG4cNkjkaGc8JF45agYbgw9DdWDqiBSvq3HPPDStssBK8eDuEiEoMsbQDviNSGmVNO2PHv1gD+J0+m0QiEiYemLBuLDZEHVNOVWwNdDSYrFG1mN+mD9OFZxZYCF2zvyPQGCMpsJgh4YW6YpFAV4LvaNpK4cJLSTQLD5Vo7aFgNJ/jm4Y4j/iNojNcS9YBdJf8kbaSdi+dUMtj053WkPYTsyqZ2bDcpccgg7huNaDnSptLU7qEHooGVE7cfw5137SO3R7fUZyB/Z52/tFmxAEvBvC3KyRUiHm2kG2IRoqlHcUodvUUgXCF5ICZkwfDoEVxL9xruI0Q7Q9CBMdlB7GJx3hsRd3DuwQ1BDZh83axr2VrJp/8piCQgkCIgEpD6Xpm38GQsO9gHlgwzWhyq6dJYSeVKAQGIwK5kqGPjS3HfQMcnPCoYePBOCIi5lC6xuigpsJY5xpErwdSC08AtYJSc5Per0A0awgOwwKuQo6dC7SqkH7tDzNh8TfnnxN6/uWERmpCjrJs5rTD33btB3El7RJNFIqFaU4/a2HQ06/5KbQIl4AKzYuAKn/7LcGoKubXRsTVCCQxxmLjMiajut2WwKyoCgcqRAsUENhjXTJEeoEDhhHESIhnqT+tyRRwgFXU1uanTk2E3x1lIG12KVqo7dQGnlgskeKQ69hQ7pWHGghuKVO0g2XByAOPxSLBeIU2x66dtNMxL4tSBk7CmQw2PrOPhd8yYOBqcJBjv3UTLpwEoiZ1QtCo03dxdee9P76zWtop1ZVjn8E4g8Ry+umnA6xZn5BC+Zd26SF/uGSIDxVuHQ1AqO6Df+3U+o84b6/fl4qHz8WMY4FMC2kUXmSogTgdWHU4lfmdT6sw3Rp2yw5nuYgg86/fisyEoqVshltEvUOZkB3HlvGV3NLCC+l5Ya9YM8bE89UMm0jUEaeOAw5HGBn8CndhVc0Sra2wn2gSUXmgzOWiOLYgpHpkdWa/8KAsbLQb6FUc1igfXf/Y0tEGFUXchbBgsIKBQekGC8GMIKsUjitMxNvCI0VB69BrsEhMeAtXSA6YOXmMGaADhXuNDcKGgvLADJCHk9fuxhdOmYv6tWNsk/zSGboE45d2A2ncWmfs/NFBmlw7KGUQAkMAgZYlQxsz5gW8zoiqwr9+R7lLcJhpq/DwhmLSKJIDXBG3btrpAOpkO71gZz1SSG2FHOdIp9wUx7TFsWreI17KIoiYMru2qh5n4LhCFUqj7mgadcDujZBoKnxutliGHAm8GZgpAij4cfFCW4k7CsvA1JCIHGhS6T92VzhjkwxReXK2+ZWhtKr+SUGDCxsEp4i/Tf/0ip4Qsgjxg+kGYVg3OBhYRoSxfKcAWD3kc8RIgo5gZuzsynfmzEBDXmLjuzyAWsc8bxtAypBZXfDNGA+RDLm6lhP6vKyhlnZKWSWezkQwUvpD98xAitcl9hb4aXx03WyO0oeASe6QWVvtoMjg3GoOjYokw3SAhMcgEfcN8ytLM/Q+BarFXkMSxo8Agc3jh3WwJwhmeFlbhSYZuirBW8GWiLDBsu+qhjccFPISZhzs3lAY/JxZurgY2A2L/LF3Fr3Mw7qlow3GAKMo+hooFWIMigxYJtw1I1JWMWQKoqfjmMO7BNBgcvg7yp8DZm2e6r2GWIjEiIGatQqpYSuZI1VHKHxj8ms7Gq6gdkd3liZXzJc+CYGhgUDNe4YVg0SCMh122bFdUTb/E8QI2goPxGX99MeVapwr7vOZX3mYEzWY/esBIavr4bI+8T+I/EkUb+TSQh8Me7/Io8JUV9jjrxw5JgmX+SO58yS6efrmr5CFvl5lfW4VzLJ6SDfjFX4+xvWaRYubGxiu+cpxa/ItGmjEwtCDpaLOgf3ErkE4pA/5CojedBjjhpnHMWZajCV8dWAIcBDI7AD3wSjLRCBkwmhi6W1zV1a0i30PM7KRILLB2WQaNsM6US3htWUqZ9xKWVSmY65ot/ZTSzultjYugFnMD7/GjDqcacI8DtNvZnMqwTsRwdjt6rXVDooMfms6k0ZVD8qIUiZ5r66q/a94J6JGZGfB8RNLNny6o/3KC2vAAEssUIi5xZoK85jEaJG3Cst2PBHPIygMK9kOF3vXJ3xMpbrFbqCXeVi3erThb8mNEgvJi4ELDRQOOC6oVA8TyRmbKssDFgidHVbEwvw5YNbmydxrGPz58YcZ2+Rt2iS/NhdozcxCUAiOJXaWJlc0pE9CYGgg0FwyhA8zFWP4TlrHQSFsJgEw9txzTxxI0h9iDxh7jSbPbzk364OFnaBshYXEXWKIu4MiFp0lNsPoYlvYujmNQLnSx52bdbKDpeAj7VTGcoUJIq3Z7w1yT5KvPsvoetPMUUpLYFbXhlOrRQAyzph7RyCPAZk3LcxxjitYnGo4PboDZHWF/fDVrjYhO/VDZ8I+EOrQ5BDzxuGpicgMXtthVgt7ljWPphwnMbYARnVnp2qLZ2ZgxdI3v2RIKRQW0U3XnKoYL1oG5FiMnJ1yfG1pp9R2EjJrlnDMg3iy4VQGN0a3YRPtkqrZEDDVDqL1Xztqy+BuaWUmXJ9xjDO1dRpRQgqqWCe1zpm1reRkoAPIhBCuk08+2ePx5BRsJ4850yKipOvcfBTD3dROQ5llMUOhV8XhyBCAucd8SrTh2uJdQs8Oa6IfVXegwdHG+YUGk31qlIH7wGjQ2MvVDXGice8A5gfGptaWmwNmdZ7MvWbMgHvD2gWc6oFUfG2T/NpcgCTPeJS1Yju6szS5rC2lC4Ehg0BzyRD/Ewu1YkHJuoEIDCUcD/G4yq6mINuY7YjWK+6v16qUKI6YYWHWsUyi20uHw3jR35uLP5cMuf3M6V59YcACalFb2YGHsdHjH6QtdjUFY4tZGCCdfsUlbBFhm385Tsz7yIPocLO0tmMtgVlbm8dr4S4ZUgesPEXgb+whARgspgyzT7NLMjlro7aHLWXA7Gm8aU74mS51r6xatoA9HsBNTnTVXDRFamppdJYZVuaggw5CicBO4Q+OcAKId1A/gsEQV4WQlwXVHGt2OBYYYotv3qr0Ww1ISzuluir7ajMCMcRsDiWBnTJK5WZzbAs4BFrcwpwKwzxlK6HVerqRH6Wb6SkIQmuXP6NWjEbhR5qjnTTLMOYOD8Mb1caCR1TLGUiboBGzl7BeODjgKp/TXEfymGEwtSqjVsMJnCYIc9qRhmorQRdJHCnLBmUgZhK+CWbwt4BDUQ0R2l1Czw5rRB0e2SscAnSM9JaONn8+gdOW7UmYH6P5UKpqRTbSDh6SDJznQNOgPmH3csDMyeMWY/MWSRGwvYZMyyfUyias/vGPfyxkYIi2fcIJJ6SVhCkNyG+0Evx6Yephaw3hbmphujtOk6uHpq9CYLAj0FwyhIZyVwpFdUq5OmUigO4gfLrsV4i1P9HGM6YWe82z+T17PCcLy0aJdmpCvrkJEH2CJOHBhYxEndgrrKHIew0XFyvl9IvYaybTEgPAn6vymlH/w3l7xAgvFZG/svScEYV5omr55M8wWLC1qELwJIX7k3YGEAbTLhUgq6dKd6s8lKgzwcwZBcKJ6bkJUc3tRxeo7IYh4oc9Kl1YVRl6FWvDiqRwlVVV2G5FosnhSDV+GOPqY16RkezEujXVctqZivr5VNbVilF7hQQmNWMygjfMYk7AobLOwNazxjD4cCcZky9VUXlHblfCQeLmGhpdgQ6ftELrd1n37NUWvhZu5EzM02yt7pSy7nk6ApI5JkCXYKc8IBYvWNreZKbYGoWxZxqshLIiZem1/W+cgeVqHobo46KYq9RJf0ykwd6b04RLPixC9AhREdxAcNir1RHYDkoPlApw7FO4TmzhsevDa1rp8VE9qHThVec3yTAV/7C34PJNeCdzca+uxGD337WZC3PCHmAQC8viAGJnrgcf4msZseoSevYSDO3yXE2qhkCxZVSRDPlHG6ZCC/pqg+V6IXKXxbUOR5rCyMJG9Ux6LWnKATMnDz7GpgLG0xUNbNQlwo2iiaMzppblq8HFouVlnejKAEQYiuS3W8lcuDtaIr+F+w5h3hYt91RteYfd5uhErrZIgc1oMvxtZjiodAaVIgQGNQI1kiHkiZAMdpUrGifsOMeJvTfln5AZ2IRoQ/PvDJTBx+nLFSAu5ZsyrywbVjs3FkUsAp4YJphx6ltxqFsFRYZ/NQadQRES09l0hk94Roi1Ga8gc+aiAGnz2qiZQCnWip/x9M2C9KCX5TiBnTVXTGgW3no8fRHaEp2pjeQuF7NzYpN6JRHfAIGz4qHwBpdgFiFsDlGcTMZOLDU81vDXtUHBhdujRugIcW8LO8M7H9Zu6PSVCWbZtIbpsLy4JpKCH46fTPzL3U6zV3MycQYUVuXoRaj6nQ1fGyBg4NhYUum3pYnwzkRXpGiCZcAyY217HnQr5g6HKt1VsCwSFo/dnDR9ref34yrtpOXJH7UP3ytH2LAL/ez9wuccCnGuSIQDZiDccUKngMEZfyTuyBWSlIpKwk+ExWMzRgHTuR8ILOYXl1mP7wV/0Y6CaElsU/suttrKdpbfz/HaWt0pOb01syHrnz3owQPhlmz/slvLXEnLVkIFbewIIWJQxi+mAozzkZF85ekhNwYdthjOLB4fiyHGWuLSIBxqGKmyYmsgXSM/UxbdBD7qzkpSBNINfd57771TLWc0O0Y3WL3WWyadhU2eMtD4ZN0OCaYtFXY6V1utfr5aoDX+LVx4KYy28EJ6HnU1/BcCghMyO7HskmG+K6kNJ6U8hkBmPzHPRhoiu4kX+h+VkeguoYcwY2GKCdNKN7jaZ49DIBRx7kOZPcxJS0ebmw1tOtizJjJVe1r5tMJ9uYcz9xVt0UYrJAfMnDz445gGNnW/wgDIzPI4hMelc1EZlQ2GRHxMWBLkQQPOe1fs2fCWTSEVaon8Fu471jOBuAAWiPC8Rfno258zAvaG1W6BqRrQZNPa026q06/YaPokBIYIAmzmip/tt9+eceJSiC+EvZZLZggTjDiknPMmKuuX9OB9Oboqaq79hLWKptnSbPvqzGgcfTKit3rNLINqFkIGbwGxQB1YUZub0agQqRLRDj8lxoIMDL/oBf0cJQO8C16mkEK3NPJgETes7P0fSkVngMUlg6hB5cOe8KCcjQI/kzDdDXrRc+eFo3AqBrcUZjDlOvXTtzCdw89McPDrHNX2iflFfUgKtYWZmW733+AQ5YBE9YtODjbL3X2R1ogGZKUywSwcSJRo+kXEJxiy8JO5rMA3l1XC7BiqvGsS5kHusolAg4tpmrmDa+Sson7T6XKE4/MTFvHnMYh2U9acp9tLmzSNuxQWZkuHeWLjMPW2NsJKzFWJ/AT+4foN2w0BACcZD8mLbIy+2Yr4iynRs+ZeofN/3rR9cm6YNYkLLvb2CBbLxkpgy2Dx40SvHWlLGdjL8CiQDkgK6zl6Sz2zKtvvjoaVMtVAxUpIK3cxkg2OmoY9y+qF/zPMETVJ8dfP3aQQvsNOnf4GCYKKN9HqTkn7FqUgpaOwZ1IIfBV+MsE+fQbd86D0sfWP/0JUZxlt7AghosMWyweKERFwR5K+hV3yl+uBPUzH8ZJQ2IyCefftjykGJpVoltEmrd4aSHEeWIsKCbOMm5nZgoz3rZ0IYqEZnggS7GIixxgZ9/2O91pYCYemaRu5xwXbap9c3QYJwuTCooWy0QEzjNBDtK4QTzLDbdtFerRjSI9eM+kWIxpRFlJW220u5dJtZjzNaSJZdOik2SyF8wLyRVURcWipnxa2hI0TkhcIEcMP6VUZie4eepyS4Y0+Js4Uc+HhaDhkHm0sEgaF/O94AiBNYO2v5mrQ9Xh8Mi6tcIqx1FFemIYI/KFX/LALcsDMyWM9REdm/tu47Hqf4aksOFl0+GKpC6/5IFXa2mBmfalbJYWncEvkt2zfcaSGDtIQSXY0ai8gQn8dgtwqTXYyyFlcth2ULgSGKgL/NfRX/CDpebA+qAOnCGIA8hU8K2x0WhChwpyaIgkkzVmRAisQPuGN8gnNUGF++Gn0VXb02oENIWZLQ1gt/+233+6x7HlKCEpaWE+YCHEMb61AazAhMq4wD6TWg6RDHNEpogDmnPNACOjy/SCHeCHlhjQUcwc8ilcIiQwftIVdwMYCIcNLHutK6E/C0LiyXzYEdN7O94AJoo5xz1DVcEQcS+FZBfUkRgizBlB0GykXrz+oIbxd2hCJHEiuWacVWGdjF5DhsdmixW8VzLSVNIVOUn8qknGfAXxQpqZFOLcYCxKILQzOLUbHu0aeEwnWvbl4YgFGBBEx1HRir4ZFIz8KSMD0ZcaOwERTLTU5p0ifYSzQLHC0w2ewbCJ52/rDIjHzsvUWfppG+YSUAk/J+mGRsOM4pNHIWh5+s6gYI7peqwSU2CnhSYmzDWXDZe8RL5hEFkYZg0IHGGOKaqdS8LNCQgBSfvN3frVwJ/AfSAURm2JyBZ7n+VWRkxVr7DhgIl9x34lEvyEDeswC7nYsD8ec3YFDBASBeXTuga8wfIj0jmerO6W22yyPQt0QNLlQQYDEQpHwJQ/EGOzV3lBKGztCiEAAgjn//PM7YpA73OlpF/EDBYfvI2QbPPegpZjgWGweyp+tildnuCq4HAglZN7RxJGTgUDoIP7hGVS9NXzUEGpmLYzCwhbD4lGLv2XAN8QpPyqk/8vefYfpVxR5w1/XsOacMac1K+YELqsoigFFRcGEOYEYQBFRUFEBxYABc0DEBCYURcWIaUGMmHMOmHN8P/vUe/XTz0n3ucPM3Pf8av6Ya6ZPn+rqb1f3qeqqriYwVmlSFzqxLltSBJgEQQpxSVji0fWud71YkNlRteTYhpNZF31zOUCzCln/WZ51SJ6/DzvsMNV4aeoz1XJd2vQc5t/GKMploSiV7d5aQ4yIfg1TEA9C7Os7eG2jMJAsg9PyacR9jyyJkPTNskIabpQpGw0e2ku0CmuKngyu9lCK6FocmO6dn8IxegIPv5Hid/KHqUdi7XGQ5E6Cjb47dBAWDmZYiWJMrHi20kJ0jVrM5TFgjqlTWvcF96kiElQ4W4dmB1vLdl6neFhDapHApyGrZ+XwV3jM8hvttudd4YcV6jMdBm0MnMVB9oG2gjrVmozzmM7+6Ox7FiYCmxiBM+hbWQc7/6B8UzJszVqSrHHcEZ0HWsq7vuJh2tUGWyfl9SlkJdrmpyFRVsaz5AvBBqOUU5Fro67wbD0Skc8o4j0rV/zByr6j8NcSdFHqeySXKbQZqMt2XQEmLaO6Y5StsD7Y9TrbHiafKJW5Q1lrkdNMBI4vfbtmlEwEs+/Futxw+KwWPb48YhbOlnsGBcG9rCbqpp8xPIyvw9iO82B0PmxrhSOOmliOwneSgr9u+rCRupBVH3W8jZfbTrJ1IQnEEs85hTK8o+1XnMLisbR/33mJaLv+zCVmhEtfJFahXPbFA7eJOwHLDGscgCTATDjac630t99tl4CCMJvCJnLBmQYm1pFcTUutQX/amdJmr5TQjaw57XuouQ1tSM122cZsa+MAk2v6iBljpPBs9K2i7aVgfOu27ZBC0Ao2/Dlr07SJ44y9seB4LwZhu9rEEpuDwoMp1pHvUX0yzKTED64WOOVRtu1lneQzbJAVi8EMYOOZiRMZXlQF0MGfq5aNZ7mz2hBgi2Tn5Xh9S/SaoqdRhwvoDD6Fw0M8/GkDe3xJnSnAsA5O9fWnSlFdDBlJK7uxvNB2UixNkYZqDJhj6jQG16rom0XUJ36zvOiDYiNDzb5BHJCc8cvv8LzzXTNktmlMKJ+Ggekzfk0mnPad682dgY7ko0RgMyEw2TLcTL3NviQC64NAbRkO2Mzrw8y0rdjb5oGJFETTvjtDfXoYbbgkeJiBQr6SCCQCMyDAZcdvwy1mvZrh9XwlEUgEEoFEYPMhcKbN16XsUSKQCMyMgK1ZEUFceTNTmPbFedKfTttW1k8EEoGCQJz1Ws877hP8RCARSPvl9MkAACAASURBVAQSgSVHIC3DJR+gZG+1EZgYrb0M3RP+LQ5HoLiTLXJ4CKF0VmoZGEseEoFEYI0QEMzpokhxd+2rLNaoxSSbCCQCiUAisPwIpGW4/GOUHK4eAiVPt7MiS869o4yO4IYF62iNA7Huep7zfN2SdznZSwQSAelDnPdz3rick09MEoFEIBFIBBKBCfcZJkCJQCIwLQISD0jmFm+52EMCgGkprGf9+lo5ZqHEknV2vvXkJNtKBBKBdUNAthttSe69bi1mQ4lAIpAIJALLj0BmoFn+MUoOVwkBV4dJKy9SqzAtHb+UpOXGwiXsjGudXROMT0Gk9e2gS8hqspQIJAILQcC1Kxar/fbbry9H8UJaSSKJQCKQCCQCq4VAWoarNV7JbSKQCCQCiUAikAgkAolAIpAIJAKLRyCjSRePaVJMBBKBRCARSAQSgUQgEUgEEoFEYLUQSMtwtcYruU0EEoFEIBFIBBKBRCARSAQSgURg8QikZbh4TJNiIpAIJAKJQCKQCCQCiUAikAgkAquFQFqGqzVeyW0ikAgkAolAIpAIJAKJQCKQCCQCi0cgLcPFY5oUE4FEIBFIBBKBRCARSAQSgUQgEVgtBNIyXK3xSm4TgUQgEUgEEoFEIBFIBBKBRCARWDwCaRkuHtOkmAgkAolAIpAIJAKJQCKQCCQCicBqIZCW4WqNV3KbCCQCiUAikAgkAolAIpAIJAKJwOIRSMtw8ZgmxUQgEUgEEoFEIBFIBBKBRCARSARWC4G0DFdrvJLbRCARSAQSgUQgEUgEEoFEIBFIBBaPQFqGi8c0KSYCiUAikAgkAolAIpAIJAKJQCKwWgikZbha45XcJgKJQCKQCCQCiUAikAgkAolAIrB4BNIyXDymSTERSAQSgUQgEUgEEoFEIBFIBBKB1UIgLcPVGq/kNhFIBBKBRCARSAQSgUQgEUgEEoHFI5CW4eIxTYqJQCKQCCQCiUAikAgkAolAIpAIrBYCZ1otdpPbmRH4/e9/f85znnPm1xf74r/+9a8//elPZz/72RdLdo2o/fnPfz7zmc98xjOecY3oJ9mFIPCrX/3qL3/5y4UvfOF///fZN7z+8Ic/nOMc51gIP+tMZFETHIZE/UxnWtdPw0IWBEvKaaed9uMf//hnP/vZL3/5y/vd737nP//5R47C3/72N2+d97znXdHRH9nNrJYIJAKJQCKQCAwjMLsKNUx3/Z/6tB9wwAGf+cxnxjf9j3/84773ve/3vve98a+sXM1vfOMbhx9++H//939f+9rX3nDmf/GLX7z5zW++//3vf7GLXcwfG87PMAPf/OY3X/KSl+y0004XuMAFfvCDHwxXzqcbhYCJ/7SnPe2Wt7zlda97XXJlsKwDLI2p+PnWt771/Oc/3zRBZKoXl6TyK1/5ygte8ILXv/71oTEPS5/97GcveclLXupSl/ryl788D52R7y52QXjLW95iPd91112tMI973OPOcIYzjGHDJ+Mud7nLf/3Xf13ucpezd3bTm970S1/60pgXs04ikAgkAolAIrAJEaBCbYIf1t222277hje8Ydq+fPWrX6VOHX/88dO+uBL1acw3vOENQ2ovc5nLbCzPr3rVq25/+9v/x3/8R/Dz6le/emP5GW59n3322WabbcqE/853vjNcP59uCAJ///vft99++9ve9rZ2efzc8Y53jCH74Ac/OJ4f9r9FIF68whWuMP7F5anJpg3+/+d//mcerp7ylKcEnUMPPXQeOmPeXaMF4dhjj9WFrbfeegwP73//+4UDfOITn1D5pJNOitXp5je/+Zh3s04ikAgkAolAIrD5EPi3TdAlWrvt3re//e2z9eWHP/zhla985RNOOGG215f/rWtc4xpUpQ23DAOoo446aiUsw+D2gQ98YHCbluFyyvnLX/5yA/T6178+2Pvd737Hxrv85S//85//fFqGr3SlKyG1opbh2972tq222urOd77zP//5z2k7Xtf/2te+ZrngOF03gV/4gmA7zDg+6lGPmoiDrYRLX/rSxr3UtF11rnOd6+CDD574blZIBBKBRCARSAQ2JQIrH036k5/85Ba3uMUuu+xyhzvcIZT4aX9f/OIXf+Mb33jXu97185///LTvrkR9HVwePhmoy8PMRE7WmVvC/JrXvGYiVytUgU/mlFNOWTuGjzjiCMQvcpGLRBOiAT/96U9//etfF1o50GgnVyJRB15Z8kecpQKejznmmJEhlH3dueIVr2gZPPnkk5lMfXUWW77wKcZdjEN+v4l8ChX57ne/W4RH/fvc5z6/+c1vxAtMfHe2Cptvgs+GQ76VCCQCiUAisLQIrLxl6FsuouyJT3ziPBBf85rX3H333e92t7vJPzEPneV8d05lcbGdWq08LuvJLTG++93v7lzoYgHfQGq88bvtttuvf/3rNeIBfTYM4o1hGhb4Pq6G31qjLiTZxU6xv/71rx//+McNZR0K3gcyR+u0wtNHakz55pvgY3qddRKBRCARSARWC4HVtgxf9KIXiQJ1Nmb+LJd77bUXpXzPPfdcrfFLbjcNAo9//OM//OEPb5ruSIXCDy/f49r1SNqYaYmvA1fTspT1F4jAJz/5SRlKr3Wta43JSjqD/MzD6iab4PNAke8mAolAIpAILC0CK2wZ0gCe/OQny1C/4447DuBLF5RkUro5W7YD1URPXe9613PORN7zgWrjH4lK+uMf/6i+KGQ0/dt4Vzn3xamnnjrsqDz99NPlo493f/vb38qkp2SYDbcsaNGRIYeOhmvGUxne5SQURTbRvSP4qhB0SYBAwXbSTuMCbeeUxjS9RnUgL7liwa2vFfiIPJyTVYPyuc99Tq/7WinluIKzrPrtmpKgPPvZz26Xr1tJIMYF96Mf/Wj+Rp3gcmeAxB4zkyJXmPnKV75CmPuIOFXY96izfFquvv3tbxuviSPLT/WFL3xBms3ORscUjuksOlYw5yeDoJxb3//+9xvErSSksa9Fr5uYY8bXvOg06V1oIR4y6FtXrRj1gtDZLpa++MUvQtJy11lhsYURSirR6BiyI+Vn5AQf7unCJ3gZRxPEQHTmpB3DuUlhDZxHesdAnXUSgUQgEUgEVgaB1T09+eIXvxjKEk70dYFmKSWDkzMPechD7nWve0kt4EQivbyv/mMf+1gERfT1VRhT7kN74okninE929nOhgHaW+TBl/XuAx/4QFBgED7ykY90wOYe97jHwx/+cAecrnKVq0R+vNLET3/601e84hWSLkqd97GPfYziLqfCWc961hAsxjBzrs0P1U01t3JJSXqb29xG9nko3epWt/JWZwYakVc3utGNPAIUPpnZorDa6Q3px0996lOvfvWrX+ISl9Ao7VAHMRbM3O52t6MVKadePOhBDyoXgsnrwyZvMGlTP94quUl1TcwhnuPHqUieWzljy4t77703u93Tm9zkJqBr97ouoeXouDsMBBjf+973ll5C91/72tc23kLHQDuNhix+/PHoRz+ait+o9sxnPjO47UzI8brXvY50XehCFxIR5weAn/rUpzrZkx6JH+M///M/MXOe85zHiD/96U8vzYXgRUPkJHCAZCepUmiDwIEoUdDveMc7opB2CNUHPOABD37wgz/ykY8Mv16eMkt23nlnLBE2uLnIDmjygtSvA/BmN7tZMEbtLo8e8YhH6HWUl0we+nXjG984uuM3eYgK7VHo5JDYQ1WAN64ue9nLmkemCZGrK8s8iWaRNMcLowm/bcF0kp3IVZgTkYHmPe95jykZXTCyutmWDa0YbpccEICYmLiVb7Oz9b7CMZ31LuPKNQwXvehFn/WsZ5njVjO8iZmUbcVT4/6ud73LJAIIztttMfPc5WA+Oo7ovkcXeziV/bznPc+KZD76sWrFW5YsCwhh4OAqdMxQMmbKE91o8aUvfSk6gQ+pZhi3G3UtjVXIdptwjB122OHc5z63dbgNY3tBaJPqKzHWL3zhC+1BmCwx9WIQ3/rWt/a9otyp8pCWCGQl8EV49t133/rFkRN8Yk/7JripZ/2HZDBQxk4gjJPz5CrKXUlSuLLbdfTRR1tGfM4U+tbE+ViVbdWVamM4h56V1rpEtLBxtatdzTApGYAuHyUCiUAikAhsegRWODdpJJrfb7/9OgfJx5W6Jg9BUXpo51QZNgbPWOcrtB8VKAp9ymXnW3XhO9/5zlonpnhRcClkoULR41W22c8S88kv6RPpB1Rb3LLTghrzhsZPD4sXaR4ULNoAxeXWt751FFKXG/wwJqnvjLdiVtGnlcQBqoZlyC3whCc8QWcZP4XOm970JtqSwic96UmlkPLqTr+4PRxxMNIF3RhGs7znPe8ZzOyxxx78h8qZW895znMMCsXFo6te9aoNJvsUQYZZkEK5jTPVnP7UN3ClPmuZMcw0KiUf/ehH9Yj6WNM0TDri9jNeFOVYCu3qBje4QZi4pXKfZWifnv1Jzw6LhVuJaoX/s5zlLCVPZhChVUOPuVuMRpsFqqmsPOrwXRiy6D4lUjf9NDhpYEKqMaB34SRh/yNLQuTq9Ae9UHx1EafGu/W/Rvx85zuffQF8Rjlvc+TkuNOd7lQDTiWl3GOSKNYUmCUyAytnt5RyLxKb6JHTXNEjJs0AJx6xdd1rQuxLomDdZKigw5ip1X3OEDRLWktDGU3UDLfbGuaqWIYUccLG0BKSUG4BDYuopukpZZoPX6HZxO6NOUJW2023S0Z2ltfU6ARlOLhMwhSzqsSkJrGu6mGdBtR+ty1DCw6zgZEWQ2wUyhUXyJrsfgyujhjxst1TLENDoEcxxOhbGWy4sMwf85jHuDzQuwpNuobJF7df2J0pHY9xNGUaUPQtCG3EGiWE3CpqUbXLw3I2m+yg2ViBDGwHXsdqSEskbSbPRXhM5Hhx/AQf09PhCV5uCjnuuONqtu0yxLBKsxTlhxxySBkInwxLrs+ZnLRR7d3vfrdq4zm3O2CzT/0gbilzlaUI8AHo8lEikAgkAonApkdgVS1Dxlvs+NIPOgfpOte5ju9lbSSoFk4GG96dr5TAyJkvwAiyNrDjU01j422jNfq08/LFznqYQI3k+Nw1XrGvXzMWGfmVM2Pq+9ncy6yQVtdwoHGpKQ9VtdARdBSXdDUswyAu6U4DCuAE8w1gOQajUUzWileUs0Po0ELLCrWitVPX6ib6FEH+xjgsSuttjw6bM64vbz+qSyIgszF8huOwww4r1Vg+Gjr88MPrF0uvuUbr8j7LkE5MG66NN+pmpHNkw9Sb92FUi+KryTLqAmTiEeUlSK9Wpgc6y9yiUKoQMdIkhLM3PLRsiTAbmOgDFDwCBUvAuw2bTXBaOMEa04ceie2GZYhOyEBtGSpksUQfJQIdZqM8jY0Gh4cb9RlpSGHJjkn9KDKIeNQ2h/paHOAqLEOyYTIWhzxTIXRxtmJNUwpZE7AMXzwyNaLLYxy2U3XWdkNQZouGs/1DH/oQDw+TOJpmsEWFNhQCJTyqncAWulg82/ERfFBBp/YZaqIkRmKQPPe5zy1QvOAFL4j69V2y0GsvznLGRk1R7jWSfQtC3whG+YEHHohaLSo2Cxg2CjnBht8tT8PsFzTRrj9ygo/v6cAEN4iBTMMyjOxKHhXLEJ+makxDqzorDgNWIVY62WN/qjCS88gY3Ljbg5gxF9toZEkikAgkAonAloPAqp4z5A+xme2rWXZM4+NafseBHKFodXnksqc6NyrHv3T6+IPW1VlhZCHbJmoy4agp1HTRfb768UXvZMymvlcajJU0+uyT+uSMQCOVGZzF0eRf6gVM+Eht59d8ItIo8ZQZFpnZBXo1OsVlFxYOpaE+0BjMaJRHpc7uEFYBdwRVkrFUqLl/PP4Wm9poovNf4GvaI2YJV1hdh61LmxTM1vliXcj29i8c6kIv1mfVmF60K36Puk658uT5z3++yT/cEA4ZBkahznvExArzHmjFKuaFZr3Qv/lOa5rApzpzq9YZ84cbbTzloQpAYjvDbzG3YcPYNOGTFNvJ1zRM86EPfSiP38Me9rDwYZbKfCmUTv/y+9VJccJB1KbZV96uOVDCJrEZwS0pOLBRjRlgEhlE82iAwkIeYcBV6fyoQY05avfE3wIyyxk/nPC3C6M1u+tGOcTiX1I0zMy0nS1Lih2lGHcz3aULAm6joVKh0a7NI5ELCm0MlUfWTGHD/mVGNur30SlrEWEWCV/eirXIv/XxbOZKnHCul99Y4tTsW34bnAz8y9HNYQttAlyqmU3bbrutf8fcVzFA3KPxE3whPe2bPp3lpmoEoVjECCFBtQqJMbbmMNrHcx5LZeMkMKdxYykYBiqfJgKJQCKQCGw+BP43FmgVf2g8wbaAok7+KeXULzGZ7ac+5+1CJbRAG7G+uIV4Z7WJheWLHk68Rn0RQdQvUXNtOg3GYt89GKsrFy2tODk9FcDpNzdCm2wbInvD0VbEU9Wv8IS43p35RA+mqRctsDDT0FeKbVPOQAY11iNtnpVVNsvbjDVK7HyLiuQEEzJXJ53HLcO4Vm37SAUy9CQ2KoMnqonvLUyymngUqVA0ywYR/NP49VrGQlel9zWh/Mgjj9QvSlgEyJWact7E39wgEVwaFkIJAC41dYd/VdgkTgYa6nvEnDP0YYefdNJJqvFOF4kSYagXKIfnsI8I/sPqa8uAV9hg0U0OovlV7T4e6vLwPjlhGC7u+pHh4PjiezSjJftp2GNjiI+vA7cGA+GJQgHmYd6wtSwRplVDAEoaj+IH62t32s4OLyla6bQilJfLJBtrC4F573vfK4rSclf3t49O31pkr82eSAhk6azxEvpri6SYyjUOfctvH1aN8nCRKSxBmKVCLDX1JtpImo1q4yf4mva0j/kYowjTmJnzWCoJqo0YwfZhw1sDn/GMZ/S1m+WJQCKQCCQCWwICq2oZFndWwyApYyZSqJwRovHLOuC0npN4KgwkKbUFS71YVKK2ok7VkiToriQkYGDQMotnZoCxmkLR3mJj3iPOQ141f9ReuwHxdSzHU0pwp2XiaGK8y3dX+wc6CZaDSY2n+u5Hj2rHYyeFUshXyT/DDuRf5ViIrXF9FKg2Ul8ROCqE0nAzzLxF/44TWcXS0yOuZv5JvpcGM+zJKGn4mds8x9E+NkyDiH8j0Df82Pyoogq93m5LYZ+vu91cu4TJV7xS4d9uGJ9xyLP9Yl0SMqCkbDTUT4XYGT5YNfy3wzTneRr8dDKDLJlkGfoDP2tqGba7UAwnAcPxNARAFG5bAODWptAumbmznUtKm34pKfVlB62rhXsZ2m07fIBa5yNNsAzLWhR1apuQu9USJ0dOPBq5ynW2pfCggw5iojss0HBvMnHjJsPwHPa9PqZ85ARf654Os1qOntbVxnNuq0UMCzl0mtFb4u05DJHqXKyGOcmniUAikAgkApsJgVW1DOkBMQwNjaQxNsw85gHtmfOQZSiob/iKgjiIODKb+Txy4PySgEBHhhw5Y8xILePvmQlGaJDXS0DsMKlQTKWdwEbbEKLyxuvj3X3DzY1/KswyMrjQVOLsH7+WE0QTAyOjCX5F0ZtUHP1iQlAfxZvJAlospUj0zx4On954xuqaQUQaj9Cl+oioFqnkO3W4vrfGlNsakFAkaoZlOIOfpFiGJUiybpq6z2yggjPs9aLP/h/D7Zg6jHmHJNXsZEb5Bspkm/8QAGdfZ5Oi9ewsOTHBTQcbJdJElb7E5RZ1uqx2N+cv4Zd29JcIyWEjDLVkT5mZMuhiT6Qdc8H9pZvMxZFr4AAPIyd4TWHhPR1gb+DReM5NcIm42IdCJHwTLbDyV3EepmU4AG8+SgQSgURgS0BgVc8Zls9/+57AGDbuOHGb8Z0ThOYMW9sEag9wUBtzS3L73fElkshxiPGMMWOkjuBFHP9uZ00pT6J8pC0nIivqd8bNFi28PkfX2e7CC7mDIiCW2RwOXoYiR2K5n2Bii7xnIugiWyOXl30BNIvlzI+HQlxBMZFUX4UgMvGa7HKbYsne0Udw5nLphSRlIdjFUBxPqshAHZNcvx5RlGzCtTYLNUqnjy2eYWbUXH+ZbEM6UgDaL0bJenZWtOfBBx+sXf60kn3H2uhvjyaeh+zrwsRym2tSoYgJt/NloTOpF7I/Yp8o5LYcYy6chLtsIZHPU43vGvV0IsKdFabi3D6aJDdxuhs1CYFF2Qiu6aSchYlAIpAIJAJbCAKrahlGLhmDVIyixoC5O8s1TRKNSDc/8lQ9hSmozb/rPCA9UgXI2sL4lDNm5gQkDfouRYgSGeoHmi6PSihjpwe1+GPdzzaG2mLrGDUE8cCoE78HJSrmVE24iY7DkA82YBFHZzs8nCSRXMffjSw1Nf1hL7SaQaSdvaMQCQolhFUGnan4H185tGGen5ESXlMelgE1+Wf8Xh8ZcGYvTD7XjRbxq7kNZtaNn+EhCAHgrS1ctesPSNE6d5arULiEueAWxLhsxnTgdjZH5glpbne5lICFTShL08te9jKuwoGa0z6KmHlbFXFJbP16zIUZnOdtHkZOcC+uXU/bXI0pGc95UHN6QpJq6aPjCihWtzzAjbQ0Y9rNOolAIpAIJAKbBoFVtQxL2gxJFNqDYWs5YhGnMioYDJHvNJKItsnOX6IJEWhMULcRzn/Cp/AjsC3+llViDJNFf4orHBuvFEciDXIMtcXWwVuofVLSMwttAZRzjxMbKpdPOIknhaPDinE/BFdqpIYvsVJ9sbvCsUS+DTcURGiissh01pSmVapGBkBY/nSvzpOrRFfGnQaFiZlR6/oRSjrbwaphGdBKiMEYGRjmefhpdMd4hbeHQVUOpNU9DWaEwJW7+DqRH184hqs+aiEAfMLHHHNMZx1eMkZR5yOF699ZUfRy1XIH8agzEc0sx5vLPat9fM5czkspUZCY7Th2OzOd9ouxv2O5axwv54Z1XyhgYy4I/XAtTfv1kSUjJzhqM/R0vOCNr1n6NZ5zHsKyLSjCAnr7778/Or6A7UVpJG5ZLRFIBBKBRGATILCqliG/UGx4d3rJIlG74WlEIcYBwr4vbsmVspCN507hEL0TAatTMdYg1eafYyf8YzJVlluwylvhvgijNwrdUxdO16OPPjrOwtVNxD0TDukNn6Pr7OBCCiNxqByG8otOZdtzg9Q58R0vZPpGPskYXNqwi+kw6e6N9t0k9E4We0lq2teXsGHgKeFNO50G/ZtMxjUVcY8Fqdtzzz0bOPOMudGuRIGWrEJ03L522+UzHzJESgrTsLKE2rqXr0Gc0evIHykNF248jXjstpc+YpgbYjltj5jT0YpA4nZPQya5v2o3e2mxPSPaFKJkgKsg0ibVbqWY4m4KkV6l0ZYUtULEh+V2hs729SjK20yW+saXt9BEcJZMYLb7SCRP6qM2QGfiK6VCLL+MtzqCtBzebiPcR7ldHicVS4hEqWAr0IRy2WMsa+973/tKuqA2kVLSN+LjJ/j4ng4IXjnm0JhZ5WjAeMTGc24LrI56YFTL9RoLfiNnGGAHHOAD8OajRCARSAQSgVVEYFUtQ1i7O97vztyJxQqqT03QOOOb15dgJnJy0C3c5T3PWBZroR1sVhgT31U+t87FhYrfYKyE1TU0g3JCrFDjS5GyL3hmb9SHtcRS2g/2iNuqvCiW1SHMKHQ1RaOzXAoUBb9rxa4YNg1mSnnDpFEt2GvYTqVTbZuqsCG9REQ3AaRx8eDEcSluw6hZkrUEQdqqCzk8Ar6YXnn5ChvyiNL42Uu1x7iTW4HKsSth391FiE76RVt8gGxaRqCcN1Hy1Kc+NYIkWeCcb6K2iARk3Pot9wMFnfkdNY1IHOcrV18wzIbTunKjOcGoRzMcMoxGDXGEocqB1ACW3wCfulMOnaoQXiYHLMslh2B0Vi3u1aTX1jJQTs+WHgkFrLcnGi0CP8baKdwIGiwVUHYuDsG437yUl5OccbyqQbDz3wGuYqzbc7YQL8aGUYuUSGJfObTLFgNZcuEB7Zz7ZTgiYNrODiwp0c3CZIN/nXLGz1CyBAZmXMFqgE7UaUx/NAOWemTjbwuOA97xljpxUYd/+1a5MeyZnta6xm6gvbbI9lxmU5jBnQJQF4b8tIVn/AQf39OBCV6ct+Jvy0dBQqZYojHcOA0eQBnZtsU4nnNkxTI0TL44nh1LZQDl6kiX60h5Xd+dOxHYrJAIJAKJQCKwwgj4uqzoj28VLcHN1L6UjS4UzZWF4+CEa8dEnwrjjJzy9miViHRqvBXuEdrwnIAUp5O8fA1SdNxyibajOFJxunKaKukKwZAh3Prh+PJi0Qwo7jWdcr+CjKalnI4Sl86jY0/90Y9+tNwttoFFkZVr1uUU0VC8QifQOnyosOAqdBTyFAm2bHBe7makYtaPCpNerMsj1SRmtt5667r8ec97XvS0Ub/RHI1ENXkmGuXD/7KKmYL00VKN45GXySaC/kYhjapOU6GzgtMi59Cuu+5aqkXl4jVlrtRNSx1U4tlgyHzizdA0LyXvVl2Tc7LO4MISixcNVkNuw1PNGmdPvuQlL2E8yMEz0F/jC6LttttuoM7ER7ZOzCB0xMWVyq56JxV77bUXs7+mELcCqGwGufDQhCJa/M+GMsaUjUo44xUO2EgJy2dLB2Uts6ZI6QBLBiuif/nAGV1RkyHBt6mEOd14F4fRLhfcANn6UR9Xehq+ZYPIV1O/4sK3aOWII44o5bYDyj2HnjqZTIpiFyCM6on8TNXZmA4asmnSSbkMgR2iukLZtvAuQTUiFgdrAiPKpoZBAUhdn5xHZxtTD/hR7jqKun6JUHDYtZQXA15zNkqsOZKdgCX8ZnCzcJUhG7kgFOKOSupIEQ8+W7M7AiD5aVWzLyZothOlutDkim0Ro2YLplF/5ASfqqcDE7zcOsMq8xkyUwxTOe9njZJbW4A6Js2gsnVlS7HdzZGcm5IG1FJTU7B7ZXSY9KWw3MKCq3ZbWZIIJAKJQCKw+RD4t5XuEkvA562tMuqUxDMlFShjIQAAIABJREFUgIdzxv3mCssJCiGFfESNvjuk4WwMVWNmTKjUfEGhQvnNJNhll114ZmqCjlGV3KesRJYVrVQ4X6gpXnFCht7juoUSZYQrgYuiwviR7AoXd4Q/qK28gkGfVUPVq++1Z5V5i9OAdURFk9i90TV3xNFoAUVNRMruNYOEyV1X41jztHRKyNZ+++1HX5dYhc5XckXinGaGIIPHFn6duYTCwZdiI1+sZsmV4g82MGdaJ9rh9owbLDordBaKmnNGkV/IH2B0CyIlmA3Dq1DXxyHdNCyi6Bd9yIZ9bbe4NqMeSp5khlANoJNU4KWkBgV/MCwj62mDNxpeHb9n0GWHb9tIqpWxk3w/dgc6uxmFtDpNN6RroH7fIz5A2xP4p9yTLrogkXBSrrM+k7WMOAD9qxotnw0g14jDnPzS5UXdLG7nnXfeuWGEdNInw0wFaIOCC9H04a9wZLQxguxPRnshbofIv7zBJkgn2bqwzRUtubibQMrIjz0XSwQdvQyx+WgacjEFNQr0TjvtVOf+AR238EQGSoUxnXUdAhBqD6S9ABOwsGHrQQUIhBziB27HH398aeXQQw/tvLa0SH6AxvNpzalXD+uGSYQOF2gxg6EBE3NZ+QEHHFAHdrLQYlOG3xIyZcVg2AvHUB+fUQhtfrCpFoTSHR237KNA9uziMZUtcZ4yXYiNzpq2fM4Do2CxtadQX/3KcHVxq1Oj9VtjJvjIngbZgQluuau3q5jlwrnD/WspsMEXZqHl3fJbgPUdMWEFhTY6O4ZzMm+113Fw+Qbx/BsmtmsDurhI1geib0EYwDkfJQKJQCKQCKwiAmfAdPnSrNwfLCh3EtBUbOe3mbcrTGmwnS8Zd1HvqAVi3tgPtUrnXWqK7XDaBuWvTWqxJaKYTj31VCzZIS46H1WAnw1jonfmac6ACjKk7lPmwlvI0mP0Ft2xTVx95iXTjh3VPsPTrr8OJWwMZqdbGYp5PKZRtkfYezQt3hKWA72qOGkbFABFDeICZbZRE4uEjGmo1NEiibKpT81qnB1t0KEc04YlDwRyXwZ/LmWCQTuvbc4+fjTNaUCZm43zBlmThS3KoYrDktCos2mbAswV48IPH+5QGHK4NZKCxLsC/5CVprVkau2k2ShkNpu5fHdGk4ektuHHvD6xzmxcdZIVJ4lV9rC5VhImd9bsK1zrznIi2bFixZnjtr0MH24tQX4MjYhoKZcYVH3szVxuAmrR5CqbRHrKcoYSrOYUWiuDnSlXbjIRCykLnVXU3lanKM7WkTETfHxPBya45cj6j3+2X8Q8R0lJmjUt/8OcG31bPBYiLIn39q9BqUPHS3NWJDjPf7XStPxn/UQgEUgEEoENQWC1LUOQycbJHUE5mye9PlvRd9En2c7ohgxDNtpAQHgVo24tFNaEOhHYchDgUhZfyuPUt99k/eQv6swHu+WglD1NBBKBRCARSAQSgUBghTPQRAeYEE94whNEQrZzbI4fYxvq4i3LTdDjX8yaa4EAO1/SP9Gba0E8aSYCWwgCzoXyBwoK7TML4cBrJKRiCwEku5kIJAKJQCKQCCQCwwisvGWoeyxDSdUcWpvNOJQ0z910TuYMnMYZBjGfzomAuClRbY51iXOTmcMpQUeSnIGZk2y+nghsyQjEIV4hxyXFbgMN0fiyZJUUO1syVtn3RCARSAQSgUQgEYDAmTYHCvLNOCIoC4VMJ33nyto9ZZC4ecxBC1dfDGeZb7+bJQtEQBYNKS4RdG7N+U8/gtwWSD9JJQJbIALueNBr+UikxpGAygE8p8WcynPa0AlASbnki3LLy1RHQLdAGLPLiUAikAgkAonAloPAJrEMDZgUlLJxODE4lWUo1CoucdpyhnwJe1ouYeP1ZRwy7+sLzZeQ4WQpEVh+BOTwlBxFQktJkhqOQUl99t57bzedDqdNWv4+JoeJQCKQCCQCiUAisEAEVj4DzQKxSFIbhYD0/e4hkPKe+0JuWPlmN4qTbDcR2GQISON51FFHfelLX5IaV9LOrbbayl6YGybK3TmbrL/ZnUQgEUgEEoFEIBGYGYG0DGeGLl9MBBKBRCARSAQSgUQgEUgEEoFEYJMgsBky0GySochuJAKJQCKQCCQCiUAikAgkAolAIrBBCKRluEHAZ7OJQCKQCCQCiUAikAgkAolAIpAILA0CaRkuzVAkI4lAIpAIJAKJQCKQCCQCiUAikAhsEAJpGW4Q8NlsIpAIJAKJQCKQCCQCiUAikAgkAkuDQFqGSzMUyUgikAgkAolAIpAIJAKJQCKQCCQCG4RAWoYbBHw2mwgkAolAIpAIJAKJQCKQCCQCicDSIJCW4dIMRTKSCCQCiUAikAgkAolAIpAIJAKJwAYhkJbhBgGfzSYCiUAikAgkAolAIpAIJAKJQCKwNAikZbg0Q5GMJAKJQCKQCCQCiUAikAgkAolAIrBBCGxay/Bvf/vbX/7ylw1CdeWb/cX/+Vn5brQ68Ic//KFVtt4F//rXv5aBjfXudn97f/rTn/75z3/2Pf/973/f92hM+bSv//GPfzRAYyiPr4MgsuPrL7Dmppc0i7ylfoGINUj97ne/+9GPfvSPf/xj7ZrYEMqbXjCGUTWgf/7zn4frLPnT2SRfx8kzqV7y3iV764BApwhN+8VcBz6zifVHYJNYhm9605te+cpXgu+3v/3tsccee7/73e+iF73oySefPAyoVfK+973v9773veFqW85T+uvjHve4W9ziFte85jUvdKELXeISl3jNa16zCbr/jW984znPec4222yz/fbbb1R3/vrXv5544omPetSjLn3pS7/61a/eKDaWrd1PfepTW2211WUve9kf/vCHhTcT89Of/vTTnva0G93oRv/93/89A8/f//73X/KSl+ywww5XucpVxrz+9a9//UUvetGOO+54gQtcYLFWnA/tla98ZcvRu971rjGcLKSObZ0jjzxy5513Nos35QbZr3/96ze/+c33ute9LnzhC3/ta19bCGgNIi972cssFze84Q3J53nPe97HPvaxm8A+3PSCMSwJP/vZz97whjfc5z73uchFLvKBD3xguPJyPp1Z8r/73e+aL5bTK13pSuc+97mve93r/s///M9y9jG5WlMEBkRot912s9YdcMABa8pAEl8BBOxnr/QPhwM7kMLts/3xj3/8Dne4w9nOdrbA/WMf+9jErn31q1+9/vWvf/zxx0+suekr2EO9wQ1usPvuu4eL43rXux4Y//3f/50ysdJ9P+KII3wFQyRYGhvSF4bKrrvuyjwINl7wghdsCBtL2Oi+++4bmLzqVa8K9n7605/e//73v8IVrhDl5HBatpG62c1uFq/DfOLr++yzz01ucpOyWLPlJr4yvsJ73/veoEwfHf/WPDU//OEP3+pWtzrjGc8Y7ZrX81Bbwnc/+MEPWufPetazRge/+MUvLpzJPffc82pXu1o4kB/2sIdFQ29961sX3tB6Etz0gjEMpmXB1s9ZznKWGM3jjjtuuP4SPp1Z8u2Nnv/857fPq1N0Hto/EK51rWstYR+TpTVFYECELHfx1bB5vaY8JPHlR+Dflp/FAQ4pPbZ1995777oOV0Ms/WMsQy9yVtjUP+GEEwYa2hIePetZz4KbhSM6y5Vqgbj5zW8u0m8TdF9f9G6jLMMAkGYWkpmWYZEoar3ZxzBrbECQOr4acM1gGQZxLmKvj7EMo/497nGPGJ3FWobWKE74y1/+8iOXo0XNtXvf+97Rnc1nGQZEBx54YHRw4ZZh+FKe/OQnR0O8/be+9a0veclLfuc731nU6GwgnU0vGMPYCiUIsVlFy3Bmyb/d7W53pjOdSdx1UBC/cJ7znMeu3DBW+XSzItC3eNok5U4XPrNZO579GonACkeTchLe9a53pcYdfPDBsdbH71Ao65Lhvy9+8Yu/8Y1vROrzn//8cM2pnh566KFT1d/YysQlPpmis4ITmtC3v/3tD33oQ2c4wxk2lrdpW3/LW96C88ZbxV83LbUF1idp81NbLbma2F+emS9/+csnnXSSMM66Mqm71KUuNfH1gQrTon2Zy1xmgNrMj/7jP/7j/e9/vz37m970pjMTGX7xW9/61jHHHNOoc7GLXWz4rVV/Ou34ju9vYyU885nP/J73vEcwXuwujaez4TW3TMEYhn2Npnlfo2uxXE8r+TZ53/3ud5/vfOdjHAaft73tbX/1q189/elP72N7zvK16PWcLOXrNQJ9IkSX/slPfvLQhz50SeBKQdqogVhhy5AQW+9e/OIXN0yXGSwZx+pEUd7tbndb1Ll8itraLbtrISunnXaao1YolyA0f8+A5FrwNhXNb37zmw984AMdN228tQx9mZ+HlZOrqcauUbkWxRnoTIv2nM3NwOFCXnGMcJdddvnBD36whAK/kA72EZl2fPvotMvf9ra3KWzIw9o112ZgISVbrGAMo7ee03yNlutpRfGd73ynEIx1k+c16vXwsObTqRCYVoSmIr6oyilIi0JyBjqrahl+7nOfc0xWYIxY+Rm63X5lr732sq/veEn70bQlTCxHH6d9a2Pr213eWAYW0rrAubvc5S4OWC+E2rIRWUW5WjYMNx8/j3zkIyem2tp8vV67HknbuDnSMqdgrJ2QjKG8PMv1en7cl6fXY8Yo6ywtAilIGzs0q2oZPuEJTxA0Lw/BGPh+/vOfn3LKKZI1D1QWKeREk6SRvGcD1SY+kj8DV22fVf0if33864/OVdvrTN86W2O7XceF9SvK/f3Zz35W0+1qpUTY7Ve+8pW+VN0j01jDXCZA53AmJnT98Y9/HE2jHAeBat64OMpFBRj7zGc+4wxPg3m5hbwod8tAp+pHf//73+0UwGFMfa1ber7whS9MTHn/y1/+UjVnjcaQbdc5/fTT9a6MVLtCXSJ13qmnntpp2Y6RK6QGKAw3HU/HCN4YOqUOx4WEB34G7qVQ2djNoI5P1VnB5/zJptU8qUdJo74IvZ4KhKhcZkT9LliKu8/fFh/7U+OJP+95zyvnpia+ZT0hihNnunknrn54Betsa7a+iNK0npiMZKCTbF0IfxN8ZGTHbB2ZiA9+hhe3YHhkv+D8m9/8Jl4hopYaMtCAQjmpEHQ9PIlqoJZKMCYO65gKJp1vxPA3MejMM0mnpeALbrK0E/2PXK6NrGEd1kwKS+Mlv4HnGJH2ysgv3cCqO7LXY4Y76oyZaGPYHlZ+hvkZ+QkLIqD2BZ/4LSPMVjyq1ES9YuQyQs0IUvQZa0inmjd+8ez8VOkgZgpW/h6jPgHEN3fkil2IjxSk8epo3xCPFIxQYseMbK0Y64VN27buJ5C7T82r+Zzt+9XX06nLR55HXKpqX/rSl3jDBc3ToduMlSsBpHygCf3Xf/1XAcVRH5ZY+5UokZdczbvf/e59FSaW0xrLeTYcygAWP7703vVVEzb9n//5n67K8O/jH//4CPDgqCyU5Zrfeuut8Snbqt8XvOAFn/rUp9btmmNS5EkufM5znlPWTZ+WZzzjGZJQRx8ljCGODT7Btd122zmD/sQnPlHErIQfqn3yk5+MaiJpMXn2s589KJzrXOcKnuW2rumYGw9/+MOFp0un4ZSCBLBsaQw02lJNF2DuOIdHMsvXadB82iVf2XbbbYFjTtKKdLM07a0YUMvcgx/84HOc4xzB0rWvfW3QNRpq/GtZlF++DHTphXOSUVPuGU8jA83RRx9dTps4Bvbc5z63TZwS9tKXvlQ1ef9xq5p83wPC06bgrKP0SLovIZ78t5p++9vfHhw2MtAYU2mTJCmxp2Cn3x/aFSldaA7LlWoTKbTZa5QMCx5pke2zyPONb3xjOQwKBcYJafGUbDuRFeWODpKTq171qo94xCM4comroMd2che3U+yxxx5AlgCpwVLkF21noBnZWRMZ2pGBBoeuYAnwydWTnvQk49tozuyICm0mlRBUR3DjMKTkDbKntqt1gkwMDC5kTMBSwbT96Ec/iqYJFQuOiK8ikw5YgqWTWl346Ec/ugi8+Rijo62oY3mJp7QE36GQfyWE2QZKZN1sNCFDkiy+xsLJOtWM3fve976JbMzWF/g///nPd1uJ8b3zne9smPAvcMPgdraIE/wYxJ122umKV7yi/PvleHk7A81sHZGDFA9lLS2QKqTD4Wp4cQu2R/aLcuD6BPNChlWpUGBoLS3fjstd7nKGDEEfjkMOOaQcCvI5+MhHPtKJT124JIIRLDGcHvSgB/l20COjxPKuU/e85z19cMesqEDw3fTZMl/8+D76BpHhBg4jJ6lDvzEv2hloRlLQLqXNcmHCWgkl9PYd93Uwo4Olicu1apaFO97xjgbUwogfyRGe/exnd47sVJJfU6CkxpoQ6VhrhURMU6k58ks3cdUd6DWs5JoOZlwfFU3brDeLHYeO8sMPP7ywNHKijflADys/nYCXwpGfsKh/1FFHuSHp6le/OuG0dFjwS7btuhWajFRnVni6AUwMDW2wndpq5DJiakidiCD9BBGdtTYSJ4tYTXOkCFmUXNVDOaQ+1TzbvHA2SnRefEz9W1J/U95cF9cJo5sCrnOd68gDZ2pgj4ZA0X3961+vnDpB/jvfUjggSOWVkepoXxPKRwqG3WT6m+lJN9Nrufp9sHxfGpQZGjKW6WOoK95SX2VjYXGg1EV9nyo3aUW5+ShfPcW1zeRs3682nXlKVjI3qWSkEGc4dfa8WIaHHXYYwfVFoRXRdeJ7QLcjmp0vvuMd71CHwWkTt7PCxEJ7GGwb440O9dHf8WP4H/CAB5hvwYO1gG4q90acCKcHBOVQ5uovBDXIK+4YjAoUCJ/YkghBTeomHFS4053uFMSp4zWfdvgkm6rTt1rC1HSbU1RjnmFSNqp43ecteK5BsKnPXGHe2CKNtzg64l4BWftsikSh733Rbv1hzfK7ZBYRNe5zXu4UwYBllH5gmB7ykIdE6zL7UyCssKwInxDJ08JutFpNBL+zFyUbW7EMKZTmOc1+v/32o5hGu7WdoyFfQWYq3uxH+teKSXlV0zfsE5/4xEROVLArQcM2KHYcoz5Lr9jAtWVIyWC3I+5LGTWtejRgCwprIUr65CqejqEwzPNEwfM6takYV+0ZxLDUBZ/SaAjnZpzFsbRrNFWoc8NaTOlGJSnCSMtwfGeLZWjJJnWaJsMx3H6bWbFfUzjsswx9CIkx/mMoOd7jjkTzl447ACyxoYFJ/BCN1pahzQg6ZZQT9ac85Snx4TQR4jIGKmOfjVRaJCclaZbtoZi28IkKxTJ0bQZRJMDC70sWnEY+Z68o8VXTWX9DJo5J+4a98IUvHOijRzP0xe4VxYilXfanmK+EASA0mzIRSrt4ICeWlyixDMqt58saADYsw5k7wlqGYRtShVocXtxo4Xgb2S+rqIEumdJoY7e85S2t26x6khCfCbJKuqx7NImDDjromc98ZixWDAkr9vCILIlgYJLzwUJKSTVeBNuUl/taj+yR+Wow83ybJnYHJj6mZXNQ/dA4axDGT9I+y3A8BRLi2+fDRzCCh5gstPzIcD68XHvFhqmPuE202J9yaVZsg7Z3paeS/IZUIB5rQlshKWvLyC/dmFV3uNcFdpJc88k+j1lc1v8xE20k2xOVn4F5NOYTFq/TlKxmtDjGRpT4PkaniH3dhM0gNhutxnoS5a4XUlO2Pw69UnPkMoLDejdcoxbP8o177WtfGwRHipCvZHnXIlOYoRr5VoYPg2VIjSG6FDnLLLajmy4lbiBp8923o2xTWtJjB0R9pCzmtTuk8e6wIKk8Uh1tkK3/HSkYMLQa0xWLGmn5okvomt23srn8ile84va3v318j2ytMkAYHbL4CNyI8dVr2wSsYl95Pg+bIBTdgK5kwC7szfz9GujvDI9W0jKkwYCVrdXZ4WIZkuBi3PtYFtuJYtdQCoNOCevy3eqkPLKQ4Yc9VkSjvo2EkAZyIxrWU98Y+iLB8jd1IWSr3ss0wbxCOuvU8zShoEPpZOaVVhiNUR473FEed3g0Njlsa9UuKTULaEJWGmwzCWxxUfTFD9SP7Pq4IkmL9ffMJ4T0K/TIVhZlS2SF7D78QvFuSZdsJ6kmqI63tMJDWG8kyzAUnYoovgZvjX8HehGWISQp4uW7CPOw1igrNSl1jFG9naMX8fE289vupgYblBhk4VAWlKjA/Rt9qS3DN73pTVFY+6AsHwotKzXlPrkaT6ETvfGC9/KXvzxYrfd3gybtjX1b6HPvqMknUEpKgErDqvR5C5ojLcPxnQ3L0G6lwdV6cOIbFkKrURp5DUinZUhUfPJ9G+qaVLrg2eehE9K6kAaMB/Vry1AFUsRgU+5Lw1dWRIXWGMQb7HU2ROeOym2/d7EM3QhSNmite1wcXqGg1OJtltFrhSzWrcSUIfYFvU4eZuhL7LNY3GqClriwlplAtUsz8sHEPat1fdZU9L22DOfsCPoDkE5c3KbqV7nDxr5DfaOJS+eiXxSvepVmukQ5V0nfQJTygV6sp2AQ7HByhmFg092yH9+yEgUd3tG+HpkXJki9tqhp+5IYl1emmqSdluF4CrR2Jr09zVqFoDnEt9uHtXDVt1z7wloQbKXVXS6DYnu6lE8l+X0AKu/jxKORX7rxq25fW0W5aliGRVDr9X/iRBvJ9kjlpxO6kZ8wy7jPtAFtaEfhu7N4Fs2NUUG9sSVUNxfb9OZ1HRo21TJSLqGxHtIwzRekdt5554gdm0qEvBumZm0ZBreiGzCJfzZw8QQY0/i0CWGrO+V7QTVlAZZtSk9pCLF8ld3ATthLYZ8gTaWO9jUxRjCsS7rAWGjoeyXyqxExF/v7XqGHF13OKhEeFNugt7nNberdXjIMELvtZZsAt/N/v/q6PG356lmGQI8NjLa1HZ0v5kFDtaIJ8XqFdIYx1gCLHMdTe5nT4ljX75NpdWLjhM3QNk1tOEXrJQBSfWEAUVgbS/aSo5AuW7frxSivvy6hHzeWY8rHscceW787YFNxSCJraWhjUsKW7HqWpzRg9X0pYx+98VZRCBomqKsmgnmc1K8Ix49yOy5tBholA70INZe910A+vLJM30IqbjNrBPF6ak0MTopnrI8fexZq2jFqVCiZQmrL0JaeygTD5kWpz5+psObKoz65Gk+hk+HxgsdpFnchmEcNUoJnmDRRaCXlCsA/J1Wp5qsT6DWCTzo1g3irM5p0fGdD8q0VjZsSaeHBCQ2v3nDptAwja3aJEwvG9CU2FPwuPuFObKMwHOkNy9Cja1zjGjjRzfpd8hl+1DFm5xgDwPe7ps+GjO6XJcXnynerVmqjPldV1PTHQO/i0fi+WCuQtf3cXgMjasPTEiWhjjmrpL1jFfevelQsw4V0ZABSPR1Y3KbqF1K2ugLehlVfDimZ7w3Yw80oOHPicAz0ohghay0YpglTP1iNldl+RPGNcML7RojUamyfNbrGRQ8limatZapj3S41p5qknZbheAoR3uKaqwafAkzwWev9fcu1LrN1G+uGb0oIg69MUJ5K8ofloY+T8V+68atuX1slt0JDFSkWY2NncGCijWd7pPLTRm/8J4wb0MBxEDWIUD6VMy9D7/dbjAnLqvYNesUHiKfORCjqzbTLSFkGX/e61zV4mEGEYvjalqGdfd3xMa2/mJqLs1p8+HXTtq5UpirUhSWhRq0VtJEvJX2CNK062tnERMEgALFN2Xn1tP7qIN9PvWca9yG3HUJO08TUtibXzISEeOSYcZQv5PvV2d8ZCv//+22C9ZX4bYkxzWJghhkOlaLUMS25sIW2KzH92ulDhbvYArFkjznmPtx039PQ+VgpYdzW1Swidua0LoKo/bqwxhL6WN6NwLNSuRxTKautR6HKC161Ax1RJQptKbFD2q20S4hUBJraJW0/5UsRC6qccsMzExWij5orwQb1i4X5EkYYT8OW8HejUyUY1R5Ym4FpS8zbBvLBZEzO2PeNwEjOJRsENf1yklhAKT9MX9P8MyIHPBVu1Kij9fZbnCHk2VpTwi1KHYPert8umZPCeMHjVvIJJEu+zY6Vl7TAdgGxWtJBgZHfm67TnmKYb3SqIQbt3jVKpu2ssMzGTYkiKlm2umCaMyo4gQcaDWGws9u4MJBNyK/lR/DzMAXE+/oYotgQeIV4tsrVs3iAw4mPUKvrlFmJfiwpwk1F19hvagh8yYVD4Ce2Mr4voWVanNtroIhK65XPrTq2ZqzYkGcbWNnaOajbs2khHRnu6cDiNlW/tNK3EhJXrdDqGoLhFY8I7UJWQtTWWjCclQ0VSlth+dAvS0Q6d6K5LEx0GHBDbz0RmG3H3d5T4bkoxF6ff5KOpEB1i7W97BIW5gWe7b///hEvM9Ajs4zuIWwhFNxSk8Idf1tL44+pJH+gxYFH47900666A42OfDQw0cazPbPyM/4TxnLQo7Y82B3mHrfYxqEyDkM7sHI6FPkPHCicviBUi3J577TLSPm4tHWSGURo+FMFlnASlkEMnbPxqeJtU8Gcrcfat0Zl37WyRzBSEupqM6ijna1MFAxx7/HV69R7Da5D6UK1bXiVjbZYz9sAjtFsg591+H51otFZuHqWYfGYtT+cjR6Gol8Xus7eVgRFPHYi24jYmyS4E1NLtV+cqiQWi/Yr2CuFHG7ca7GBpJCi0K7fKClCacOjPLKLafHiL+Xxt1LI+mCPSpBDxEZOpImNsCGL2Vm/wqiAmCWAU6VBqq+PfS3SAjsfxel5j8q4d1abuTBWOvACLeZ2uF45wYopHsQjKsDfbSW1bp0+FDsXnYZxm0/7x7EhF49YLKIUTjzxRP+OGXTV5qcwXvCsicJCMCayVExp8Gx9FDdfRkqheO8I+fY3+aE2FXfQyE61gYqSaTvbXgTQEcgRG8/WgQG7LrLemVbtz4ONz+CnxKb2MTxDeUzkehbPQKTvlfJptyZEnRB4qkmR8Cj3b2z3NEyIPsqd5e2+RDB853piAto1k2FLYIitByIUn+eRU2lNO1L3rnNxm6rStV86AAAgAElEQVRfnViVQqB1TpOYYmu6EuJhUYLhNEckdUMzhqaxWTbRLPSiOjZzLSAoWJOd6HNdLfzLmaj5J+l4CgKAbd365PlpjKB1ZqJZ6BWxtea1MPLGXPMobIzA30BPJfkNZkb+O/5LN+2qO5KBidU6J9p4tudRfsZ8wnzaYpjqE+ylU44hlL8p/f7urAbbYhaqM/My0sZqHUSovbzrQuhRNjvs8YXNEziInaFd17BMFIBGhZnV0QadiYJRTmx1fqfKcf0SfzTQkfGa7bp9vwa4LY9WzzK0NAf3M2hOtCKSaoeDY6cTnbCXRvrTOinMX8i0ENxinvNwil1ub0dN1YTPlYAHnm7fe6dWmBx2K51yrPX4AYIl1LDPWrYHxjLkPKHMtb1eA5SX9pF4D7zRictBpqlYjeNAti1KvpkxrxNmCjFbi6EirFE2wgiFH/Nu1JmfwhjBM33EcQn9FbtCSnXTB0BsVadbCZKcyXYQLcSi830Cx3dnuOacnS15kvrWgWg9wu3o6OL3+tb3YT5X4mkIvHDQclB57djmdYnU5wPrSbQeW8sxmxpe3z721rMjDR6m7VdfF5aqfE48S4odERkOBZj+dcKM8T3lRaERUpuYcFYSe1L2TIs3cv5JOp5CLBdtFXx8XwJS20kT59pUkj+egbrmtF+6OVfd2ZhsvzWe7TmVH00Pf8KIZewCTxSJkZKz2GVkHUSoPTpKhJjGNocgOGk5S524CamkXut8d7hwUeroRMGoG7Ih1eCqOH7n8X+2ezrnetsmOE/J6t1nWLSEcg3UVP2PQW1HIgWRoLkWfoAxTHJPM+GcQxClSdu2M9Hp8RhDqq7jQLMYFZldFNLj5YCxMV8yggxTs1RFhb4I28ATnxNduMMNLc/TOG46bDMMcBsxeHAeL582qCRUsB1O45FvtuGrHGirPJqTwlSCJ45Cu16JAEsGLZdaI3KbDsG1qJCJ62CPu1IWaFnN2VnMl5W9bx0IYMvB43Jqa8xYrFydOQV+qv5GahmvDK8nKsTGSsymkR/g9exIo9fT9msq0Daq8qLwjL1wGuHI7chGf204crlIKxBriNPavl8lYGH+STqegt1PvPHZWv1mG5TxkE4l+WvNDPrzr7qzMdl+azyG3p1Z+RnzCQt50EpJLtjmNkqi5sRqi11G1kGEOvsr16PYb4+EfIe1429BsyJ07OyUGy863x0uXKA6OiwYww0xEGKbe6rd/+GueTqVYE+kNmeF1bMMS2hTI455JBDhcnQauF1fEHPQHLlF3aYwTwlZFCnOvydlXzmzNw/B+l13QAmfkxMlwmC4cSIfxkT6Zd+3TzmOAxJU7XaA9UTiy1khLgUp+SfbTA47qyPhpLfKmtimUJfIT0tn4kiRHrq9OzX8bjydk8K0gsePHXZgHKEWShoZd2pWnUuhycmh8pjHPGbifuqYPpY6c3Y26JR4uUhA18dAuR5mZmHoo7xU5dFNya5i/7vNm4WxXThbiaU1tpDMjs55VA5chV83ZtPIqbSeHWl0f9p+zYbeOr+1KDwdssJ5JKuYrQtMSvHbAowjHlXSGgE1kSRw/kk6nkIJhMPJbB2JtjhRKcp9FGJeTCX5faSGy8d/6Ray6g4zM/7peLaD5mzKz5hPWJEH+bGG+Y+aksaz/QZqLnYZWQcR6uyLL74Ehw7g2dFjB0pMIIeZex2oBFTQzldGFi5WHR0QjOGGzNDIqFeCj0byP1xtUevtcCsjn66eZUjc40znbPt2AgBAE3dnNTDi7A7dqH2saCSadbVp1SkuI95/PpbZghj7OIw8UZ6y3HxNTzvttDhYVY7Y9r0Y5aLtI8LWEYuyQ1a/Env/c4a8DvMww9Npwa+biMMATniWlDP1U5SdeynbzG3eymkTd1u1n7ZL5HQBrMzXnRHt7frtrk1LoUFzBsGLBH1EQnCyHYf6mCLibAzngvxREmq3ezFzyZydjXZjEbDzN7x/aURC+CPFfJtnIZFxv0j70TqXtKViPAMh8KS9zwB2WWIcyxxPs68mpSEwJ/Pl2oa6cqwnFKnQpWI28dJYr/polvL17EiDmWn7NbEvi6qwDIIRPsNtt912hk6ZqnFGy7syyBNRid3jIFPk6ph/ko6nUHbuXIrb2Rcx9o1sHA38y0mzWCHbRJzYj+zBU0l+m86YkvFfumlX3fFSN75m6dF4tmdWfkZ+wuiisdVOFDu1I0GJcS1TSA6zsJwmbQyQlK1KFruMrIMI9YmZ7T/DRDEwBC7w4OTnjWAiThs10BCPRamjEwWjpIG0X9/uoxxgcQ58sXrvBn6/2n1cPctQ4GLYTqHetbs0UCJROCWDo8Ap9na1crJ/nt1NZMN7NmA8tJtWEhurjcQw5cTjmAW0s441Lg72RKO+gj6u8WWtMxmUdxtEzGRJ5LxrURM32OCcZsyX6PSmg4udnVrnwuK3bIMf/WpD1O54aDAoSDfcrm/fS4axgSNzHL8RA+xr0fCKlH/LH1CVBBVKnePeaL1Trqai0DkcMwiefDMRRyHbrQTQjZiKINjoVJ8kt/HvZDIK5+9s0ImbiBk8Ez9U22yzjVfYRZGht+aNd0tWJ4HfAwzHoz7Z63uxLXV9NScKvBcb1NqAF5XdTG+HQNvgcIi03PfTx0lfebsv++yzT1SmRrffiptdyuVX5ay/1FmNyu3ZtJCOtPFpM9lZMlW/OikssHB5BIOpL6rNN2K2Q4bWjbgYoIBjWyoSwZfv1/yTdCQFpml4CewbNrjCnnPaCkukeudyLVgpIpLIc6RwrAfdl9q5LKeaFU4l+cOS07f+jPzSTbXqdvYae+WL2djQL4Hi7YWir1Mj2fb6SOWn3dD4T1iETdpWi4t2alIKDWWIlp3fULoOOeSQcoatVBYaXcJYFriMzCBCfaLShihK+kbNuRjTwVUcnPx20l2J1E7a1EczyjsFaVHq6ETBoMXFDqadmlp/Dt5in9RqELdfDHdk/NOFfL/GNzdcc/UsQ/1xEs9v6l1f+FP0uR2tFNcW2XTsPPUU+YhEq5a0isPY9T0N54+pXs6qlaurYqehREzVFKIvPqJld9wuVLlbvN6RKotIY1qWQIUGLC5vrBvSwbiGtc7KWOKq29EOrL5wczN1GhnzpPDGjLWsbIVqaKCPnpZ77RrMl/KGUVda7EzW1xiC4nYruWcL8hFF3Ea+9LcwQO1wvRvKzk879ln2gKk4wiaFSZQLajoFQOZSx+o8coGPD0MthM6OxitlrQFCVJAcqAyxFyOTJ2wLV17slKupKHQyPF7wyuuO58XtPTbP2qGkRfzK/cj6WDT7xt5qwb9kliqtREk97jN0tr0IUChFwDrY2eC8MFC3WEwU/nYhMWWanHLKKfanePjjnsxOYEth9LHdwZjI7Y9r1B9e3II4QY1tiCLwRCuEvDTXkPm2wFPZXReBoMXHplhxD6rp1Cvjnwk93EFPx/fFPms4meUxapw21LTVjy7F5I4WuWRj8eG2jQsDotwYlXtEymxaSEcGVkJNDyxuU/ULqb6VsLTS3t6K1seshMsjGOWQ4cwH0d3W3bjqJpJYlM/0VJN0nmlObSiXfJoXUoXF98VIUYXFy9H7y0zpXK5tosV9FeaLBcQUiAXKIqCbVHmWYSRym0ryh6dniHQR7FJ55JduqlW3s9dadJVlPHL1SOFEsgNBwmEyibCtezEw0UayHdTGKD9t9MZ/wiSKi+1FW4fO11nBzGtjytFtNHkg4ii78xdxh5OvD6vDByhMYh9QBy5opMUgnHYZKatBW7eZQYQW8qmykygZgc2gee7X6ROkadXR9uCOEQxfVeouyST87U3JuJSbPV/bEbGet7/m4zXbhXy/+vo7dbmerNwPrCNLhw3mNvPlBgUGvS3wqGCu8vaYpXb12q9ESSzZqvVVGFlerpqwU2JfHBuODnq3ODl5+c3nBjW3IcXg2VN0QMvtGvpYrqUWEi0DuGXOW6WD9W2/yt1fHxRosYW4G+p9ku3flBLHoGPrpWagXD3XuHY56ljvQj9TDZJRaF/NN4x6bUkqpCypEcMgLoJhXDcRf4cHEp+2beqnRe3zaazLi51MeW1Ta5RQIGJvErfQsIhIAacObSAWaAyzTOq3yi1AGirlhKR4k3TEPrG80v5ANhLZDXPCjxpw6abPA3UBM8Sg7AlF0MgHPvABdGJPUU3bySRQnLNcQXvvvXcMpZsnOegca1GzT67GU+hke7zg1a+HbwerbZrlLmkLK5eaOznsRIhZjbVeKLgTCIQ5XqQoRE9pWjUpwxS7jGI+awEb39n99tsvKAvcKtPNiTU8s3/YJA3OS2QIaa8fmU1Bx29fO+IdGwcOA1Pv2t1vlNB+YvvT1QtmR3nqG3yuc50LTSFJFrRSTnjC2OOankhchXDFYMzV4b5hNqfpqcrLWWVBmzWd4t53E2kpt41ddlWwZIxk1UfTLDCaE9mYti+uT4y4DNsoZYk2s8RcmY/GqG5RPE9MarDYc/FVpkjpdZEEMDo1bXX11pwdQaGE+TVWV48mLm5T9YslEHJFUOv+lv1E4NTlhC3O2Otv+/PRHqNlEAxchQdM2rM2h2NKYrvW4lnPNauK9bz+voyfpMW0s01cMzCSgs9fw1Hgm0IyzXHnHmuCfcu1yVJvJzGZiH0sBe7wrClMJfl9YGK43JDhOFyj2sgv3fhVt6/X2i0fGv1lCNlbtM44jxCWsDnuS2e41Zw40UayPVL5aUM31SeMhRDGbUxn6lYYDPpYU2YKWtLLp8QfMegWXipZXXOqZaQErVi42h2ZVoTKQSpHImtqVNngvBYhohUuAfqM8LFSv2SH8op5QaGlDlFvbOhQIMWstflslwwI0nh1tE02SkYKBgM+4qH8UUhR5wwxu7FBPFI8GnoTvH5EqgM6MXd1edwE7hGCpXz+71dfl6ct/99Yo1X8CWdajWndCxs28mQYJCJL1l05Sjr5/WldA521gFqkTMuBOmMemTDl1m8EXU/nBKMYmJKbhDQQI2ZArZ6Sp/CFeupLQy+xF45U2RklzVRk+5TldKz1iD5N81POoIqFxus6zrCM5YYuxTdo9bGC2NbyhTZLrdHlQyt/lM3OUEa9SxdE005eQ/kQBHLPe94TZXjai6LYOQgUFm/BhPbPwx7TwG+Nsgq4dqOCzWM8FItL1I2lkz6HT7uAJUukpcRcsjTrlO20cpUZDqWTErU/PAThFta6ocenbhKVmLTBmBUqdALeP4JRuOX/4RspxGVzrdOTYBvCNvyGWy9P1cRt2VLSKTZqhJGwFam2hRRvT0ns6evIJrSlSkuO0TTEzrQE2bZcRfl4Cp3MjxS89rvkShKadrkSJwrKxxL49jIU2u8oQ0C2yYMBohhFYYyvKzeZCuzGclzTUw2xZ2LBHd9Z2wGMpcBWsC6z3PYKo84ub22hYYw81AHk5pf9Cw2VrtmRqScvBd3HrzbnOkGw2hDgkqVAR2iEoSLzgNWBCRarV77ylYg4oF+734XiNDZQ2g3FBk1gSIFjiFoQykqiHLdEV1Se/QW+uDIuDD/bOmWjxIuaCyM2qCHiWHK7xUbJbH0xBHR0t9XRDi0Lljsz3Sh3oioBhrEra5S3HBQxr3XBLDOR672DmTviy01xqUOjeXWwxIevy8OLW8FkTL9CMGJ/AdRaNBHcdGfJtWkSAR0xBHYr9BRxNn8d0OtvJcNDs+GCEezRKQlV7G0NM9z5lKngS2EWu6bC3PEJM+KEob0pPHGSMsVdZFokHOyGmwJa2p1IodSk1YU9E8NE5W13sG+5RsTSxBCtTxD4KgkbaSMwleQ3XpdOjzjV64ylwInBWGpK5TFfuvGr7kCv7VgVLRluGAs7EJLUBp8MWXlwNXKijWF7ovLTBryUjPmElcrUlfrOVRIroqFN3JddYpuyAlvQRFoKOm3XHLOMWPd8OEIC/aY8ONjvA9qgNkaEjJr9qRJ9ihot0ffaWkp/4wstrfgu77vvvpowccpOt6fUQnMzmqbummjllfYfsG13uVEyIEhqjlFHB5oYLxi+gGAxUtYxm1x268itOPCaOK9GBN1ETy3O4V6y9U+XLsNtj/tRj3qUwByBBj555UNjHTArQ/iRnfn7NdDfGR6dwTvtkVv+EjPHUPFWG7miMTTYpgy5RomlF0vPcMZR8XvcNTakY49zTgSItQnJhUWpHXOfb2nOEsxYYpOU4wpWE4sgfXG2PEhmaSjf1BE2mOXDxlX9VZuqpyYk8waw2PMx60N+KpoLr2wv2bj72Iy8IHuAASPok09ybHNSQwdqdj6iAdhjM4Iw91X2abRx2L6UgjasFSNVS4sFgmzTgeo7VPrkajyFTj4VziB4vutgqQMqauKig4iK+w/LNqSlxmeG7Lk6j93ex8nE8mk7a/+FIcrgtFWh6dr4mdhWXcHEtJNqGjL25uF/qkbHVLZfS8yYWHo3pv5AHSIaOq4laKqFa4DmwCMbN9ZJupEp5qM7PMUsPj7J9mhME7u2BMzHte/ekXXuSKOPU/VrAJ85Hy2DYPjuGLh6b26qTpnsvvWG28aQ9cSCzHK2hPZ9euafpCMpEDDS6LdJV4z8Rtf6luuopl9WXfoJu7e+ELyNz1SS3359TMnEL934VXe411Zjva71GYtqvQ84httSZ5jtOZWfqT5h0Wsa6bB84txy59NprZuoiS1wGVkHESqDQrBtSRhTRzYEgBgj+4/xY0WyTUyxod70zZpCZ1iQVJtZHZ1WMOzUUynxw3tUwsGmEtRpK2/s9wu3q2oZYt28pUzYvJ//GKhhoAkxdY477rhphzDrJwKJQCKQCCQCiUAikAgkAlsyAgIfOAzt3wko68SBfeXIA69aCVHurJaFG4vA7Dv3G8u31oX/SekhJrORJ3oGxgRP2nFvZxubgVS+kggkAolAIpAIJAKJQCKQCGxRCDgjIMx1IJpUuA2H/0JuhtuigF3nzq6wZQgp58Qc2XIepuQ+ngE+N8w4kiFseuYYyxkazVcSgUQgEUgEEoFEIBFIBBKBzYFA+FdOOumkvu5Iyigmc9pLLPqoZfkaIXCmNaK7bmQd/XSOzolSBl4j9dNEHhx8chbWQW2hz8NHXCaSygqJQCKQCCQCiUAikAgkAonAlomABC3Okcpr6ECphEN0cmfIHTJ0AjMu/HQ4PKPzll82VvicYQ2u9BLSq0hfNhXiIp5dvVJnZJrq9aycCCQCiUAikAgkAolAIpAIJAKywgglPeGEE9pQMBolWq8TwrfrZMmSILBJLMMlQTPZSAQSgUQgEUgEEoFEIBFIBLZMBFw5+Ja3vEWWeLdzSa4uh7mrBFwN1ZdSeMtEaZl7nZbhMo9O8pYIJAKJQCKQCCQCiUAikAgkAonAeiCw2hlo1gOhbCMRSAQSgUQgEUgEEoFEIBFIBBKBzY5AWoabfYSzf4lAIpAIJAKJQCKQCCQCiUAikAhMQiAtw0kI5fNEIBFIBBKBRCARSAQSgUQgEUgENjsCaRlu9hHO/iUCiUAikAgkAolAIpAIJAKJQCIwCYGVv89wUge3xOd/+tOfXM/47/++wWb/H/7wh3Oc4xxb4gD8v31OHGaTAZcgnfOc56zf/ctf/nLGM57xTGda9lVrc4z4Rz7ykRe/+MWykP/5z392LdU+++yz1VZbzTaUS/vWd77zHVdvfeMb37BmXvayl33wgx984xvfeGm5TcYSgUQgEUgEEoG1RmCDjYe17t4WSP+jH/3oxS9+cVrO97///Y3qPlXyGte4xoUvfOGjjjpqo3jY8Ha/9a1vPf/5z3d7z3Wve90NZ2ZVGHDFqPtwn/zkJ5OfPfbYo2b7s5/97CUveclLXepSX/7yl5e2O5tD8v/617/e7373cyfV4Ycffvzxx7///e+XdpxxeMoppywt8jMw9tznPveJT3ziIx7xiPe85z0f/vCH73vf+97pTnd62cteNgOpfCURSAQSgUQgEdgcCKRluDnG8f/24q1vfatt/u9973vvfe97N6pvbrP54he/+Mc//vHoo4/eKB42tt2XvvSld7/73R/5yEd+8IMf/Mc//rGxzKxK6/w2D3jAA3bbbbenPOUp5KfB9jvf+c6f//znP/7xj9/1rnctbY82geT//e9/ZyC5e+ppT3vaBS94QVDz0z7sYQ9Tcv/7339pkZ+WsYMOOuhLX/rSkUceeeUrXzne1cH99tvvUY961A9+8INpqWX9RCARSAQSgURgcyCQluHmGMf/24v73Oc+NvhvcpOb7LTTThvVNxFZO+64I/eO/fiN4mFj233Qgx7E93WlK11pY9lYrdbPdrazvfKVr/zUpz7VyTZLmyORA/aud71rZ4VlKNwEks8gvMMd7nDve9+7ged1rnOdz33uc8IvlwHnOXk48cQTeZ5t3zRuXtZHkcB8pHPSz9cTgUQgEUgEEoEVRWDZT+ysKKwbyPa1rnWtr3zlK+vGwE9+8hPOSeZo3aKTYMcdd9y68TCmIdre+c53vrUL7Oykf7GLXexrX/vaGPayTkHg/Oc/v1OyjhQ2MLniFa/4+c9/fnmA6hzxJZT8qRDjqnW8kOHUfkskgsLvfve7l7nMZdpPV6iEaD360Y/Wx4ZZqAuljyvUnWQ1EUgEEoFEIBFYIALpM1wgmFscKYFnPDnyNyx5z3/4wx+KUQy1by1Y7aPfVj3XovXNR3P5cesb8VUfiwMPPPDggw/u7MVnPvMZ5Ve96lU7n65QoZOE97rXvWxAtHneNH1sdy1LEoFEIBFIBBKBMQikZTgGpazTjcDjH/94mRu6ny1N6d/+9jfxhz/72c/WiKO1pr9GbCfZmRHYrCMuZ9Jvf/vb61//+m1kuAo/9KEP3e52t7vQhS7UfrpCJf/6179Yhg9/+MPbPMt+9NrXvvaiF73obW5zm/bTLEkEEoFEIBFIBLYEBNIyXKtRPv300yUqDOoyZ5x66qlOsAw0JrVGPP3lL3/Zl31RaoSTTz5ZsGih3EeQN0+jfU/pf44MSfjRV6GUyyIjJ2Thra7/kpe85NnPfvYwhc4XyysjuyP6S8xqvEUpF1JITx1utzyV/UWWxU984hMT64NdTxGfyrU4nn4w8O1vf1srE5GXHPILX/jCL37xi4lstyvU4MCf4K1pc20GZiiBOT5/9KMfTXyX+t5n5I+ZQerIOzImJxDwjVRbGEaO+IDko8DNLlcNS0x3BrpsDXF1R1QwZ3m0lAzUN1stHeWVgZqdj974xjcKAeh85MDwec5znsMOO6zz6QoVfvKTn7z2ta991rOetc3zc57znG9+85vyCTfuSmnXzJJEIBFIBBKBRGDTImAPNX8WiAAtXHbQnXfe+SxnOYtDO46Z3epWt4roOGeQttlmm69//et1c7RhGsnVr351+/HK/R1ay/bbb19Xe8UrXuGclcTxKLuRQq6Oe9zjHuylBucUTQk8pMS0tf/MZz6z3a/Xve516Hgq36Af5+7Ub1dT8va3v92RRcls8E8pdGTu6U9/OoslKj/2sY8tU8KpsPP+nx9pV+Ip40Tr8oXc6EY36iQ+pjvU3He84x1OMGpdVgx0ZIxwE0a0izG2UyfxUojb+nYylysGnzwD9Ysf//jH8en01J3vfGeAuAfSMFHch4l7OpG+bIe4vcIVrqCyzPhXucpVgnnIU7ULmHVDhuOmN72pAQoxMNavetWrJnKiwle/+tVDDjnkete7HjHzr+S0JKoI3r777ssgadMZbk5GykDMb2Lzohe9CAWv0K1L+dWudjUhiIWylI9uvfMUhu3m2iXk//a3v/25z31uYnazm91MsKJsrtF3twjU9e2JyBtJDnmq6/IxM8is3H///bmDwuV19rOfXZKV9vRB1qAIp7zc5S5HEvBz5jOfWWff9KY3RYsTR3xY8rGx9957wwc4d7zjHaGEHxcn2Puoe/TTn/7UBLntbW+r9Y997GMmgo4XY0ZuJ7sYDSStKjxdt7zlLVGTPEbqI3g25LwNfqNEf4Oy366seMtb3uIsJVuUrEpSyqaaSGH5K5gIVpUYaPEOxxxzjFS3tqhgRSrc37j8XUgOE4FEIBFIBBKBtUPg39aO9BZImTrFxiinpKh3rBoldF/pT8IqcL5F1krg0DLl6KcTRzk9nl5CpaOgKGGf2PtXjWbmdXQQD0ip+DRFdS5wgQuwQgvOMsHssMMOrI4g2LAMuRnpjvTRUIgpqRFSxYJ9/etfXw8WTVReU5ciFqPR1YiqIas8av7ud79jikRDrESuFT+cor/61a+ktsdYPGpbhiO7o4/0UQp60HnSk55E3916660f85jHMBjirnO5TzuNq7ovuDIKQeRtb3tb8FkUcYb0E57wBNRqrJgBcZ26RifK8DD9YhlKucmmddbRTX0sjeAnzN26CU8ZWlxDCiO2jRioDIphTmi3zNoYet056aSTmJS77LILI8qmQzTHx9sgMqY5FlS8DsbyOs9tyeXDYGuQfdzjHkeGefaGefaU+U3MXPlInKIyamy/aLFYhgBxjwIzKcqLZThyBnEEXf7ylz/ggAPIvFYcEWQCIcVQtHdTM2kfB1zy+hajkTBEo7ZsombfiE+UfF56WwNMX37jIPWb3/wmOLGHwpMZhWy83Xff3XyPdt/85jez9pl5TJpb3/rWUWhXqGabIWcuWExKoUtNCcMLX/jCutrw31YbHY86LnKwM3W3u90tks1Yo6QkHX59VZ4CHOy4tY1lPdFH8Aaq9Vq6Kt1JPhOBRCARSAQSgcUikJbhYvH8X2rlqgZavujEaIAyveuuu4YKcsMb3rC0yugK7Z9niYuGRUQJcy6O1h517nnPe3or3DU1r8wM5TwJDSfkscceG600LEN6NvWR8VaIUKwvfelLq8yQo9eWcuYfloqqGuXl7I0QuygpEZ7cFDVj/qY9h8Xbtgyn6k7JbSO+y7XUpZUXvOAF0cc3vOENjabb/6oTlTlAGk9f/vKXe0Q7bJRzTsYrXKxtgo2SAfphGTf7oe8AACAASURBVDKT+H+Kn4d9EhYvW7Em9ZrXvAbsBd54VGRGxsiJnAS2Niao+JxXUV9zLojXHer+DM2VQFw+t/p1FktAZD+iwRiei/d4gGemIyFhntmJqKsVAW74DEvCzIbPcHgG2RDRcZ72ugmbGrF9c4tb3KKUGyDjYkZ4pRSaIyHJnGYitKN8YMT7JN8omOAabdiirJTwJLMYa89hSCaEL3GJS3CiFn7ucpe7KCQn7NtSGEHdnPx1Hw2B4M+6ZPhv47jPPvtEHVtXDuMdccQRRtnywj9vR2n49ZV4yvrlkA9WTRD7NdZV3kI7AsJobaa0nbEr0a9kMhFIBBKBRCARWBQCaRkuCsn/S6ecvvvABz5QU6dZFn/Ru9/97vIorpO+yEUuEj6N+hUUKIJ001pbjQqsptBuuVzqV4o1VVuG/BUqi2Rr9PahD31o6PdsrXhEv1RCuW/UpJ7yQpzrXOdygCoeDViGKoSrqmEZTtudcjKz9ocgXo5QjnHr9enxiER+QtGkjc6yz8NmFuznvFnjaePfPvqqhWXI+GkMH9smYC+ONUMvyFDyjwZxR7+iJpNgmA1PjW9UFh1XVw7nsOErLtapmhPDjCyriRuzkGXGCIZULs1j3RYzj7iecsopE7kNrsoOSKmPQuyVNCzDcuqyYRl6cWAGOTaGST7VBj8lsreYauGHtynQqPnUpz4VhXpoBkbcu52ST1AR4fprw1J82nVQLoZjKBt7E8UgZycXUoBSmau2Js5vLPy73VxfCZ9kvSjV1WJNOProo/veXZXy2vpt8Gw1EBbx4Ac/eFX6knwmAolAIpAIJAJrgUDeZxgK2CJ/l3hOxl5NVzl3IiNHoeNDxQsXsZEuWW7nRQjnmCNezvI1WBQgx+PBD0ZHZPg5ExgVglqj8pFHHkl6ODBD/S1PS6obh4hCUw9NusStlZqMHLvsgtxGpmfoZGPa7hQkG8iwBMQWcsMygWYeOTG0XAReF8vXIMIyeeADH8gXSl+kmju3OXMrXoRYY/jCiecR/uPkG5uZF4it1RigYg4ZoIk89MEV8ZnMXcZ8ND1Vc6DYY489pEvht7z5zW8ebFCjiVyc1BK1aMsgypmynGOEeZhbxyBFt6oj/rlR0xlaxNs5ljolKt4dmEE8QurwQ77vfe+rGyI88S9g+fYZuuEobks+MQiH0nCPytNOPg8//HAV2pKmEHGDLsHM8573PG2FVTw8lN6qJT/G91nPepagAHEHwYkTto31Z5h/KxLjsLOOGAflLNjO/DRkQFhmiYrvpLAkhdKrbrfddp3MWFLsfRx11FFiE9rrcOcrpZAIiVRnh8fYDVfOp4lAIpAIJAKJwDIjkJbhuo6Ow4TRXvsC9KIL1gxxaPi3nLxq8OrMDMtQoWNFxTLs7A+Pn3IWJq29ruDfiE/jsFLOXUP790ejWrwSdTrpjyxcVHc0By7K/XBqx2GughlmW6etGwfAUIDtnJZhm41iKHLixdMYIKGD7QHid21TmKqk2CoFrqmaE6QqzpCbUS6cYhkSYLYEVZjMcGRJABsssfc4Xiayd/zxx3Ohq8aYmVh5ZIX2DIp8nl7n9mw83WuvvYJseESJPQe1cTEE7eY6p0O7Wl+JHDmitT3tnMiCjRnSjBb7FKeddlo5F9pJrT2UqgkcdQySLW1zhz/T/otOiRGwedRJpF0Yzvli3jcqsDBtxNhXKuW2mcTNOv/JXORLZBxuu+22bbLLVkJinSvu48rQS/vsFGjxJ/fVbJSTJUeyxV9EoMHIt7JaIpAIJAKJQCKwhAikZbiug+JoGX8Ie2AgqX1hiKoneYZ/++6fKFpsCezs64yzWB6JO5XJo6+OctXCl7IWm98L7M5AF8Y/CsvQ0SM2Dz9V48Xx2I5vcaBmDJADXZ03rQ28ONujqZrjybR9wO0sWSWrIwxpIdMSIxlTOVdf/epXh2XIeIBqORs5wJu8svG0JCsaqDzzI27YMIaFvJYUUJ3UeESVs6YiQruzzsyFIWleHzORhy3DTh7kieGzMrVJso0MdiYrhQurz9JrExF6WrZC2k+tCX7qyzCe8pSnsIVsE8QeB0Ox/daylbB+DW7nNlCwao/DH9Pe+WGJBoUAkDQLl23Ek59EIBFIBBKBGRDI+wxnAG32V6gmce/CsJ4aDdDzQq/ti5ksQYmRznSArVB6Qv0dqFa0onJYcaDytI8W2J1pm+6sXw4xsh/aFYplOBHb9rszlIwcoBkod74ybXO8UuhALHJ1Oh4pStPBNnlolbNGYgtDzhJm4YDyXZgJH5p/J25qdPI/sjC6qfJIyWfodgrDyOb6qhVJm38i9zUhCNbZTulVVBA2zIAXRFDM7763SvlAmKU6kYW4DhlwOtShRAIQyUsn0l+GCsPWLw4jjmPayAhB6d6V+XYZ+pg8JAKJQCKQCCQCcyKQluGcAE79epwck4pw4pt8NWGWcDA6B9WuX85iyarXflqXxH42905ftTBBS/iZOLG+mjOXL7A7M/NQv1hUQMlg2wQL4BOxbb87Q0kMEAW9fb6uUJsndLbB0rTNcShFiJ2AUqScmnP2TJirOy0i+4vEquwfx7TChpyIgMsqoo4DhxMrz1yhuHE2VvKHJU3vyqDPY2gZICY6/21gKypSwhvxtGPQI3hxmLCzsqfKRRx0Pl2VwuE+8utamV0aVCRzZL9Yhs4I3OAGNxhZP6slAolAIpAIJALLjEBahus6OpwtoQWW9DMDzXMwxrEuJkHJVVjXD/+GA1QTlbY4KOV0mSwynS3K9+iME+MtslZIml9yn9T1HS5y6WKDwshYsgV2p7MLEwsbfEbiUG+5+br9bvEdUa/bTztLRuLQ+W4MEJ+tq7c7Kxx33HEuEuh8NEPhDM2VzEnu1ZDrn79Iu0Kj46oMlqFUPciWew6HuRI3GxWkixyuOc9TVmtcDIg3nrQ2KWcd3frot5st4ukznvGMdjUlrl5s5LBROHLEhXdGghZhh26xb9MPYRNHOq1ZEqTKJSum2H3ucx+H5WJ54Y8VANxurlHCpPfKQAoZ/mGLTAjARGpLW4FlOOAPJMA4L7ma/W2khEwrj00iEMm0JD+N63xKH+2gKU+H4dIOejKWCCQCiUAiMC0CaRlOi9hc9cPAkx+vmCXD5Mr1BpFisVGZtqpE3siJSQjDwqQcc+lE5o+alHySXDfhxnTznkduHt9zzz1L/saoTENiBhTfQkmGIUy03YtQmhuq86K6o7mRSrmafXzSdMPfJYVGo6feCmzp9MMnMwfoFybbrJaS8kdJ4OHmCdsHDTylkHXtQVxO0IZ6YkmbgRmau/e9780O1Nad73xnobZlayNOGJIfmS3H5J4Jbt24GGdZZaxpu0mD4YYt1wZtYsdVCMmnvjt316iPoNwhdlVIiORMflSQZ5IB0KgpClQWoojV9KhPouKt4LPGXP3HPvaxnpp6hK3Nxsknn6zwaU97WuNR+9/2UKrDVaiDpbLjhTY7Iuft6aef3ibSKBFmKbi3hLw2nrqywlyQNLXcCD+RYKOCdePUU08d4/G2G9UXzcun10lhJHG904v2zApWpQiy4WVNtuhFiQXhIQ95yI477ihA2iFb0bk2F+SCtqNhASzGISc5t/nI3ZBpccv6iUAikAgkAonABiBA1cifxSJgXzkGUgxbTZleKL27fX06Sl0e9sktb3nLTjZo5KjJDei0T11BJkN5U9yV57LsurzERtb3GTpwVfbL6fRO1MQrNEImh6OPzolFCSW4nKyjKlE643wgdwfNmCZd2qKo4QpvCEYhxavc/hd6tsNOjU5N1R1dCyTlZanp0NsiU0jjMr1GW/GvhIRB5OCDD44SSMat5a66jkf+aLxL/9MEO6GTZl04QD/SikK+QcT9BNGupI7lEYsrCkFXLjfXU5sCtHz3LkzkpNx4IdNJXZlaH5TLKHs6Q3Pca0GHQlzTd9efcscLxS5OZLJU4N0Kamxv+n0pL17TbbbZpqZWbAZGWqOVgRnEwxmioi1Wd7nK3ElaGr9RLnc8Qjj48Zu8yabDNIU/fljCb33rW0ujAyOuTqfks36jnHOSlVLzL02rFu3I1IVxhaByeV/r8shFrFxS0FJuv8bQNzCJNMhFkBpP63+Z9O7tYEy267DHnIh2AQYc2k+VhLuMO67zqUJTOE5Wu/ukr06Uf+ITn5DPhhXd5oT1pcsiNhsUxhPnmtbHRz/60W0eCC3TztWmdjfKUylehUz79x73uIemZTSNR47REqdYii2Apja3YZtmliQCiUAikAgkAiuKQN50v/iBK5ahY07246MBui8lw01ZcbVgadUZwsinz+/XUBmjDl02/DMOvJVb5vn0+DqUfPrTn250oNMyVEf2wnJPF+WGsuv+LnoYD0PDUmUmhckXijJPUbxI1wyDqrQYnk/OH7eBc/7wRAnB8hTP8YoQNUZpzeFU3dG74OGOd7xjTSR8LB7RWRvdb/9L84skjewrUbJ8R4wiSr+adDv3MUCDSlobaQrPcY5zOLLVptYu6aNPmQ6/DZDF9dUvljseeCRK+de//vWSUkjXJO3koAgrnUOj3W67JPy93uWiqZ+Wu1Lox/M05xZExJ2Fa9gJEWA8UfVvMMzSK7dBXPva15buksHpOj5nGov4uQCQBy9elPIkhGH77bevSU2cQcVT7XWUHaYVtGnQmQpcajWpRsAk8GNu1pss6veNuEcDku/SUcfY8MDOKQDy9ZmJdoUaEnLIIYdEZ11HUXPo0sIoZ86VcpYhGXOvaSnBhvWEy4uE1693/s0Cl6vGLkaDB8MhvNxkaew91UQmWoZxCw6eIWnnqJOBKCwuU5e+1tWY7jELDFmDwnji4CI/PNWNBdNK4nwmSTAQdaO2nGIpY8mTlrJ9YOOsnlw15gNdy0eJQCKQCCQCicCqIJCW4eJHqliG9H7GG7WD5sej4hxRrZfQLwUsxYZ6aHssgcc85jENHQV/1DteJo4RihqfG9eNW+C4XDo1tj7LEB26aTgtozmali1w9dsQ2L8PF0fU5DegoIc1VVdWDUtRxxVqOEdN4Fz9LuWeal7bhyO7s//++xdLCas01HAmUEbr41jU34n6GebLPRw777xzw7XFDwN5ujWVnc1GF2TiNjy0bYjqkjZ9Jmh92zsjPFR5uqyOFC8Wr6/43gIOj+tOO+0UQZuBKn2dh2q4dU8//vGP61e84jfxMAq2D8gbgqWctUDAirUwbXNeFHJcW7PBmNOnDGm5MSfy2ahAgHfbbbdyuyNY+PHCuNIQU0FOUa9wSTkAViRNd3bYYQcunfEzSLx0LTO45SqHT5thhznrhggD8WhXa4/4GMl3jlTArU0T1qlx1wsS7mRjPbMYujpbrlGxbqjJcuMHtlwUrPxBVqWZwRszhtdL+IA/wIIgE1RDnetDoy9YIu0KiZnNJuJhi2e//fYzneU7dbSy3fe6ZKJlaC9JEKaLHHn8yjZZJ00uOxs99gh0tlGBPWz4amM4Kownro96Clu7JOx/w2eHCGNw09+2RzRGJBLn7r777p0MZ2EikAgkAolAIrD5EDiDLhXFMf9YCAKsuLhHWywWFY29RCPhPyxZN2ZrhbJCZ6KscMQxMvsyRsgxExkOeXKoku226NNC7CjHtF6/2xVKCf45dnCuF303HIpHtYlOma5tzgGa5dHI7owhNaYOvdNA0Mj7rv8WXkjP5lOaIT8hBibSH8Nk1OGgMNAcyKyjiJMc/+4MNadqTpoi+JSDdqU5ZuHMp63o5frLfae/EfPsHJf9lBn6MvyK42T41wRfZe0Vb7wFECJtmvAmlctL2pRnHnEjq78mDkOdAdYGs93WcAlWYzXg0eJ5NlWRHXMvDrInnHACb/lBBx3kb5Y/fBAJf3XfClMzc+CBBzIOme5xnnOAT7HcnL31dslA5WkfDRMHuP2jyLCKMhveZA/7nMk60JY7WmzDSUITMfADNfNRIpAIJAKJQCKwORDIm+7XdhwpoJxmfuZvRjiWDfWJdIqpz3HUWZnCVxKQdFYohexPP8N1KKATM6N2UhjZnc53ZyiERh8gQY21UIIb14L+eJp8hjNbWeNbKTWnaq7vtpV5GDZHGgbDWpiF+svvVHsO+7ACyMAVDuWtiRLVR992TBxA7aswbXkx4dixA6ZsJ1n2Upm/TMoxU76TzsRC9ticW2MDTQwTb9xkaONs5O0gEa060egdYCwfJQKJQCKQCCQCq4VA5iZdrfGazG1JPTpsCE0mlDUSgURgsyPAanL6bq17abuK8TYcoTAzDxOJs35H5oJu8OBFceDlVsyZOcwXE4FEIBFIBBKBVUEgLcM1HKl1i9QVmVa64TiNv23P97l31rDDSToRSARWBwFhlvyEJRfxDIxH9mDhrMPvulbRCdLhOjM/nUjcKdwZrF+ncMXWjgyvmJn5fDERSAQSgUQgEVgqBNIyXPxwSCgSRMNIW3wD/y9FGRScC7r97W8fNzI7Q+i5i8j7TgauNT9JPxFIBFYCgUaY5XieX/WqV/HCSSrjDJ77HqSllVFWSSw+DTpy56gvO854+uNrTiQ+s/XrsKutvbgwYzw/WTMRSAQSgUQgEVhpBPKc4YKHz/b5cccdF0SlfXc99PwZJoZZlFeDBqNRxiH1SzIGZmG5LG743XyaCCQCWywCkhVLmzxD96Xr9DPyxUMPPVRSrjrj7sgXx1SbSJyBt912240h1ajDWyhRTV/CqhkI5iuJQCKQCCQCicDyI5C5SRc5Rq9//euPPvpot1oXom7SE9gpj/wim/l/aUnyyW0ov7wcj26WlwBwtkM1a8dhUk4EEoFEIBFIBBKBRCARSAQSgSVHIC3DJR+gZC8RSAQSgUQgEUgEEoFEIBFIBBKBNUcgzxmuOcTZQCKQCCQCiUAikAgkAolAIpAIJAJLjkBahks+QMleIpAIJAKJQCKQCCQCiUAikAgkAmuOQFqGaw5xNpAIJAKJQCKQCCQCiUAikAgkAonAkiOQluGSD1CylwgkAolAIpAIJAKJQCKQCCQCicCaI5CW4ZpDnA0kAolAIpAIJAKJQCKQCCQCiUAisOQIpGW45AOU7CUCiUAikAgkAolAIpAIJAKJQCKw5gikZbjmEGcDiUAikAgkAolAIpAIJAKJQCKQCCw5AmkZLvkAJXuJQCKQCCQCiUAikAgkAolAIpAIrDkCaRmuOcTZQCKQCCQCiUAikAgkAolAIpAIJAJLjkBahks+QE32fv/73zeL1vj/9W9xIR36wx/+sBA6I4msKEojezeyWifmC0Smk/5I3uas9q9//euPf/zjnES2qNd/+9vf/uhHP/rHP/6xJfT673//+1/+8pctoaer2MccnfUZtQUu9X/6059+8IMfrNycWqCkLfBjB0aMrY8MDLcyVaeGK//1r3/929/+Ntxc/XSBQzOmUbzhcEzNus7yqBmbxzI0EgcccMBnPvOZ8YNBa7nvfe/7ve99b/wrG1Lzz3/+84knnrjvvvte85rXvNe97rUOPPzzn/+E5KGHHrrddttd9rKXXYcWF9KEeYXtAw88cOutt37AAx6wEJrDRL74xS9C6WY3u9mtbnWr4Zqb9enpp59+zDHHPOhBD9pqq61e/vKXN7q5xx57nOc859l9993n7/5RRx11oQtd6OpXv/p6Wmi+qSeccMKee+55qUtd6sgjj5y/F5uegkX1Wc961i1ucYvrX//6ROK85z3vXnvtNdUnfIUg+vWvf034fUQufOELf/KTn1whzrcEVnN01mGUF64qvOMd79hxxx232WabS1/60mc/+9lvd7vb/fjHP16HjszTxMIlbSEfu1/96ldveMMbdt11V9/Nb37zm/N0cM53v/3tb7/whS/cfvvtr3zlK48k1YcAUtSMu9zlLhe84AVPO+20idQWPjQTW1QBY5e85CUvcYlLnHzyyWPqL6OaQZneBD+su2233dY0mLYvX/3qV2kwxx9//LQvrlt9Csduu+1G8wgJ22mnnda66Z///OfMqqte9arRIt1urVtcFH0a/BWucIVg++53v/uiyPbR2WeffRgq0dyNbnSjvmqbuPy1r33tHe5wh7Oe9awBwnOf+9y6s4yEc57znB6d6UxnYs7NicNtb3vbaOV973vfnKRGvk4jIUXnP//5o90jjjhi5ItbbDVqogXqpje9qe1SIJTdGUb15sPElgHhP9vZzhbi8aEPfWjz9XF1e5Sjsw5jt3BV4bDDDrOTaOHFvI9LzKz73//+69CXmZtYC0mb/2P3sY99bIcddjjzmc8cGH7lK1+ZuYNzvviyl73shje8YbBx0YtedCS1TgR4R25+85uf4QxnCGqf/exnh6mtxdAMtxhPDznkkOBwv/32m1h/OdWMf5vI9/JX+M53vnO5y13u7W9/+2ys/vCHP7STQYZme3193vrFL34RorYOlmHp0TWucQ2NrpBliPNf/vKXAdQ6WIaa4ww53/nOp8Ut0zIMUeE2CcwblqGnBx10kA3LMevjxHn07ne/2z7cbW5zm7A6JtZfVIVjjz02epeW4URIjz76aFi96EUvippGii+d53AD9ZKJPM9ZgYSHeKRlOCeSa/F6js5aoNqmuRBV4fvf/749xLvd7W6F/v7773/uc597hh3/NodrXbJYSVvUx85eeaxOG74Ci3fDyXjLcAABgUjRqYmWYQz6YodmjCBxbApb0+Uvf/nLY+qrs2xqxspHk/7kJz8RubTLLrvYvg1xmfb3xS9+8Te+8Y13vetdP//5z0/77rrVv8AFLnCuc51r3ZqLhi5zmcvM3yJTrR1kOD9ZFEynsjdTCLLT/uP/a+8uw209irzhP7gPAzO4uw7u7h6CuwbX4DZoCO7B3S3B3R1Cgru7BpdhGGCYeX489V519Xvb6nuttffZa58+H861dt/d1dX/tqqu6upjHGMt9GuI2MnSnFuTfyvybB3CldxOjJMHPehBv/jFLw488MBBUgcddJD7JIOf+ol0Qq4BNow8B+3nWTFlEMmTnexkK5JdovggJ0vQ2eYiz372s9V4kpOcJOrVU+9+97sJfGc5y1m2mZNtq872sW11tYrmIrDLemfWgjkXq1XyT2wB9WQZl1wGy9VDwQMOOIA3IOkuiOzY5mNvvSNtXZvdEpvXFm09czmZQGDuYFtv19SMZxy61vSFL3xh0Ht2EOG5+NSwsUqejdcMb3nLW1pNHvzgB6+CAuXeVSiHVdN3XlepYvWyRznKUVYnMovC6jXyLuMK+5WvfGVWvZWZH/vYx4aNopM/nQ0q6ayYbZur63C7pQhXIrPcOPnIRz5y73vfe4lb2pVczc02huT29+8YJ3NbtM353TjVpyrtjIftB3A7G767W7edSG5FXbupd3bagln213JbQKfH3/jGN06sHju5+djemSNtLldbt/XM5WRiNZg72NZY9QRXlZ/GEN5RTGrLZmuG3JZ4gTpYclO5smPGsgmT8O1vfzuN72PZWvosBB72sIe9613vmlWkMrN+X/E4oLKiHZ5t6xDe0oZz4XYQs0MCpkVLdw6SO4eTWWPgu9/97qz8LXNDoCFQicAOXDArOa/PNhElZW9ofj1QW5dzQ7eerQNk7ZQ3BeEN1gz5oUH5yEc+skhW0/1HAGW2IrhMSKICYV3gAhd4yUteUhPvaLq68qsTAh7e3/rWt6aj82EMe1/60pdWNKGIRvW5z33O4X09h6vkFFYEXDRqjp19Oi9+8YvTw7v/NVMgo3eOOOKIiTydT9roGiFsa4qIgwJ/2E53AVKCbnMA+OMf/1hDdiyPrgQIOgtDaAKNP/oYekmfO40hNDgwKhHuswoT9U5jbiylCZ3/A8x///vf90nVpAhUUE491Ph+T9c+RlacXoD0v0r0TEKkYxu3/Mz72cZSZiGpZ8WkJccMDvuyCp60NQOvLLKQE6M0h6gAWnkDuSSi79zBWIjAD37wgyxlKHKnn54jXqGwTI3Nu8qJAzREPvWpTxmBEwsyxoxSAAaHUXWn+0r+1c6BRys6ebTom9/8Zlyz6Xzq/Fk5/WPagnfhBJ+obmJSRylsZ9vtdEYR4XiCoE+zNhHzyBrlYYCtGMPTfPqqUnEXTNKcs4NFlpjUa+kdzNRs3MZksG1x1kGDTyxU7m7TgNQvmEssOIn8NA+DHVSfGP0ysdkBfGxC1Te/z09lo3RTRkC17BBIJliNWlYfaQvXt7HNLhiIITo3tD7h0Do5uPku3Hr68JYpNVOmzO+WAU6md41pBMb4Wb1rxijPSsdGZwuehXC9mDGLq9rMuN/Qf3GnRWTRCf6t10Ig8Pq98pWvLIYs0+Kd7nSniHzVL3Wf+9wHauuKXEIWEXBZsHsMePjh6Ec/+i1ucYuQJsuqSRjc6M9whjPc7na322+//QTmuuhFLxqrUodDkWCwNxiBhkzwtKc9TVjO85znPN6ZECvSxR5e+0HBBubOLvd9FPwTLyTSP/GJT9zsZjfj3xzp3vzo1KguNQ5GoHnTm950sYtdzC3b/ffff9999xWC8sY3vjHRKik84AEPyCHo4l9Ucd3rXresgmRwmctcRvThMPmKL/KkJz2p3y+dFD4nGQyTX0FQ1rrMFl+jH5/73Oeml7ku4IBq/epXccghh5ztbGcTK8W9QWcN5zjHOeojEoUruQg0KHvBIq9JaJTgpbqmX511mRe0hkf0Gk0Qfq1EL4qIaXG+853P8GAdvfa1ry1arMBcYtXG1xqE+1VbiI1zIVXve9/7spDzoxZL2jDInNZiwZwY9PSaugjf+jf8NyCDn8MPP7xD1hiOvu5EoCH2CUrpwgBULZFRytg2E3NsGPDRg1SFPreZAkY31oDmtm0ZkIAk5DRnn3320bms00Q0WEVAVFUYorafCbI1SOZrBCLQkNE5FxznOMcJ/g0Y9x779MmIrlYaeDLwEoGku9D9ud8vONGnxAjjwRKhdj8o2wK7YwO2rkkHKc1/ylOeYkCq7l73uteFLnQhtM1x3AAAIABJREFUDDidKStC59BDD1WRqF0RNukzn/mMVTRaJNJmxo8pS2n7mc98ZounguoVa+785z9/ZlBcJyYsfkSf+p9WltmwJ6SE3rfEGc94k8HSZEx2oCCZuaEqdI1FSdff+c53DmcbmeWkwWqUtU5xf5J1ZMg1AXGjQroDArHszLJomh9jQWLqp/8rXvEKiznorI0WbQPSkhX0x4h3mjY9qa0hekczcWuxIhzc8573zPGs6he96EUdgv6s30RkFohb353pTGeyJ4q76wa7AFH9Llh6DPfZK1OsA3zIncO62G/98QOYnUm09KRevXewunDjNq4OPvhgy5r1UP7DDjtMK4wBsVIcTGRjK3e3hYDULJgrdtZCHqb71NcJUWHhZmeEm8g2gphHKS1INNprmj/IXk2jzK+3ve1tNl8bsZUNHfdTcnuy/nz0ox8dJL7iSJte38Y2u+TEiuf2kwUZ7HYZQJnL3gqyRdqt/DNEI7M1JFA1qm2FDmQN2kghvDkxT5oTW88gAmXiwikjs0Cp6o0INFC1egcbFnYSTmf9mUaAmBFlByPQrNI1VqTcuaxLxDmc6ywbZZlufU65TgRdHeErkZukHbBgjOxHoL3jHe9YifASYsbCflklwwbHJg1pZiLsIS9TMsoLX/jCAEhfRgQtm2KIDh3gPKRjwJG02EZWwVRZE5Ji4MJ00rnc5S4XE6PU+j74wQ/KxlZJZoqctDVTxW5d7jHxyeBDoa8ZOoA3zWz2To8i54c//OGYOXSAZCCDtXQifREUInOsjGXDx5b7IEVEzsyxAOmR1LvoOXmiT6B0+utfqfw8+tGPNpdCz1GKqhmy3XWuc51B5S3rimOk6Er/B2X/Z4agY7kJycNTe6TMvLXsnZyyjfZUmo+FNVSIEF4BYgEVQbvMOfY7NUNSOxmONlK+AHmFK1whl+mgYPm25Vi/nFNKcXgRL22gk+qTdC/h0HZSvZfyvOc9D2Pvf//7g85ChAcZppwb/8kS4xI1mKwfmRHHf7q806sNRUMLROT4GCfgNVNK4oOaodlXXr/OppmGOsuQCGoGSfTgoAodtRDcvUkT+f2fA5iuFZt6fAKphyWdjBjJMXSla84gDmXiNJK5ZNMBaB3QsOjbG+I4w3KhCSU1fxrY8sRoZ9MLpwaij4k5zcwYJ0RnTUsE/Gmu6bhIceSErOEUUbhMpajFPCK/ykMWz3otSgmmDc/G5vTK0LVWpEjUORZ5+tOfLpaMDTKI0C3jVVU/IsURgE583eteF/xYcnNWZh7OBec+97lpUxklj5odDJubYqwHKZqkt6pSfKEZmr+meaRg1bGrJSL+tCR6wsQwo6FRiQ2qGLrIClitOuP2cY97HDUymqbL2B/KLqif/sYnGHW3YZY4cFrJyVKjGU5PakuQw8S8GWEYG2wEFO01Z7P3O1te/SZi5bQqmsg5Dk3/eJTFQyO+JjKrjOES3s5vZk9rndOHFKEwQFh08JSDdrlJvZbewe3CjdsikA8j6RGxB43e3FxSb6/c3WoAWbhgrthZNTxM9Gl8GhMVajY76pnlwgYRI5zOk6uH6bmw+YO8VTbqrne9a/amBfAud7mLRZVgc4c73CGkCAeR1LCyihVH2sL1bWyzSx4ARRt0pGvVlWiBtWAGdNYiC5R/qTKlZui0VymnwJasjOhjn8r1eWzrGYS3TFw4ZSJzaoZOVRx7OXr27rTdOThnF0maCxEY0wxX7JpgIMFkaymbGfzjFnsdTOKh49jCIE/EIrlFu0rNcBrhuWLGwn5ZMcOmaoaUt7Bj5D7dASJGTyfQPCkhOqwfXl9xrjXxdekHMIIHh+7odPSKl770pUG81NbimZeOlZIoIOdDH/rQTosGNUNrKKGB3a9UuhQMIuQ5W2/QcTYWDHQ0w2x1pWYI+QgOWWKbLg0f+MAHkm28RY2lDhlfX/WqV1nFQi3M/M4OI7+vnbb3/4wzJ//3P8Wa7gTXQp8qt5PLsGkwpJRFyJ1Ek85ZAIEMJw4v+/p5v7rQf+iEFtyUOzWNThXNYT7KUtz/5KRal3SMt8iJmUwnDkosdUWfqAfl+foEwn0+pUT03XK1kvi+972vg0kYz9VuaKWFkJqhH4NPcnYpRw5qhijbdUIz6TckSWnCIKv9RMJW1N4ZwFaASNePb3/727OgXT/SHer3qXVSJpDMJVuHsk9mwZxQlMBMNN7YY73FVNLXifHqHavvhAIcRSY4yVvQ+otlSX7HHBD++Mc/7nce8aTqJTHeBKNsdNaHkIdwZRvLwW8piLi+aJb8Ux4M8jLFOCczEenKxLxR3I8yD5Z4H7XTF0YRnUQ3CfBbSmAZwpugFjs0nQqqohxHjbF/W0OIpOUcIdKhJp0LAKNNssdzMgZDZ7+vn/7kGBTKuRzEuYQE5RrNsGZS57iygpE58piMREXmi9aZyNm0+k2ENAYZSJa9RhAP/tUb6auP4ZJ++fv+97+/ujqR651KSHRaUeacO6nX0juVGzd8YoPAtnFo+FFg7NemUgzF+t2tHpCxBXP1zqrnYaxbpQ9qhvWbHQqWghiHne0pKh1r/hhL9Y1K+Yd4YHanppTnXITGspa1jLSF69vYZocTh0eAcmibXDG4hVuBtbQDSGqGFvBy4ucWv4o4oa7KKSNnaFb2F2flhLHg027odFJzpKekGp8mEBjTDNfSNXaNGIfE0RJMds5IL5FPVjsSFAPP4GCe2NxniRmdXt6KPzdVM0wxyIlpHxdHkuY5H49UDCIPgcaJqfPmjtEjvmYA/c6Y6NOfSDHoyUxUNdTKbBa+kMZKhSr0N3tzmTN2+vJVn/g6qBmSSg3BjrgjP1uTdGeZKcGPyW15VlepGTqMj2Nyum6yndCVrmhj08A+6uyfHaADY5o6O9NsEO2FmqEFqFPQzg0TAyPTmUEMhnBRKzPHEiNzKfQPsiExNENqQ9gAMxshOFYHEh7DUaTTHqHHFbCkBpCQyEl+cRDoa4yWdP2N/CRjm0qWHUN4jNWQt9hSSqus3zabssgzn/nM4Lx/RJInZ894xjOyyJhmKEPuQB0Vd+5Oj9TY0QY7Z3DbOQbKpXzQAa8D0QSSuWT3tYLwVGQSTGrh4t7pNV9ZMoPJQe/TkpkJTvL1F+Ozw78/Qwk0nsvjjFwnmezKIuGJ6hQ5JaH4yg0Vn6ZnZg7JycjM7Tw+8UDu2N/GVhj549mSQfttcsjul5VyrAi44Faynb/zSavOVMpBQiTqFIzXZUrH6frpHxsKRbpjQFBFiik1mmHNpMZVtL2/DaWcRyHJ1lVuIgYespx4O7C4MWvxccid2ubqY3iwyySGEsiloswQQrzeKRNnTeq19M6sjdsoij7qewHM2t3qARlbMFfvrHoexrpV+qBmWL/ZobBezbC+URbA6MrOAb30sPyER0a0fS0jDamF69vYZpe3yhljy+6weGoF0aKjX+WKkU4ZUYqnUrQ6HCYjcWLrGez6WVMmJAeOM50zSg4pwUnnOskYAjgZ1AzX1TXohwTuAKsj0cXqnQ5WiQlZtCNjaGM0qnPMMYHwLDFjsDvWm/iPM8hN/JfX8UNf6jSBOxN/OcpV5+kz3uScVRyxDL5wwtZkj7SyL7zrP4EYZyf0idp57yUyo2w2ko/T80S6K3O8oSw9fYKkrn5iJ8XAjY0h5fXMcNvb3paQx2sx7doLqVVmoG/Tq93VdLGwX6SGbco8GyNPhjQSBp28gO7iE5V+Rc7zflEyye3bbwPD/IxhE0fyhOYOJ1w+ohTLTL+NgylWjTjRz6/0WwfhYm1T9lh1eLhZL+h1DDj9wDz01fCcsT6G47Ehav/gLWkxDXkdZXttLjqDbEwnxrBnP7nJTW7i7CAOGm0nPPHKghkVunxaKjK4VhoKAL2LSXa6Ol87mCzMP5FhjFRy25lx+UBQngpPEK/51B9RbKe26pJ+uAaYIKmXBuUMCmVEpR21ptIyTyJQepZmBmPD2C5928qynYkZoJli6bcZmQO0skWO0qyilhpHLU4K0lPaGM6LhdMNIWO5AyNPeIB3Msc9cOdNNFtiSjgtT7cUhez0zgqfI7YzGBTRfS4RZJwJKfXTX2Nh65Zv+F6WTRjcgMYAqZnUE7OPz5VDAcdw5eiq3ER4EeOqv1OwylqNAZ5N27ox/JjHPIYtd3D8D45PDNdM6rX0zqyNe2J8ztrd6gEZG1Grd9bqPAzyNmuzG6SwSmJ9o3IB7Iw06U4rrITlYriWkaZdE+MnWj222RGNIkNuKPEna2Gc1NPWBlekzuYVspCyq2yOs6ZM8OlwrbNrlJy4V5WdPobA2KhYV9egz5HEsT5ZnagTFtqolMZIJLP2UiJci4hEApuj2HTQjcS5zJeNqhEzxkBYY/qmaoY5MfoSAHTiHLq8D5CQMehNPBlPdTQgBsP9VYI+UTVWS7UQQc7i/gVlspc9niMKZzAp7OwLa6Rv0EItYR2yUbC87baQ1KwM5WxxRmVJ4sUXFGrYtnfKTGvtdxBLVNChJq2oGfZblEMF8fganGCjw4k/ua7JMzFUOvTDjtpJdAwZL7y5jkIzdG6nl51F9RvuVl6UzTMLyqqylFgSOUWOAyrE6HKhzvVbV5NCtHXvnL8Efz/ECeIoK9jnZ4waOT70hFSex3Lu8fRcnRlFt4iZGFE5nCgP9gl1UYE661IiXN69XJqrVB5KCuaLE8pMsYe5mOrgKVJqJqacAVqJGLLiu/BKcLDFI5SFxz8bPLtiJf9OIuKsdPAxX8sXsYZm6MjTgpYXRIP4YEsn6u0oih18/FlKVPXTP66g1zd5jMMVJzXljd2VPY38xwc4gnbUbCIMMtnYPm9hTY30LR3DKkonAtVZD5nB2Vr9njU+5S+H6Fp6Z9bGnRh2Dlakz9rdVgRkLZ21Ig/94RQpsza7MSJLp6+lUf3FcC0jrWzU3PUtN7XOE0HhOIBa5RrVl4WWgHq5KdOpaC2coLnGrqHmWagd6LMEpqxr4yCfw99K5VLJIx/5yGgITyW37vNy+BIwLizSETMW5l9Lhk3VDFMaGxT7Ytr0V+2FkMV5BnVrYc6xDPEmz6yqKaJMf6aZR+EdYxO+07I8VkukZ12zqpumWf+VtsOs77yE4Ch+QL3GItCCWsjKNUanen6WyBmc0JcG7Z9LEOwUSeWc4OtTVEeqrmk4EdkNh3C1cl7AXCPqJrlqleMo4wQd19DdAOF9YbwZeByAB405g81HgYKqOYoPZtibE2ESvkn07UEtaHvAoQ2amI4e3bRkfx400czixDgU5cIcp2CwWdkX0e+ocBME0wWD5+dgtjw2Ts/2wWxrT6yc/tTayJk3h5fmZPVJnVgxfmY4R/xMbyK6IHbMhTvFNoxh/iAWND4LFl4nYpag9HlbAth19c4SG/cgt0vsbksDssbOWpqHQRAkztrsxoismL7eRq1rpK3SKBdcnVYTUJ3tikSVpOL1F8e+caF9lSrqy65rytTXOJZzvV1DCwjRiEcrN5M4OGO0cDAKYQsXW4h90FqqXh1RKa6PMb8z0zf1PcPcpAffWAuPu3Tmroc+qPVdhuopRNXCAVcW4eTjvIcvjZNgCkO9kQr9qMsZRv8Vr8ral8vmqJJ1QnREt4eFMSTuzFJXwms0lpXlGFhXqa3mJMW4cPCI6gjZlQfkbjmCN44DYS4EP4vBitIzlgSVySiOTna5cIRPciWqbJ5yxnsblUX2kmzpDr2nxrYTMRfzRGEhNNi9zNBBU/bc7uAJ7+aklSpOfwxg19Xc5KkcxlndmOdSTpMtPXntt7py+nOLiLKlJ2qfWmXKipM6Zp+6ygm4cBNJF/SFG9NWj2HxrjiUuvBMohJkotLEMYHtunpn7sY9xlLloMriqwCyrs5ahYdpHOo3uzE6S6evvVHrGmlLt0hBh0FCG/rhejBrVZLy2AadkI1rFeJzy65rysytt59/7V3Db18tPLwiNIOJRjMkgLmlJd2ph1CLfrgB4ZJh/cF6n/Mdm7KpmmE64+aYKCEOJ+CMMlSJPnemoLbK2fCsqgUbjPcAXfRa4rAnfZ09GFrZxtWzOYfzCKEATRzMMq7dLLLh+8pzbOKZ40FT8KxaajIHJxkDY7CIUTGYXpOYlu14YCCqkxgeR4MUOg1n37MHCOARQjlnxYh3Mli2MlFEHHZCnvRxXU2HhtW3snhYfvLJhMpSe0O2dOqeGFFbN7AdhFEF3WN861vfmtHA1wW781FBX5iab3WrW4XdySUTT2LW0M/HMMJy3i+SwSe2zgG+X6mUyulPGQsFe+6j0oOVSlxlUsfss/2lC2jNJhKnS6peuFNs6RgW8N1FR/7JPBfyOGAMpcr0dfXOrI17grdZu9uKgKyls1bkYQyKJTa7MVJLpG9Fo9Y10pZoTlmEcsJz0pGKXVskJKdCzuksrYIhbbOKsq4psyIgiq+9a9gG41U8IUvQp3JTCphABI8Qe1yK7c//lPOIhr16E3YahU3VDHMOxA2WDqxxmccuyOQyiLgLyv10iko4g0Xf9zPUpDgQlY2nJeerwfxcs+KsXWTbiMu0nH6FeNTlRwTi61fHhsBvp59epszVfASTEP7YfR4G92nK+bVTRdy5Ig466Bqk4Jp1RgcdzDBGeTpz/2twQpiOu539DDpobAj1M/dTnJhK5CbuvUQ/8rLZ2Nkek3W8FCdz2vEcGTAB0Q9jWBrVDH2duio7kV067wda+Nyl1psh6GeIsH4ryhQVhZvQ6j6KQbaS82mu1vh1FX4c6MaJlcck8lCgwxvNqiZKk1JzOSEooGzrWq/Szp2GwTBa4RKsHdGMCBu4IepUdSH4LsKFF4bol4PKYdgSoRcRzBcSXFeGyulvAsZT5qbemENsJUuzJvUgzVhS6FehrFZuIlxRQj9nSR70Azdc3TpW43rHcNkEXg+kKDusN+4rYxcNItBJXFfv1G/c01zV727LAVIuC6t31nI8TCMQX2dtdjUEI0/NqrhFjVrXSKtv7FhOY9VZD/GJruKESPAV57yhyYwVmZVeAzKC65oys3gbzLwVXSMOjbqEJ7TGstO61xOSUpgN3Tl0vMWBy2o2yNJ0YiXC00S29OumaoYGpftOoBk8x43wIb7e6173clm/g6DLo4NuSxmcgE1sadCzal5Dfe8pJxAkrfC9zMDcnW0ybjnWDB1H7DE5PRsQ+3rJNjGRmpHh8rPJHStreifW1Ih+sE0zjIcWosa8mVkSSRfTfNMiMgv7G2KNB+hDzSjZBpq5l4/RjXVEEO9QjszBQ785mZI/XHRRxJ9qZDrr1CU0Apk4lLoxNqbT2UVlcD8wIi7Gy5NSeFJlzJ6kgAH9lYFqDZUMqC0P2VSkrMAtIySNITzGFWwjeH1m8Hi38Kf+rIy65A4bPjVkMKBuv94+5pFnLudKjZHqVxop/QEwllP6BD8T9cansqIYUcT3hzzkIf3qHEhZtaad1Sc46RPMFBpaxDoaXExK9CaIDGYzxeIl3ywoUm68a0KdKCPljgElLkJcl5Uh36kr2YiwPZ5gnogfM832cl/rp39Y17W373edRuByto7xUzOpx8pKt3QTU6Dk9bzIVr+JxMakN91Z6BxbaAKdLWMjzR3DdrQJnvMTvTq2nrEhWkNkcFKvpXfqN+5pPut3t1mAjC0Lczurw/wsHqYb3vk6a7NTdmz1CLJjzR9kaV2N6g+2tYy0QZ47iRNoONuljZBMBErxeo0od+6/jd0aGKMzmD4LZAzPmjJRYx/SQU4Wjoc+hmvvGsDG3S5Sme01H6rxg+hrIWXRIQUN+vqNNWoC4bEiCUUfuj4Ia0zZVM0QBNzq/N+JDh/Q6Lx4787bUI5SmO/inJ7ERgfgbTUYAoRZRnGn/mXw3LlYG0+O7ZVyo0PVnieOY2YKGOcrouHDH/7woJm3dF772tdmLc4huGz5sx8FJ1SX8m6PM4wIBy8/2cvNHw60BBQ7veduRPwrI2Hkxs83Ook4P6a3hEDWf6sjBIjObaL4k+M1GLMh4fveYZsEED6QLKiRk1VWjWwIEeRXp5jP+Qyaoa+nOMLpo1ClEpb+j7hv41zAAaGvygZufgRQ6aKWZfNWRiqBvMnDGkCFowHmS2Jo8u/1LHVf3+5zEil9L0HWbJeVqe7pdMeNivgb+T2uSLxOEY2ZVAxSK04qos4p0lYTRSgVwW2eDo4hPMak9I5sKiWeGo9B2ynYP9qI9y3YqEshPlvRv3iWmHe6I69L5djIH2PMj5HK2jtLZwwM1GpE9gkkk/7YiCrPFETUiHBzRo5FJk1MJhfhm8EtdKSxNkqf4CTh7XOi7TEC2ZPTKMQELTxp1NVZT6JR/c0mQSvHsxnaOYCLMcMsUN52Sy0xiWQzhXoLi7fh1/EhF/IUz9aEfKJQqYmWBs20VXaakOn9M6P4VA7R+umvW+MgzMgvz3RQ47cWLA2aQzsdXTOps0h/9vHhNwvc8SZ2R7ZszsJNRBNiNbbGUicce8WEgr+wybpsn332CZr1Y9h9Wuubl0IYexdaU5NVy1pOSc4aEVRQ1eUQnTWp19I79Rt3OT47OrZP9bvbLEDGFsz6zuoMxc74qemUQQqR2BcVZm12iEysHr6ONX+QpVnA5uo9thiW28daRhqeF65vY5udgiQEaFscyqVsEAeJY5tXXxaSeWLrGaQ/a8oEJ/2da5AT1Y0hUDaqRGBdXZMttVpG5Haedw7QU+AJt1LZnHOFXbEPzhjzEwiP9VRC0Tdd9OtdZ4r5sKH/aAKEMJemjI9+E3g8lq+xOVOJfZGdTSCBfn4pIbSR3Qe/1iey4HXeS4yzB3Z/PCcdp7950uPsx+ATeMpYjJMYTeMexlvAfqlIqD063jOAhLaSmY6W6wwjTibcYOzwzB89hg61mUnTe48gcuctfMMMfSE6WR6ilIGY4QHImkkqHXFVpGqxTECaD5GZNmAkckX+eD5LM/lDEgpJJPEMt//LO0XkS+2KDmJsqYE6w9lRsRgiAEXiUTD9QtG3ppek4nVvCJB0M52cVxqQdRx5167mn9tiNZxEXOPIn13DFnq+852Plls+O44a8dQto5zAMDzzmc8cajDN0LqZNbqnQRW0KmUKxwZnAZ33r8cQHuRcVElV64tyCOl0+Jd85tV2ATbd4w9SZpkbTYZl+TZufCKwRosslJ16vegYn4T5Kj9lOC+ClO5j2zf+B3nOxLSTCNBa5oyH2tRibyjT09KlgdOU4+sYkolG+RS7IjScsH7QGZwCZBWp/GMJXMahK1U6jjtfvM2wkJkxTqAUYDpd6hPJMwXT1mEEZ29V56PAFLMHPOABDpIUNAjjlhr+7WFJyqhIlSNXqlB4BEwmumXO6HEeNSUb6Ad7dOA+e0ZvuLkKl5rjnHxDtbDuuSRZFkltgftGn5SUePNTdciWGdJ53uJWpqsxVjnztGxy/fR3JhLeRFZXp8ieW3Cy44wmjDY4MZdNbYv/IMORWDOpcwXDqrAHOivKapqqSWO0uKxi1iZiRpSOHqjF0nfRi160pIl45RjO0aX5dquJhvtkvmR0AJqkbYJHukPYfMfCQmrkxIIzd1KvpXcqN27TJM+OKdj9VlfubrMAmVgwKzurz+fcThmkIHFMVKjf7BDJA2JH2B0Jx9eJ5ve5mgUsF/dYtSwpJSlnYSGeWbdLCXMtI23h+ja22ZErUmgMmdYebdF2L85scsrPAlG2wnIRrXMoWaanr4GZWKaPbT19kCOlcsqQxMLFD8+lSINIOtfYPspaxhCQJyPJWxLLImvpmpJgvB7Jx6fc+2SIt6D6T95n2YhPA3kLRUnQ7zGE54oZHbJr//MfxpbN/RcWXrEWB5tAnymlcBsh0dY5+mBmiVQCygnfmLEM9elcWJk0cw4TKdwv6lP2SF0eRTAHuZ6kCo+hR0HMOMljyLLpZrwBo82ItASUqxUzYBk1h2iISJ9bXJHwYqXwP72FoUY2MpPFxVbNrcufpgG9sbzN7KoxwT2mtG2A1JVESBWB/z3ucY9IlDnFNVMrGaMCcfNIrpy4oFNKKpQEvo59tgdTFKd6RY34p13IpgllYAN2MN5f0h2opyipiKlOyE6yYVgOsS8IOkTvSJyDPEQirYBbbGjRzim475773OemclNUBs8srJIk+zLivM4lAgK2rIUYrYE0VbYUq4Ye1zTXLzvZJhDu80wzpIG7okBho+GrlDRGui37RalcpGSwT+s48wjICrJFl2TpezSQ7ESKEEcXQrM8GC4xp3waxmVFeb3WxDS6BrGKurBtM0hPDD/8+brXvc54RjPUMx3nPieablwYwGZ6hvnVs2zUgOoDUqb0kWToc8ZRuos4WwnJlUd6+TKh39HqIEhlKoMuwoc+z140zUB+7XMSb43kpINzGLRLguTRcJSQTQZnTBHUPqcJ1ZHMZJEp49MQKbQFHcJKHp2goK8jnWbowJ5iqY3GOZ2Q+E7D4Q2RtXMZcECTM8jyZfVzAEG6Kjlkx7NK6C8jGbCMVKQuS43j0szGcUPnlq9B4lZQuETPTbk84cKnhctXI4GTFRf0tGHiwXGbiY+yq92amehZZ9zMyRrrpz+BIIN+oaYunW5wWsPNI2JKR4Ao2x6/ayZ1aoawAqOVxKJtOKmufyiDbM0mkpw4MI0LCIGGvrAOdJaUyFwzhu0I6dzRl4H6zXdDNfObnlQaQ8Igiamqy6Irl5vUq/cOhhdu3MZSuTNa8Hm42KY7ja3c3WoAScoTC2ZNZ/W7I1Jm8dAhMi0qyFyz2VncrAaQzBlqtjrb4g5WVjfR/H7TKhtlI84oPmo3i13eQ80JWjnTeTaVy90qI23h+ja22WUbHZqUWCVo8YNcEUIdR4zyYSFnQEBm5LeQluukUiSWtAf0t54+tp2UhVOGUlregbSUOQyy3auL8BAuNtjwgzxvz51AwFFUKcFqrM2IGpYsrdI1gy0l34r/1/nk5MKpawyVzidIWr7KCyMONyMOSOTsI7y0mDHI8LoSj4RQZ2xt0J+1tfYQAAAgAElEQVSsf6RwQlIZwLfDv42H0ECuJdx0np8ucxKM9t13X3LPmIF4CVh0uW2egmcvGbzZiCYnHKdWhjgBLkUrc9u9L0fpY6X6zJhpXEltSOT4crHr5yRB2tFpCBkzkH3An/2cEymWGP9MjzQyGEgOsDFM8MrZjgJVnD4ABM0pta8g7liRZEa5Inemx8hEveUnAo0mEytRTvWgsmw/m03OAZhzepxMrLz9gplChnakh45jPD1egtAvBS4AKkIE1199ZOIla2uQbLrMCBkbRdMIl1WzDJgCGFPEGPO/fu+PFrMg3kx3Ugtb00e7nPmtEpmpj4AU6rc5ol1zu36Q2uqJ9UjW1GXLJAeQ7E1J46qmSOZZjhNyGOdAS4pVMc+SmMjEWDJVM0DlLE7QZHAzv0w0q5kll15n2KSiPouazJQBTBJQWJCsFeXZ0FxSa8xfP/3B+4UvfAEgVmzMA8T/03dHy241kacntdU4Dh3IE4663ICI/WsCq7mbiLlvW7T+L+zHhWM42sJt3jLV8X4f7B1LkGXWoKJJ5u7G0GEXMGjTqDhYtiZxld5J+jUbdw0zNbvbLECmF8yFnTXG8ywexohMpC/c7CbKlp+mm98hstWNWstIq2x4mc3pOUuAAx1SAWMDnzIttXz5n+cFldiBrJOCJShHkeW2nnVNmaXZLguusWusvfa7/mVCi9hCGW+sLcshPEZti9I3WzMECiOG42qiRumdOBcswopbvA502UDmlm35GwK7DIFSM7zwhS+8y1rXmtMQ2MkIdDTDncxq8sY6wSmmtFFsBNuNyYbAZiHASYHjBg157AzF4Z1pOBZrfbMa27jdgwhscASaQI2LlKki+ErGHlgCTU4FjvZFjFyibCvSEGgINAQaAg2BvRMB9y0ZkJtauHf2fmv1tiHg2g7nSTc7xtRCnHA+yjsF28ZYq2j3IbDxmqEuoRmKlcdleTnl0GUqUViEG4kIKLuvj1uLGgLLIbDRrubLNbmVagjsEAQ2Yva5Geh2+sJXc3cIpI2NhsDmIuBiG+dtd3My9GWnLdwU+Z+7Y7+5bWyc7xAEdoNmCEqXRL2yJTJBvJhUCa6tV2Qklnd3ncvw65XFW7aGwK5EIDee/tMpu7K9rVENgZ2DwGbNPq+hihgx9xrtzkG7cdIQ2BQE4mUp8qofbvZ6F831QpfA3RkWb8YZDQOJsMllgLFNaVrjc6chsPH3DEtA3dAQ5azzYsQE4g5gxGaIt7kmsrVPDYG9BwHaoNCsorFrsrtDYjvtkBghe08XtJbutQjYkkRvj2dURTgQdm/Cc2yvRak1vCGwFyLAkiFetH/CDXaaH0+IWTrKGPV7IUStyetCYFdphusCpdFpCOydCIjy7/2P8jnaeGPg6U9/+t4JSGt1Q2DbEBBp+dGPfrRAzVmj9zAcdHJs8abRtrHRKmoINAR2LAIC+XLeFnNRONBYH7ys4BHsHRLfe8fi1hibhUDTDGfB1TI3BBoCDYGGQEOgIdAQaAg0BBoCDYFdiMAuuWe4C3umNakh0BBoCDQEGgINgYZAQ6Ah0BBoCGwXAk0z3C6kWz0NgYZAQ6Ah0BBoCDQEGgINgYZAQ2CnItA0w53aM42vhkBDoCHQEGgINAQaAg2BhkBDoCGwXQg0zXC7kG71NAQaAg2BhkBDoCHQEGgINAQaAg2BnYpA0wy3qmf+9Kc/bRXpRndnI+CVobkM/uUvf+mHop5LZI/kF0p77OHdPcLPHq+03/ub27lrB3MXrIoi9/7973/vILMpXbwpfK594DWCDYGGQEOgIVCJQNMMK4GakY3o4CmqE5/4xK985StnFGtZdwUCL3rRizxBdsELXvBvf/tbZYM+//nPn+pUpzr1qU/9ta99rbLIHs/25z//+V3vetdd7nKXU5ziFIcccsge52fPMuAZusMPP/xhD3uYiX+3u92tZGYTO3e9YDo7+PSnPw2cc53rXPe4xz3WS3zbqH3nO9957nOfe61rXcuLYT/+8Y83sYvbUNy20dIqagg0BBoCm4vAUTeX9R3L+ac+9akvf/nL2Hv1q19905vedMfy2RjbCgQcBziYJwp/4QtfuMAFLlBTxVvf+tZf/vKXcr797W8/29nOVlNkz+b5yle+8ohHPOL973//b37zmz3LyU6onZJMQ/7oRz/67W9/Gz+dTt+4zl07pFTld77znd/97ndRvvCFL7x2+ttA8P73v/+hhx6qiwfr2pQu3hQ+B0FuiQ2BhkBDoCGwPQg0m+H6cfbw6NWvfnUmoLve9a7rp94o7mwE7n73uzOjXec61zn/+c9fyemNbnQjtib5r3/961cW2bPZznGOcxx88MHPf/7z9ywbO6T2Yx3rWAzFhx122CA/G9e5g61YJfEZz3jGxz72sVUo7PGyj3vc4z7ykY/c7na3G+RkU7p4U/gcBLklNgQaAg2BhsD2INA0w/XjfNSjHvVtb3vbD37wg6tc5Srrpz5E8X3ve99nPvOZoS8tbasQ4ED4xCc+sU9933335Wz2+te//khHOlL/6xOe8AQFO+lnOtOZvvjFLzIznuY0p+kX2bEpJz/5yXcsb9vP2AlPeMJjHOMY/Xp3YOdu9XLRH+QnO9nJ+shsXMppT3vaQZ6nu3ir0R5kaTBxms/BImOJY6vfWP6W3hBoCDQEGgKbgkDTDDelp0b5/MlPfsJn9Xe/+91ojvZhCxB46EMf+uY3v3kW4fe85z0PeMADXLuaVWrHZh5UfXcst9vA2EYAstXLxS4b5OWwOcpRjjJ3FG012nP5WVf+JVa/dVXd6DQEGgINgYbAliLQNMMthXfLiQtzwgXxF7/4xZbX1CooEHBj59GPfvQsSNiQb3KTm/QNhrOItMwNgVUQ2Orlog3ysne2Gu1VRsIqZZdY/VaprpVtCDQEGgINge1EoGmGW4j2z372sz51JqMf/vCHmf6tb33rq1/9aj8MelmQdyKRq29rUmq//fYTGqFfS5kiUryION/73vf6FDLbElwp66EFwUjEllj44gIo5JxupscPBOfsB/2fbp2vIr5EBBe/FRf6ZaGqXIMJatmDQq1k4FARhm5+85tPgKkg+n/4wx+S81/96lfXvOY1f/3rX0+0hdI4wXaAw+P0pz/96QQRnwyVzID/z33uc0KkTBf561//+qUvfQmT09l8VftnP/vZVQzUcGNIwVXNAwb1Aww+Qi8OzriyUUagODF60KCd1tJ///vfx2scGDZD/dkHBw4asrBHFBzr3OXmHcYM8kGW+kxmSuVyIb8Fx0j7+te/LszyBMHOp5pBnkVoTegvXPrkN480duEYHuSzZkkpA41+//vfNxGml6nBiiR2urge7T7BJViqXx/GhqJV9Oc//3kwo3f4t5crSTJZs/r1W9RSGgINgYZAQ2BjECCatH/rRcCG+tjHPlZMkYtc5CJJmaDw8Y9//L73va/INFe4whWki3R3znOeMwbK8Y9/fKH/O2zYwgVvOPOZzyySjYKoXeISl7j85S8f2UjzQt3kODvOcY7zz//v38te9rKkg6ZggIIlChbv0uM//dM/3fGOd1RwFa6iLPnpSle6kos3V77ylU95ylMe+9jHvtOd7kQu7zSBPPeQhzzkpCc96YlOdCKsykZBIn90slGPr3rVq4LlwQ9+8C1ucQtNRrxsSCd//AkfkN75znc+wQlOACgS5B3ucIdjHvOYgclZznIWoT77BRdioghZ/ylPeYreucY1ruFPv4PsFa94xde97nVZBe+ywPzsZz97VESiUinnXt3hUYdI/MY3vlFeydPXUYpyEhlI4fe85z3dxQpf0w7PxMTrXve6vl7talcDkVus8BEBtZNNLY9//OP1tQw+OX3AfPg3SnngAx9oBHaK+FPclItf/OJ6Jxp1utOd7sUvfnE/mxRQn+985zvJSU7iIqWxrYNe9apXBdQveclLBot0EimE+++/vzFz4xvfWDBPLRKI1bnGYNnKAaYsn95zn/vcuhtLsEWWObcc5EHfUDSJBAe65CUvqQm6QKuNNwJxyQCUPvCBD9zylrcUV0a//OhHP4pIQu4QisWaOY2QffbZx4RSqVlpAHzwgx8MDG91q1uVBAc7d4nVIGhSRC92sYt5E8V0NptcTL31rW/9whe+0GLyyU9+EmiDYEqsWS5kQ8ptNM9LGHIGAxB0Vn/C9mtZOMhjqNz2trc1bZ/0pCfFgiDRTFFpn6CUV7ziFZiR00TzT0cYroM5+4kLlxRnSV6hMPi9MaO46Kk6MZg87nGPe7Ob3eyPf/xjh6xVPTJQIMtP/S6uRLtDfwmWUKhcH+Ts8ymRSvmWt7zFgDd3DjzwQCnPe97zPLmUq2g5qKZXv05z2p8NgYZAQ6AhsIkI/J9NZHrH8vzb3/72Nre5jQevYlstNcOnPvWpJMhIJ98/85nPJCLTZOhsRBPpRz7ykZ2gl00jP5E1iTiRSNog65OTMg+TBaEqaL7pTW/yp38p6R5wwAE+kX0zP/VDCrE4U5bgSlmUS3mOYYeqgDIxjtUriXsB7AxnOMPDH/5wQrlEikEgQFFkw8xszHG0ZSJjphBzCYIgypT+D8IZTYnkGs33WhrBjnogKGjGcQEp4a8suxATIOOExB9kAf7sZz+bJkYKjz5iGAGylvpT/wbmrDdqec1rXkPQjIL+T82QuigbCT4+BQUp1AP2t2tf+9pHO9rR4lNfMxQClN6rUQS4aIhBQj2TX0FEIpE6Kk/cg6IH0uKI9Te84Q0RzNOHDhQKAk2UUTz4TV6nikMMZScRHcDF3jz60Y8udn+my6yiYLtGM6SpGvD0MeJvECHREsGN8E984hOd6ioHGEy8L0frToWBIodPXEkvaTI60UKNkLCc+6TLYjQauqzZkZmbXHnaQhWkI531rGeNZt7vfveLbMwmKr3c5S6XygOZO4OspGY40bnLzTvswVzw22DDCVSeOOh6nxwDdZAs/zRaJpYLBm26LvXARcEoZXzGimFBe+Mb3zhB2aeJQR4FA0PLo4lwxjOe0dGA4RQj2SfBS0v6bJWOiqxUoZTGuyCy6VznEdOc+LpwSYE/HoIly6+lxoLm3Oeyl71shhHS9TAp6+prhhNdPI12vwnLsVS5PozxqYtN9tOf/vQBhduDDubOe97z3vve9zaMY4JbnPOcRUeMrX79FrWUhkBDoCHQENhEBJpmuP5es3eGalFqhlEN85o9mJrhTDplfYeyYdth0EtuSOqkNJt0yR/xWgjEMoU2Epu6CHhlOtko9ATn7pnuMe7I/M1vfrPMXM+VUiQYRJ7znOeUFER1D8q+RjrZjkjN8lBmY1iIlqbl01cKsLIsP2XO29/+9k9+8pPLlMHfzrCjXuqT35mHqBcV0T1SWa3HhIIROhLxkU2S/EQRdZ+TKhVVhLZAtehzRboKllIzjDw6N9Ip0p1SjFTxqaMZUgIpjXqnY9fi6BXmqVKdRtOgQkfDmZXC/VgiYe5UpzqVdDyX9b70pS/VRh6YZaKbkMGJGP2ZriESywOF+ERFicw1muG97nUvmeFZVke3l6jSMrFygClC/dOE1OuCCI0iuMqmQUC9YCnPI2SmHMbrkTTGEmFjLyjQ8xExE41279CE8cRwMrudbuT8jXrf8IY3RKmOzXCsc5WaNe8cKIQe5YQl4fJialTamY8lnuXvseVCnhg8z3rWszpl40XW8ohqjLj0iUEefIKOQphTgId2TDSTqyQLQwoJf+NMpJzEiQ811QHcBA8+1SwpujXOs6yTBlKuEkcccUQeppRHIcj2NcNgY6yLJ9Ae5H8uS3PXhzE+4x1OHWS1zAUchxwxotc0pGR4YvUbbFdLbAg0BBoCDYENQqBphlvSWSFb9DVDbmD2WhanTq1MN9IvdalLZTpVRIoD7I4YFP6NmW1M+LDZh2rk+YTMzGASOz33oZKBeq440TlcJ6J1vPUoXYyZhLykfNBBB6mr78+ZL7mnmE4KlLMjhLF68Qlc2Df5Vgef1U5m72tHY9PUMwuTMOSSxcPg2SE+IRulslqvGeYFv45meOlLX1oTBnFw0dEnXfyhD30oeeMtGU1mjisZZp+RTgIuz/75Ver3Trte+9rXBoXrXe968YlWzHgikbdkJ3NojD7VaIbBMFm8JMKHTXFOqplYP8AiMGxHq0QHn1p6vOMdL32bQ1fn9tnh359pQ3vEIx6RX1Mg5kXcLxJg5hlBZqAohpLT0QzHOlfB+nknsyMeWDkpKFkyOJ0fSe/YSPtsR8rYcsE6igi1zYFOp2zOGjbSMbKZvlAz7PNpkVR1+mMjxcBrYBvMner4q8fg1EHTnFQuKWykCFJ6XU4uCRqEYTl0hKf78tOYZjjWxWNoTzA/i6W568MYn3njt3PSlJe3zaCS54nVb6Jp7VNDoCHQEGgIbAQC/58/WOy47f91IZCOdh2CYcfrv3vGFY3poww84KaHzEwZfJx4ipLjgxRptYZJbpwcwHhDMfX081PkysR6rkjSxIgb3OAG6QAZdJjs+I5yrkv3Nt6GPjGkvPe97y3r4nUWf7oWFfpwuOF5G5CVgIEuvnLqS0+zPv+ZEpz7s5+ZZhgSZL6yPQuT6EFKS94qnGCj/DTW9RPFB4swDH74wx9WKiwbneL8kF/+8pdbYpzxh4AoQ6LR4TkQpuPxzQv7IU2A6YlvZ7gLJvGUHfVOJNIVw0R5mctcpsOD4hON6nxyB5KGGYJv51M5GusHWBw9uObaoYZP9lL6EgNIfHr605/uxyCM3v6GgBuqT3va0/hdh2qX3cH02iHOaM8pV2L/qVKOzXwd+yFbBjs3yNbPO/njEMT0ocZk03S023dsQRk7pMNw5Z+hDDux6i9NZg0LP5cEtdDZXOmspDmYLQ5cyk8GpMFWLn0xsI26zuDMEFDyh34+WIXEyiUl8Aem066SlOJsmFRx2j4/TCvwWEWRPtHF0wX7X+tZWmJ9GONzbN3QWdZ5Q67snT7PLaUh0BBoCDQEdhMCTTPcEb0ZezZvouSGoHm7292Ok5grTM5oia3kJKJnXo9ZyHepE/KVInOz4EWphaFEI1ufK3EafBrkgZXGvyhI1CZR+U0ZSLEjPrlXGT/CEuU35z3qLpGatOeUnZDqE6MBkTRyLvc/Mde1Q/EPuc4mhbmYdJhfjpPlSrGpRsG8wFbSYWnBG2XPncyF9FMizAHGsKYUb8ZOV/ozbDhJkxHY79AnF1Y0kYH75X3uc5/IQKGlmhqQofqWo7FygBHZ+buiNjgU8xhFBvYfVnc/BmFkFKL8s7vSTvnmpRth8NnvfewFt04xJhq74qf+vEMwmWH5L7Vcl8TobK6VrlJpDLZBiJDlNU0z9MNgW1Ez7DMZuihrdn6KwWn+9gcnU7ZsZf/2CUpZfUnhmhFGWqvHQs1wkIe1J3ZYWuP6MMGqUUczLDemicztU0OgIdAQaAjsAgSaZrhzO5G+xEbxjne8g5WAn6EoIK7PiV4zi2NHy27dMB6KNMBCksEGZhHJzMJp+h2mlQkK7FEhTPAhZE6cyOmTwCSMouKpcI0jepLUuY1xoUw9c7r4xFf6DM2QHYxwUxo514vJBAOrfErJL326SmokNnK8s3w922ldTaUuUspGc562vcjjcp3/M6hSDfGJPLqYMZn3qduAhreIqX6X+SsHGP7D+LxwKE7DqOq47OcHs1tHM+w3JNBYIyD9KsZS2ELZ1X11elJqhvE4Shk4Z4zCWLpDGQZ/XwdHmvQSojEia0yPwcl51ZqwHNnVl5Q8Cln4DspyHC5RqsPS9MBecX1Ygr1WpCHQEGgINAR2BwLtPcOd249cxVhsiIMRGNPptbtSaXhZyDffTvdtxOgnhb/tbW/j/7ZQjF5IMx4bzIgFY/mZdOJTCPpj2TKdTyBnuQjsyQ7GbMg0kVL4wuJjGcLFlLdYqoVbgclY7Sum5+WfMVeukBQ1rePZW1NvdFBN74TBbUVnxWDJGQfrt6HoIMDNJVbEPquVAywfvVw4FCthxEnMsj5LZUqgIWUtgEzX1fkqWo94ThIFy02/SucCQoma43kHbxbNyExdj3Oc6ZEmcw1ESzDQKVI/OCfqWnFJSe/0hQdbEzys91OHpcqBvdz6sF7OG7WGQEOgIdAQ2CAEmma4ozvL0a8A4vzcmPswyg2PAfAJT3jCQqbZAciL4k8+//nPj7ILi9RkCA9Pj6pNZ853IzJIST9/x0NJZBoGQxakuKnIZY4aXD4W36ewMCVsIPlM2RZhspCN5TKky1zEIuoTiStty7kRRgfxouzfi8uKooOiO+gMK3qUeYCRO5zIuiL09C+FZqWVAyw9jcNpuQ9OplTCKD9D0wSd+JTXaBnzF2Zebwb+1SKRPvKRj6TIuVkqrpIzI36eZrdgPGNXyGp4cF80VD72MReb+0VykCw32PoEp1NicNYvHWPUVllS0nyaq8dYLduW3mGpcmBvT5dtGwitooZAQ6Ah0BDYagSaZrjVCC9Jn5Tm+bIoTFQiFJL/IlJCRNTo0KU0limekRAugrksbuYsyUSvWESlI46zVPQ+/iPhMY95jP+FLoiQie7qsAH2c7qs5bW9uLLlYeXIQPYVrJL/Zzw8wCyTcT77FGpSQnzPZwzWjkkH8xqW5KkslRFf4qZfnziXXYn05/6nhSlxg4vlTejawcwse84UfOJx6n89lSHvB/NPJ9Lwua1quGfT+zFOyrKVA4wyE+rlC17wgoyaU9LxcgzbmhTOyfGEjDcPPUjQ5zNg5EeaWl8/T6YEGv5897vfPZFtiz6x/3haU4/zyGVUp7TQ7TVzCbtWOQjNuwhiRPnPq8hlEwIip1Q8PCubVjnIB6nF4HTbUCShwQxc6x2WDX6KxNWXlFg6rJ/5CO1EdQs/rYJGEu+wtKXrw8IWybCWRtVU1PI0BBoCDYGGwHYi0DTDLUE7ds36vbOfk0sVM0vJ3DWveU2376RwIcv0tBWwJJSZIww9f9TSg5QvZeTpVzeIQj9bPEAns+fp+nI2g0b6m4WsSc0Lnkv6yIpDQ8oM5pkKZcsMrhfShbyB0WnpIIcTia5OIUtozpg3a8EkagzOO5jHpwStg95YTyk1WORCF7pQCOK8ar2q12kpoZkNwUmB1z4mQOiwlDm9jxK/vQ0gOlGHAmdF3p4R+j8l43hmsMyZVsRB5b/MKYqSxwOldIJAxoAsgaofYJETBc8qZsDbqJThy+t8nn33J9jDAZtym6//JW+qxps/DzzwwA4Ig3+KVhoTSoTSvrk1GtJBY7BzB4mXXA1mELTTWYkTIp7hnhmEwIT1dZDC2CCka0X+CCncKfupT31KimC/C6sboz/RtMCnHAOxdIBRIJl+rCzBculI06a81ZeU0JDNjprbzmNdvBCNwT4aS+ywtMT6MMbnWI3Sy37JbBOrnzx5lWCCbPvUEGgINAQaAjsWgaYZbknXxO7Ylx3DWau/3calkY5MyW7TiX8QN/HiGbTgOy9r5dUj1xHRCVLMKWnqEf0vH2pLFTGI1HNF4D7Pec6jlDc2sOHCWDw5QFHxFhYjZ0Y0OeCAA+JBRToGz7e8oEVh8+gFcVz+hD7P+COF5BFifdnS6X7qX5HyDgGcxXTNxxVmYRIiab8HS9i1JXQSlL/1rW/FpxSMOmX7PZVdNlbEs+Oi0SLbf6qEpUjrvKqX0UFkS1fAzgDLK0k5wFjSrnOd6yhigNH9mJ6Cea2mfhDNvQ8Zxr3b3OY2okT6SjD18kRki/9T0Rrzd83MWe8hhxyS+qSbpVFvORrrB1geQ2CDGc3bJADX8MMPP9wrC3jWxmDA8IsmUOc6YivTn8uWVKwyaG1qI/3ep5DEw4xmlqcUy4iaHmgJ/DtojHUu3urnncxcuPfbbz8nL/HSfdkR9b/7gzCWCycFt7jFLdBxF7SM5SvFzBXzRkFPPi6sqE8/BnmOzD6kgU+p23sUMVwlOSY4DsuZxQ5swDsI6B829RmrX1IMv47XuklB/9QWnvwl5WxFR18d6+I+GoF2n9tOSiVLc9eHMT7H1g3NjBGe8zf4jHYNrn4CaDO0usjQ7+iFrW4ZGgINgYZAQ2BHIECWav/WiwBlKR6U48ZmM07iNsvw++JsWb4ULz1iP5LFySiRP0JruJpVUnjUox5Fa/IKfNKUP061Gdl41pGZSPw28hTjfCVLeQDDNSrqRBz3Cl4iLGS8qz6LK/VS6krTAfUvXldzoSXfFg/20hBhoHOEczeMw578njFk9swmUAZwRYPNFACq4upXvzotYrpr0pgGcLFbNTzye+xORfvvvz/hJinUY6Ih8UgANqhVfR4e/vCHx+zFPFWKDSdfnKeHxCedVRZM7Yu6y8mW+JsZiONRRHz8Tl0k1HCG5AqbnyghhgpbKHm6zJ8GN1pEmW4UBX2KUKYTuMu3KIxArpJh8g21M3OytablRKfA1oMT6sp3FHUf1YL7X4f5/JN2kR6PpEYQCbGruGEZjLGA+cfGq0j9ANPjZfQdWnTMO+0t+x1NntX8MNVF00jQVEevxgm/5ZLzfFTTnd5+iyhm+ZqCUxInIGz7ilCwkxmxQ4URjrJjnTt33pndgZX/DU546j5X6QwnOuqLX/ziHPx9njNlbLmQwaQLv+tyIlNRGK6l0LcnyOansUGe85TXbknHBE8wo/fjqyOnfJPTRNZNgiobZsYhA+ZCTiqXlGtd61oBqaMEZ1tB1ty3QMHWyUWnooyVqk/LT2NdPIH2WBPmsjRrfRjjU+cGDs5HSsbCnO6TyLdl+tjqx4ciTgMV8b7LWBtbekOgIdAQaAjsZAT+4S7S/q0LAeYCrmthoIi9loxIQaLd0R/CDhbpfj/5yU9WL4uHt6pT5nN9iGVDOs2QHkVGIUsx4HjYkHcfygIzdLglg6bLqOiFoVuSO1PIQJx4J8q5gm73RV0sKmTcuVxF1d6IK9/4IrFRPrkL9mEkuJTXtzgTMiESN8ucjDAQcA7thyuUbioS4r3kPkiwU0VKnJRAJjUAACAASURBVJwqtZGpQUxCzznQ6MjKncw1mHzjG9+gs534xCfOHqEvMR2UYiuyPDnzhQM6OQc/iRQV8Oa7cxQVdphSQspQQPQ60hWxmCQtqmT5ZDwlEwgl54xatBciF/kMb94bxBJ7cpnnE5/4RASuDLa9tmccwpnMVw4DsGhL6tsMX76GWTIKIs741sHNn2BRew4zUrt+dEIh5bKXvawbifSKfqkyhclR+JmohVbD/EhD031RO52qbHX9ADv00EPL6Yay6TCoI7lUaVDh3AkFN0U4k/4NtjIzlZuSkF2PKx3KMtNpmpFJj80Lk7rGbd44D2JU5JiqyxSZ6Nwl5p0TCitASt7JZP6gqy88ScHV4HIRDVScpd25lQFp6Gq7geTqb81MTIj6g9xQLF8gpEILNCW/84Xy8UzdUR5/UObPe97zZnv9oABbYKeHWXytXFJiajgTYWDUZMzwFjYgHX9wlS8rslaXAwNEnCM++clPTnRxFJ9Ae7Ah9Sxl8Zr1YYJPm0ueEAHZwSJnfsQtUOXSDZM8vBtc/YIfy68BCdKwbA+2sSU2BBoCDYGGwE5G4EiY6wsZLWWPIxCePGw49BnhFlwGY/SjMg2+POHiDdWFyJsxG4N/diFBPonOGaGOHEz0J9kQYSekzJrmq5RzFImKjpQH/IMFCfqaQDpkH+g/sUCVDbMYj1AMa6CX7iuDahAfw7uVoyy7jcbSqMklFOywjvb5WRcmXLBE4tFNjDbTzU8ezDX6OaETe3GRss/eWIpSulilwhFlHJSxzLPSma9dZaR4GBIGxkRZqmZYI4nsuozCQN1a+Ox4EpRZcaMOYqlWsdVwS3M0ECGLytrrBxhUSaKQGZsgSVYzNZYNk5JsmI0NkgkQ8hPNFinWb7gFCFysHeXUlF0ij8FDWGc0o9NCRr3w1Bz/6wgGLpfrnBeQ4BcSH1suoqAlQrvYUXWxqR1zcyHNzLDKIO/XYnFwfOBESWiiziXVfuZMqVxS2AAZJ415qo6xrfsc4THDOlqaID730zTaHWpLs7R168Nge8dWP4PHKZXpvD0PnAzy1hIbAg2BhkBDYBUEmma4Cnqt7B5GoNQMFz7avod5bdU3BJZFgMDNiEehTYfAPiX+4ayygqb0P7WUQQRKNWwww/Yn7kCWth+EVmNDoCHQEGgI7EEEWgSaPQh+q7oh0BBoCCxGgPPtq171Km9+TGRlbA/7+USe9qkh0BBoCDQEGgINgYbABAJNM5wAp33aGASaU/TGdFVjdD4C1EKFXOwcK+q+Jft5PkYylq2l9xHYgUvHDmSpj1tLaQg0BBoCDYFdicBRd2WrWqP2EgQyDrvbVntJk1sz90IEPF7nLqXYVK7/eUdE+Ci349xAdrtMukcO3bAVOCRvb+6FEC3R5Fg9dtTSsQNZWgLYVqQh0BBoCDQENheBZjPc3L7b2zl3+cpLa4GCSBKeO9vbEWnt36UIeNByn3320ThRcD284RUHQY8EfxKLyMVCr3QI+zE3ptEuhaq2WUJVHXbYYXILppLLSG3hrcm3A1namoY2qg2BhkBDoCGwcxFoEWh2bt80ziYQEIzRkwOiMmYeBhNBBSVOB9icoNk+NQR2MgL8RQ8++GCvFDAVUgsFIvYmpHcC+vF+d3IrdgJvD37wg72L6JWOZIZeDUlPdOwp9nYgS3sKilZvQ6Ah0BBoCOxBBJpmuAfBb1U3BBoCDYGGQEOgIdAQaAg0BBoCDYEdgUDzJt0R3dCYaAg0BBoCDYGGQEOgIdAQaAg0BBoCexCBphnuQfBb1Q2BhkBDoCHQEGgINAQaAg2BhkBDYEcg0DTDHdENjYmGQEOgIdAQaAg0BBoCDYGGQEOgIbAHEWia4R4Ev1XdEGgINAQaAg2BhkBDoCHQEGgINAR2BAJNM9wR3dCYaAg0BBoCDYGGQEOgIdAQaAg0BBoCexCBphnuQfBb1Q2BhkBDoCHQEGgINAQaAg2BhkBDYEcg0DTDHdENjYmGQEOgIdAQaAg0BBoCDYGGQEOgIbAHEWia4R4Ev1XdEGgINAQaAg2BhkBDoCHQEGgINAR2BAJNM9wR3dCYaAg0BBoCDYGGQEOgIdAQaAg0BBoCexCBvVEz/I//+I89iPjeXPWf//zn//mf/6lEoHVTJVCD2f7rv/7r73//++CnXZP4l7/85b//+7/nNmfWIJxLXP6tpt9naY0z5be//e3Pf/7z+knaZ2aPpKwLgeVG1GCT//SnPw2mb3/iLE4mMv/v//7vf/7nf87if139MqvSjc48gf8Wtav10RYB28g2BDYXgV2iGR588MEvetGLJrqBrHP44Yc/7GEP+7d/+7e73e1ukZPofKtb3eqHP/zhRMH2aXUEfv3rX7/qVa+64Q1veKITnehnP/tZDUG9+a//+q8XvOAF//a3v9Xkb3kCgV/96lcBNfR+/OMf72JYPv/5z5/qVKc69alP/bWvfa2mmUsMwhqymWer6XeYsaB9+tOffuxjH3vJS17yPOc5zyxW+5nNsgMPPPAKV7jC+c9//pOd7GT/8i//8vCHP5wm0M+5c1IGl/RV2Js7ogbr+u53v3vQQQdd7nKXg+Rghu1J1HeGh/3uXOc61z3ucY+aSp0l2RxPfOITv/KVryzzW1IOOeSQ29zmNgaGHwtJrb1fFta4OzKM4b8VrXN69b73ve++973v2c9+9hSHtqKiRrMh0BDYSARsIRv9zxq333773fOe96TmjTXESeetb33rM57xjNFDtMHM+Y1vfIP68c53vnOsbEtfEYGPfOQjV77ylY961KMG+NSVGoJEq8j/qU99qiZ/ywOBN7zhDVe96lWPdrSjBXTf//73dzEsBxxwQDTzCU94wsJmLjcIF5LNDFtNv8PJEUccQVI/61nPGgic9rSnrWe1n5Pd9YpXvOLVrnY1S6h/++67b5D94Ac/2M+8Q1ImlvSlOZw1ogZree5zn2s3CfRsN4N5tifxLne5y+lPf/rg5La3vW1NpcZw5L/61a+e+V/84hfvs88+xzjGMeLTS17ykmlSW9Ev0zXumq+D+G9F6z7xiU/c5CY3cXQYfVqKQ1tRXaPZEGgIbBwC/2fjOC4ZdsxGpnH0VdMKh/qDS+FPfvITMtZ73vOeGiItz3II3P72tw/wKzXDN73pTac4xSmuc53rOIFersa9tlSeAe9uzfCb3/wmEwfLTH0z5w7CuUNoq+n3+TnTmc5kWq2oGb7gBS9AhKk56P/xj3+k3pzhDGf45S9/2a9xR6WMLenLMbnEiBqs6MxnPjM896xmiLGf/vSnseRWaobsxnRCRvj+OWlaERdqhgHIevtlEOTdlziB/1Y0ltgzKA5tRV2NZkOgIbBZCGywN6nj7etf//q85B/3uMfFGjf9/wlPeMI8+yxznvzkJ3/ta1+L1Be/+MVpCnvnVzaZWfeO3FN66Utf2sGKJ9Is9Bgu6JCvf/3rj3SkI80q2DIbz3sDCJQiE5bL3GlOc5p+e9cyCPtkM4Uv1mc+85kVB/kE/cpPdMLKnBPZnvOc5/h6kpOcJPIc97jH5Xj/rW99K6wKg0hOUNvOT2NL+nI8TI+oeppz1zqUB4dTfY2DOeeywa3jbW972w9+8IOrXOUqHYJzh9l6+2WwdRudODinJvDfisbaJtK7ZCvoN5oNgYbA5iKwwZohhfAd73jHs5/97HrlYSynyxjcTW9wgxts//3vHT50mFIf8IAHOO2o5JNn2o1udKNvf/vbnfxjyFeSbdnqEWhQb/UgdNx+05ve9He/+90eH+RHOcpR6gfGYE5toV371CEVo2gMyUFSeyRxB472uSyNDac9gudgpUsMs7kgDNa7KxN3zpxaolt3ZY+0RjUEGgIdBDZVM/zCF74gRsItbnGLc5/73GvpVNf06TN3v/vd10JtdxBxfuxCwiyDITXywx/+8O5ofmvFhiKwpYOQ0xf/gl/84hcbCk6HbRFTJhqypUhO1Lv3fNplw2nv6bilW9rm1NLQtYINgYbA9iCwqZrhgx70IHvqNa95zWmYnOt/7nOfyxsXE5n5pF3gAhdwj+KrX/3qRLb6T7///e8jxjeDG5r+7Jf961//+qUvfUnwt/6nTHFnw3XK+NPNH81ZaNiky3EGc/9qgqxPGHNcPUYQV+DNGyPTpOKrAAxPetKTanLKQ7b+7Gc/O01fS//whz8MEuRrSnGtN2Ymkbl4ZjDV3/zmN2NhMDHD8PL1r389e2qQ50zE+Ve+8hXBk6azabsTkIXZdPd3vvMdrpWVtU9XWn7NiYMy+oNxYiuZrK90Vk5t7yhpax+EJT882MW7OvTQQyuZrBnkSFVO2MpKy2wLKbtVOEZ2FpIdIoaKMWmQTz8rYiJkQRPNWrRwtNcv6WPtmp7R/RFV0tEcjarZUMpS3/ve9wQ+7Tdt7nDqt8gWg3JlwGedYo2yGam3T6rsiImvY5+2ul+iXi2F/zT/MLFQTz/GkLfsApO+k0u/mfUL3USn1Mypyt7sc9hJqWd4IamWoSHQENi7ENisa5HBrb2Bswq/fLvRGP82b0HV/umf/ulKV7rSJS5xCdGZhdo75jGPqXfHgnHd5z738ZUz5BjNmnSb1gc+8IFb3vKWxzrWsWgLP/rRjyJ8uSuO73//+5PCYYcddvGLX9wrDsHS6U53OlHgSvrEiDe+8Y3Xve51j370o3/5y18WHUFDwkVHw4Wqp/v1+bHh4d8FoX/+53/WFj/uda970T87OWXbf//93R658Y1vLIqdGylnO9vZyLuZTcjW8rra8Y9/fAT9Y2HoVxopgV5MHo2N/GJyxFcG3vhEibINixuU7kaXvexl7YUlWbv129/+dg57xznOcd71rneVn8htz3jGM8R4uOtd7yry0EUuchGde/nLX36Mq0yfi6fx85SnPOWc5zznNa5xDUT8jp7CeVnXC1/4QteTeCPrKZ2o00HqGskgP5Rt0SDEeNBk0VOOfOQjG6IGST/zK17xCmQNDw4//hlCBkw/m5TnP//5pzzlKQFyrWtdy+kGo/e///u/B9QRmgXgulgw+uiRxJOfcLwjEumeCUn6hKpXv/rVxtvxjnc8icZz3FnCj/fuMls9kyXnxnky427bne50J19p3QLYBif+F3zIyJEYBU0EHSFduEVCdiTCTURijIW3cySucRCWPMdv8+iiF71obg8GZzD8spe9LDLMGuRRpHLC9pmJlLgSNhiBZiHl8573vPjXimiR64WJv2OsaSTH+JGuXwSOMnrveMc73vzmNzeETM/OBLe8PP7xj3cSZylTxLtBZlkubg984AOtov0qlljSSyILZ/TgiEoKlHwOFGKVuQJtAHvYw8HZ0572NKv6J//fv+T5Mpe5DEgjAo3pZmkNhE1kq1auxguHUx+BMuXNb34zf5mznOUs5qn12UR49KMf3Vnqo15rjmXTmZ35Gyk63cLVoU9L9wiKdcmi2vmkdVFwMALNVvcLZqzeD3nIQ0560pNGE4597GMDv7/M2hMFZ/b4yoMf/GD+RFZF4OT0RMfAE4FWdKXrXe96gYmujKYhDsBBzOsXuulOmZ5TffwNObt5zkrTHPPJocaKJxxfNVZz8lMlwx1xiEJrz83qCAB2E4glWRuuLUaGi13sYpaXQaxaYkOgIbALENjI2KRWKKs5zWqsAzx1YF3z8oET8chj188b+WOa4Vve8hZkCSsEozHK0+lvfetbS9mR0EBnyODy97vf/aK4Z6bOcY5zsJj504Ju66IkqJrcEBlI7bbn1J3s4vZ+KRSJE5zgBLGTueUvUETJj9opCa973escbEu3nUeTL3ShCzG+ZU5ymD3G+p6xBykP5EL7hHjWkY1uRut29zLqotL4079BiS2KgNouEvltgZE/602hWZAD+oAtTQpxMPLby5O917zmNXo20v3f0QzJN/hMrZgkhAhxocSh/3sWnmiSpZwpBA/ou8tKyCCOSNFTFCdVsD3qDv2SUW2BQ1eRh9RImemwoXekU4RServzne8sM7If//jHMzPrHOGG9BlyD5GIXiebA4KMHpl95JN0j1VEine6peSwKYN2ZkR++JeM0dOimcKQRDqRPePdGxXirJAGqGqRzc1e2eqZ7IAQfz75yU8OajSHMoPTikh/4hOf2CkoXqJPwbyJc+1rXzvDJ5Sa4boG4SDbEo1qkzGYFD43BjnYI3/9II/8lRN2jBnpY5phDWUmBfxn2EnrRjTH/yhPIznGkrlgel760pfOhYKsDC5DKMgq6NCH6hh3nCy2Br8jFYcU+pH+H9gyrXSqWG5JDyILZzQexkZUULBmWmQufOELk56l6PF8VseCoBX+xbLga2qGTlsoHqRtC36+OendyGza9HAaAxkPjoFscHla5PzROgA66WWpANMDJ/Fok8Xh/ve/f4Ya+tjHPhaZHffIY3WK/LM0wy3tl4CU8ZkuZ3JZDDFMJ3EaiFW6nDPTbK+DJIduZSDWj370o4bZM5/5zMgDhHyqQXc7wgOFldYRSa6ZN7vZzUoA6xe6mk4Zm1PT+FMOo18sj50hYZYZlpTkTK9nWJHBg3JHyTlsOtX5k4hiSOdc7mdoKQ2BhsAuQGAjNUOHzRavsWDcTtqI9baN2MWzkwjQseSNaYYUpMhAmlmlazN4PQ2Hqw/dj9gtIDjHUWTF7SRMSC+rcBodVXvUKNOtwpFIjeTLF+l0tsxMUsnMfIToGE9/+tNLss973vOCwiMf+chMj6W/E1SdqiYnymVxp/5RPFTN8tPgb8pM5Hdk28mQQjNVudzOsy3swGWRhz70oUGq1AwhSROzkZc5CW2U5EF+Oomz8CRshboOKCqcPZii5YIZIS/IkiFw+KxnPatTC0FQeqm+ykBLl9IxRxPsoo2lPGdwkm9KTZ5cG+E3iW6lyY5pRXHGzJIBfMInyJaaIbk/EjuaYUQf8Sk1Q9QIviGjs/1qMpELP/e+9711Vhy11DM52C+oxQEH03eZgfGBhI0ZTesUNJKZR8pzcZbMaFGpGSq1xkE4yLyTi6hXPMlOhlmDvH7CDrIRiYOa4SzK9NtoTucIZhrJMZbOd77zodZZmcMsqQfLUjF9SOTsD+EW7ivR/1SnOhUKTtPKzEsv6SWRhTN6bEQhwuyJK1p0ErRZhHLb9zEJzdBqbFFNu7emxYELwbrkamI4jYFsubA0dRZMx0nRj+XOEil2QwphruE8LWNlM7XLKoj7cRxWrxluQ79QdQwGHhklq44gQ5crvUXiIkNn77YXO4fKshiOgs6VrOSIxyf+MnaWgKt8tKN+oavslInVaQx/G1ycgl3qUpfqDAmjyyAsn/ytZxipQc3QKXCcgdqp+yPQImyV66e3lIZAQ2A3IbB5mqFzxNiSU0bv9EfYWPpfKYqxI45phnkPhOVnlT7m7hh7TEdqR1MVzC+eC+vQ92xGFOHlkp/yzl7phuqrPT5PoMOGIzGO4TvWztyHnCymVM1Qoy5eQyUP3F8lEuzKxK3QDDsqMXk0Gn7wwQeXVacmUwqscXOSulIqSEqFw2cH0v6fs/BUPA6YnSvHWXVJUI9gmyCVskV+5SsbwgerQiRCnjuoseeST4crxlJ08kFOtwqV7b/PydIYKBlaQYGYy3OVq17fvk1TisylZpgKQEcz1B2RudQMVWEcRrqrXx2e65nsFCz/jFBPGpveofE1TijoxqUS6BOgdF9JIW/nLqEZVg7CQf4nRPnUDGvo10/YQTYicVAznEV5vZph6HVe1Cx5jnMNB1JlYvh9GGNUrDI9Vm8rfOkYufSS3oFuYkbLOTai8sSwtO3Lz/8Z/5wvOrWEZuhosrM45MSkn2SRieHUIRt/hg22c4Tnk7sSQLMglI67MYU7hkSZ6X4+uWHRqSLOg+o1w23ol4MOOgir7MwdVtNHN88Zbety0oHLnLqs4yMKItk6Z1KKeCEp4OJiExTqF7r6TpnQDFU6hn80zWrJfFq2jjm07Kx6hoPIoGboU76IW55TS+c/0l+xS37a74ZAQ2B3IPCPE/rN+mdtZRjBsy25z7kDNp5I0vuPMpGkudzYrfulIsVCSetgMMnr6WM5p9PD7iGP4/BOThoF4jgPt8P8mkJJ3ujwKRRgP9L/J/JLZ/5yMO9PHkFOi6kHNie+f/ThTo0apckcR10R5JPjK3dBx4E8ITs5/ekMsp+43pT05wmyIUr6neJXpCeGZe2O27VdB7nsR6JNF0caeA2T9XiWPNCWYwctqwjl32Wq/guZQHaSzaDEBGGrdheIdGJP5TLnwLXDJ71Xv8R75T69/OUvt6ywD3eGR0a+MTxCGmMEpq+STdPrNSkPzosafMo8gb/D4zyDyK/1TE5Uervb3Y7Mp7FM6OWgdWjisMMsJummwx7t0Th39bHP4UQVE58qB+EEhelPC+nPmrDTdXW+bh3lGjY45Bv26YVeFumsLTkZO5MrHOCt8Nb5WBxWWdI7PMeoHpzRcg6uOdLz4cpOE7iEvPvd72bqsSL11wGrcSexXOvyyl8NqmWe0JRCKS3TqaNMrwxf6u3Q7IxGX3FiJeksuRMIDDK5Pf3iqoXa+fu8973vLdnIaFgawqfGpxg5HNGdK4WjvkSXO/q7p/ROopS4pw1DbhR2TMOyfqFbolMGIR0bgU5V4obnC17wAopuluWuHNtBpNQzPFh7JnIPcYHCAbSnjKnQme46g2E293HL6bra14ZAQ2AHIrB5mmFGs+zL6/DlChLR8GwPS8DNyY1EMh0stJ5sSj9ZhLzrt9uAfBRLOv6Mc9xK4nlDT2QaRVyoIEvxNuyQ9clOGTQpxvHDYXZehSeaU1ZdnYqnJqYDCVbyNitbCk9MBAsLagKNgnXL5s3FiM8qDYq232/1QlKdDB08y6/9TvTVQbX/8+Zqh5prMDRDifqFZhh35AaZRDzVQvljeEjpD48w4qUy7CKZ/MsN8g63E3+Gjb2ToZ7JCcpOxw14Uh2Jh+dwWFmNYX8Sj4xDP1Iz5IjoXlBfwJ2gP+vTrEE4i3Jk7tOfNWFn1bh1lGvYcI6QRwnEa64QhxxyyBFHHKFs5dqSwjGjcdS44pLeZ3twRvezZUrmd0JRZgvvUItAXy0cpNYfBoPZJhK5vTDjyDC4mOTiMEEhPgUnNUvuBKlt6BdXYV0qxoOjzE6veWUqePMpfnAcdURo1FGWWGId3vlkYYnz0ImGxCdrnTNWm4uBxzRH26xc6NbVKRMccvChoZnaVMFHPOIR4Vzqcor79h5hzoKVDE9UFJ8Y+ZGlB3Iw4ecSgRLAAtXHPOYxC4u3DA2BhsCmI7B5mqED2gA9RYeyDyyX8Wfep5/VQ3ElZiKS+yxq/cycACWyHZVHff1sC1NYz2hEtvaIcB1knRbXk2VxchxL/rYd2lDd7PJ7Yb17PANWnVUzK3Eq5p1lp+RREz6Zq/DWwXOaFOGD6CAPS+xgTpp/pIfvUDwZN6hldYpHP9KIKEKDlCPRyUX0+3KDfIJyzadKJheSouTTDLm8fuhDHxKsVX4exWY3hZ9bJucuPcv1i3FAL/u0kOAGZVhiwla2busoVzIgm2FPLtetjIc0Q16L4QdeT6HMueKSvlylZSnXuZ1JWTBJxuloJ0M8qFOGHFu9rmkKOjdsZTWLyTSp1b9uQ7/wr4ld3g2IDL02xjlbFkcSK6eeokSxDHPCZ2EL99GxUmV6GnWtrjTDyoVuezrFzq5RDlmY5d26xLZV0WXdjC0spZLhGihEy4uAZ25pRrQCZ8cGPE/1muItT0OgIbDRCGzee4YpDQ++EOgGWvRHOvTP6p6gKaLJrFL1mZ0vyjz9unQNNUehEW479ssgG/fKaorTrBwEOhG0lbLYsCLWlNoJeRiKbY0MoXFLPh7zKKOBL8dkB89pIiSPkFf67lhRMCWMYDJe1qp5MqtyeKw4yKdbt/BrJZML6QhHGa6wGR9VtzIF3OEOd2A4UgulAhFRXvnHCne5kOAGZZg7YeubtnWUa3jgg8BZPSxa3EpFvExXhZrig3n27GjHEmP14x73OD+Ebs5rgVrqt0/hSTjI+doT842+msVk7bV3CG5Dv8RgVm/ljsnJlutvhLbmgOB4gstGarALAUkX03JXXVj19nQKlSy26dDTHBCIh+RwrWzUulZmNOEW93EcH4fNn6LIkFgqogvxbBkaAg2BDUVg8zTDdCrLnamEPl/hY1ma2yU2+6C5daaYCMbgNH3iuuOgLbTflnB5dR7vU5B1pEd26eeMlCRrR+E8SfsV5aV/3WKs+M5J51bkIoQAjBHOW6+JTeJGxIoclnhOk6KohMrnaDkt2GWR7Fx3C6WHOxO9fXDElgWjHzMqT5+N6MT0Yl1ikPdpzk2pZHIhWUJGRKZlHjR0eTWTdwU9IgBFoMUwYrs2nMF+F9LclAyzJuysRm0d5Ro2dJ8QIF5X8zZDvKNQU2o6zypL+jTl+q9Mhc4pcMJ4Rd31jKGH8pxfMOPU+3DWVzeWMx0jw8dyLNv2pG9Dv8Rg1pyFS2I2WWQanWLpCPY4AOupsO4uhCV8QOwv3iiSuXKh255O4UEaeqD7lpRVtwnYSDuXwCsZXohDZDCR/bDBUbB5J5EWIhBOZfGWrSHQENhcBDZPM3R3P/QZV//7uGeQD7EB+l+nU+wfEdsmn9Wazr/E1zhNd8qYkdA6RNjxvF2+kLLodqF+hAyd107GPEL5mcSbDdrIL4U25TWnyusxmJF/IUtlhrn5K4nTxOJ+nfx2QSFJxN2JU0zPdVQSGczWwXMwTyYyMIYJi54maF4/c0QwImHETbm4p2FojamvjoFDL41+dF1EIIQ+WSkcaKnE3IZDHvXuxeAsGCw7mLhET1UyOVhdJzFkHUfdnEWBQ6+I2PGEbzlJeIzb4vdE4NwagmWeJZo2q4pV6NdP2FksybwVlCtbyt8sDBrrlSBXWdLnojeR3xkchcHNSYYpWofnapxl5Fu1EwUrP9WA7Ewq9j6RSAYvw1sNxA6prHHFbNvQL06BWfaSPQAADrxJREFUY0HwdHtszR2eXV7lehBXWPOJJuuzFcMFudgceQ9lpOvpJsdBm1vi4YBaudAt1yk13d3hNpwpFNT7XEn752WVDE+DkF8FmxFS25+GOgD1RTwjWVm8ZWsINAQ2F4HN0wyt+3GvbNBgIhxo3MFgaujb5WI5HtxjdGHGtomw41vRqZ4kCrKCttNGOlUIQcm3s0auCoXE7axglYASzqU2DAbJDlnaID0wwrWJ3RIesx23kLha2dmuMhoE/8kaNCbyJ+VOFbPSqRD5MHfw45HfiNWWfVfDZz9PB89+hk5KBqCP0Hmdrx6YksLOEGKcSKoRM4Dj2eGHH97JTL4UriYs4aFwGp92/X7EDlKpMR9W4tikPQxISugQTONwOc7Tqa9jt0yn63pJpZ7JhTC6CxQv4OlEekVGlfD4Z0DnIg03qsHYM2MjZ42DcJD/tdCvn7CDPEwkzqU8BqMqJlo6yEA85eJTzdoySEFifxyusqSP1TKYPgEFj0TWQn7sRiOfOi8BloGjOtSCTr8hg/TnghzPuliuvfuS8TmDAeYd88WtyEF+ysRpDvucD8K1Pf0Sqw01r4zJGfzg04rh9C0wdJAkW7JKu9NfEQO2ZnewbIZl8oADDggi9QtdfadMd/dYvwQ/TgPtd37TgZ2XhctM2TX1DA92aD8xokYLyUt4GBRLDLlKF6c+8ZbSEGgI7FgENk8zBCXB0f88J/s6Hrk53utzpMpXrQy/JvJ1+P6NhUOIgJPE0Atc4AKrdFjK9H3VlBwcd7iZvwj3qcUpIuS0lf0hD3lI35TXuc+m1UxkNGRXeoJPt+/E7fDbMs1T1MWt5EEsO+qoN5rCEJqIcY7KNd3djOCkE3on7x/mqwn5YxAfHqqhAmU2/jmxK6fXZQeTvEnSCZSX6Z38bKoRfCUZiFslXjsYZGkwcSGeUSow7HeiryDlMucHo1aEh82KqF4uIIFOELlI5G4UDxJS5HSxvotDDRq7m3U3velN05bIaBbGwPe85z2EAKHnggJTgE2aLJjikVcrAmq1REi6yInbfKGuHOdp3PBKRPa7ODo5hDovtUTb9VpfTKxnchD8TmKYDTl9mbbpJUt+CniB2T8aDwpjI2SNg3CQ//6kMABiWtUP8voJO8hDJkaN5SHCXMp5SyrxTOITSA5ylWtLvs4qm6OTWAE6a0ti1Rlg5kgQT2qrLOkdPidmtJxjIwqr7lzhk+dF/7ymD0U0rb9uDK51E8OpT1mKiR+u7Dwm+El6zUVFeHPk5LEc+moctcg5NhqzpR3FMtP7nCepsvnb0y/0tAhc7MxUWJQ82LJ2UdEddMbrTYFVmg3jT8tI6Mn93aF/RdyyaRXymFOe3tYvdPWdMj2nYoT08c+REBHmTCiW0v7zJPUMI2jMxACYGNLQCOhM3liQkxM/OHqw6IqP/Y1vfKNMb78bAg2BjUfAArFx/6xocYPLxtBnnoybLlUc8W0tDE0OvWhiIUzrM2GgRT7slA3HeiJ4n+aslHxMqfM2dxAh7meEEpy408gtJzZ7jkBlRU996lNjePGczEeWbdIMgPnaUuaXHkeGUcSxPbIRSoeGTBmInHbWDPImELa9lgFWwbzLTlHxL95kT8XV9sCfx8bzqEc9ahqKsGEy29osmW3tsu6vK+K1qGCMX0pJIW1uTkDLdIxF/rLGiLtA9bWDZmYZSACdR6gHmZyFJ/0z4qQzXpFW+wSdpIa3kqEoc2SwgzrDlkJQK4vYyzvSSTgs6UcglzkJKPkcC5FImFPB8TVQfqbIMudjH/vYkJnkFwTScYDrT/T/fIHKtk29NB2iVL6BhhND3QkFp7hDDz00BwwiXFVlJpSnQ7VTg37b65nsl+2ksGAbqwYM8aL8FIcLJN0xCnTy4JxJtpNnXYNwsGr6fPQdc0Q8LwZJiMk8a5BXTthBHiKRBBl6hbMk8zpzzqKcdlpm8H5dY0j2c0qJl290imFpDfGijGWWLBvv8bBaS/H4SpQNM4vMn/vc50pq+X6M6wCZvvSSXlJeOKPHRlQe0ETT9L6Jw7OUDhY+C4ZEVmRvCjuVOcsgXzKw3377xYj1NEKmTwynsmz5m2NIbmQIus8ZKwboSPmZ8/Of/3xUZy6Xxe0FuT/GOh9fLWhBR1yocoH11cISpCzLJant6Zd00MCDhjtog78xJnyodTX5YS+FubhHmaJFVm/nyLn9+ZTPvRqN2XEUbK022h1llg2sX+gqOwXxsTk1gX/JUpzxDUo+stUz7K3d6FOnxiX9zu8ICt1fY2XLd7bsJhMU2qeGQENg4xD4x9HRJv4LJzoWj0HmiZtEkzS+2UVIJLHyOukUHcEd7n5B+6VzOE6e/U+VKcySDm5jwY1tzNkeN/1OcfZMQmQZocEia3PqZEtNhiRB2bAR0uJwaKfvKB5RkFjg8Yny6XMqKBtRiK1JnOdkBl+lJcKQNEOMCH5svYxamTldVoDpLYFyix3EhKaRW6/npEge5EVHj4kJuYoBjUjhAN7FidLxDCY0E1ss0PL1Klw5rfR2lupohmQCOECAcRUsXFwoD7yABplZDk/iAh04vHODbTq2mDelFBWUoUFmYmTWZExi2wGqKy6GX58f8jr/0lKko6oROvs57dnnPe95Q+vDgB90+wg828nMglq+O0wMcn+VxuigATOcqVhis4hj8vLswGbvNmOcT+spByihFjJLxsvR0XZDBRp9hOuZ7Dewk2I8dM4FIgNr8ODZCl1akRxm+GTSKQft6oNwmmeHSvlsgAjyBszcQR70KydsnxkHENzRw684uslvUnueUNRQZq8W4j8bYsb5k+tBKRz3kewzU6ZYWtNfzsR0DdjXvPlmTnFh4OsRYfeDc1NGbGEtsqalau2TwWzS5YKz3JIevC2c0QtHFKt+30STa5plNkCzK6XJzldnOhZkPGi144Oc0ZRklvDUvvrDaRpkX/VL6c5qGUekXOdBWobGcSrqCrqCnq4tH87FubCr1hb5S4JUevoYDq0hDiJzq/LDxspcmRxuab9kLazQGfAGsHYNJkRjpgSK04F7cc5K/LAaeHmP9m6L6azGsW5QF63Gzs4c5Jk7cWxhH+wjX7/QLeyUIN6fUxP49/nxbhNDaD89UxYyzDXa4XXpok+ucJI7SDOMq/GCRSdDvG1ovtuGBsu2xIZAQ2BDETgSvnOH26AfdkE6GHsUcTZ33A7/FnqLoGNFS39sk1/5yldKqbfMbwvcd999tzMQIqkde+xR2Bu8SUXriBN9bq42OZoJyY/9MK/+D/aXDuXeRu+y05O6BsHhQuao3ifmo9Sf6QlcdGyucek/iKOmdjgLYx1n4YOVlonMF4jbgEv1ZmGpmgzkXaBRe+gz+p0OTy+CTOXrXsvhuZAxQ1E/sg/QyamspWbeL8sv9Itf/CJUKWPTL3QRZ6nrZCCHxJ2LWx2yqsaAevWdfZqrKnVuUJBVry7W0WZBmJsiJW0IfYanU+qZnKBDqtaz6UqaOZkN9e9yzx5s3SAM9oBsPjJfZGTCiQZOf6qZsNMUxr6uhfJcJK0VRiNXCP4aufgYye4qG58rBiydtaSPwbJEOlOMUz9HYxwOLTt0Euu2VdQ/w4Dvt/heY/GlaqpbbjhZmR2x2RHq18AaZpbIsz398tOf/tSybyu3XpVHbMGwtSjWXsqMEzebwuAaa9W1CDspdp8i5Ac7IE04HAHG2l6/0NV0ytw5VXJl4GngtAwgfz3DY02OdD4+/IkgP7gO2+it2+kRPU2qfW0INAQ2BYFN1Qzha7Wirjgd7F/Fnos+qYV6Rlx2+jW37NblLzWZMYV262rffZQbnruvT1uLGgJbjQCnDy7rdJLyyKyslOOr4FKDYYq3mrdGfy4CpWY4t+xemJ9jCwV7lVOPvRC01uSGwKYjsJERaAJ07iWcTPi492+Tz+0Vh8Gcl/IV47nFW/6GQEOgIdAQ2H0I8H1lD+SuPKYWajLzVOdlud2HQ2vRXogA47+AwxH2Zi9sfmtyQ2CvRWCDNUN95pKASyzuDGTw/SU60kOuoju6yTbogLcEwbUX2VCP37XjsC6CDc91IdnoNAR2NwJxp04cpozP2WkvD3+3YTO6zO5GY9e0rm0Bg10JFq7RrsXyWRWXwY1N99XLq+yDpVpiQ6AhsMsQOOqmt0eMO7cLBLCm4HF7mNUc66CL7Jz+PYXUfytiFqmtyJxRzjOy/FbUsvfQbHjuPX3dWtoQWAsCIjeiI6qHwC2ejRFs2a0q9yfdNnTnUIgdj5F6LGH166Zr4bYRWYhA7AJtSx0ESvi3eAXENU5Xgv3jKT2YsyU2BBoCuxiBzbYZRscIvPbWt7514lmesf6jGXITolLuQLXQDfK89OjVjSVaN9bqvTO94bl39ntrdUNgFQS8hSAMssCtgugwDEb8ahGhBIsWSVXksMMOO8yb76tU0cpuGwLiqcTDuQKEdt6h3TYednJF+ZRihGn1xrJbNjuZ4cZbQ6AhsBUIbHAEmq2AY4fQFCSaF1P54q3IacKRRZzoHcLkBrHR8NygzmqsNgR2GgKinTmeE9paLFCP/gmP6UkVtxjy+Z+dxnDjp4OAtyv2339/3ZfpDL/60fMhF73oRRtcgYBHYjxm401INnDIiPDXkGkINAT2QgSaZrgXdnprckOgIdAQaAg0BBoCDYGGQEOgIdAQ+P8hsBu8SVuXNgQaAg2BhkBDoCHQEGgINAQaAg2BhsAqCDTNcBX0WtmGQEOgIdAQaAg0BBoCDYGGQEOgIbAbEGia4W7oxdaGhkBDoCHQEGgINAQaAg2BhkBDoCGwCgJNM1wFvVa2IdAQaAg0BBoCDYGGQEOgIdAQaAjsBgSaZrgberG1oSHQEGgINAQaAg2BhkBDoCHQEGgIrIJA0wxXQa+VbQg0BBoCDYGGQEOgIdAQaAg0BBoCuwGBphnuhl5sbWgINAQaAg2BhkBDoCHQEGgINAQaAqsg0DTDVdBrZRsCDYGGQEOgIdAQaAg0BBoCDYGGwG5AoGmGu6EXWxsaAg2BhkBDoCHQEGgINAQaAg2BhsAqCPxfcnbNW4wRQMoAAAAASUVORK5CYII=;" vertex="1" parent="1">
          <mxGeometry x="130" y="720" width="1203" height="401" as="geometry" />
        </mxCell>
        <mxCell id="gkKONAMZXfoWPJbwshIl-10" value="&lt;div style=&quot;font-size: 32px&quot; align=&quot;left&quot;&gt;&lt;font style=&quot;font-size: 32px&quot; face=&quot;Helvetica&quot;&gt;Inputs:&amp;nbsp; &lt;br style=&quot;font-size: 32px&quot;&gt;- Number of trees L&lt;br style=&quot;font-size: 32px&quot;&gt;&lt;/font&gt;&lt;/div&gt;&lt;div style=&quot;font-size: 32px&quot; align=&quot;left&quot;&gt;&lt;font style=&quot;font-size: 32px&quot; face=&quot;Helvetica&quot;&gt;- purity parameter &lt;/font&gt;&lt;font style=&quot;font-size: 32px&quot;&gt;&lt;span style=&quot;left: 763.042px ; top: 1889.71px ; font-size: 32px ; font-family: sans-serif ; transform: scalex(1.09479)&quot; dir=&quot;ltr&quot;&gt;π&lt;/span&gt;&lt;/font&gt;&lt;/div&gt;&lt;div style=&quot;font-size: 32px&quot; align=&quot;left&quot;&gt;&lt;font style=&quot;font-size: 32px&quot; face=&quot;Helvetica&quot;&gt;- minimum number of instances&lt;/font&gt;&lt;font style=&quot;font-size: 32px&quot; face=&quot;Helvetica&quot;&gt;&lt;span style=&quot;left: 1070.02px ; top: 1889.71px ; font-family: sans-serif ; font-size: 32px&quot; dir=&quot;ltr&quot;&gt; &lt;font style=&quot;font-size: 32px&quot;&gt;η&lt;/font&gt;&lt;/span&gt; in leafs&lt;/font&gt;&lt;font style=&quot;font-size: 32px&quot;&gt;&lt;span style=&quot;left: 763.042px ; top: 1889.71px ; font-size: 32px ; font-family: sans-serif ; transform: scalex(1.09479)&quot; dir=&quot;ltr&quot;&gt;&lt;/span&gt;&lt;/font&gt;&lt;/div&gt;" style="text;html=1;strokeColor=none;fillColor=none;align=left;verticalAlign=middle;whiteSpace=wrap;rounded=0;fontFamily=Courier New;fontSize=32;" vertex="1" parent="1">
          <mxGeometry x="140" y="480" width="1040" height="260" as="geometry" />
        </mxCell>
      </root>
    </mxGraphModel>
  </diagram>
</mxfile>
